<svg xmlns="http://www.w3.org/2000/svg" width="2000" height="1400" viewBox="0 0 2000 1400">
<rect width="2000" height="1400" fill="#f1e3d3"/>
<rect x="-142" y="1233" width="1293" height="327" fill="#ae2012" opacity="0.26" transform="rotate(12 504 1396)"/>
<rect x="-264" y="280" width="1337" height="462" fill="#ca6702" opacity="0.66" transform="rotate(18 405 511)"/>
<rect x="43" y="475" width="1387" height="799" fill="#9b2226" opacity="0.64" transform="rotate(7 736 875)"/>
<rect x="942" y="867" width="587" height="730" fill="#ca6702" opacity="0.28" transform="rotate(-8 1235 1232)"/>
<rect x="897" y="395" width="835" height="451" fill="#ae2012" opacity="0.38" transform="rotate(21 1314 621)"/>
<rect x="279" y="660" width="1274" height="722" fill="#ae2012" opacity="0.50" transform="rotate(4 916 1021)"/>
<rect x="455" y="744" width="1243" height="291" fill="#e09f3e" opacity="0.48" transform="rotate(-8 1077 889)"/>
<path d="M 71 33 Q -1 209 -70 361" stroke="#bb3e03" stroke-width="46" stroke-linecap="round" fill="none" opacity="0.61"/>
<path d="M 1132 1312 Q 1172 1499 1435 1491" stroke="#6a040f" stroke-width="17" stroke-linecap="round" fill="none" opacity="0.34"/>
<path d="M 407 1311 Q 664 1371 625 1272" stroke="#ca6702" stroke-width="20" stroke-linecap="round" fill="none" opacity="0.37"/>
<path d="M 51 496 Q -288 696 -398 753" stroke="#ca6702" stroke-width="14" stroke-linecap="round" fill="none" opacity="0.31"/>
<path d="M 424 512 Q 610 459 909 194" stroke="#6a040f" stroke-width="20" stroke-linecap="round" fill="none" opacity="0.43"/>
<path d="M 1046 1231 Q 1272 1105 1605 1030" stroke="#e09f3e" stroke-width="45" stroke-linecap="round" fill="none" opacity="0.52"/>
<path d="M 1361 463 Q 1377 265 1682 258" stroke="#9b2226" stroke-width="10" stroke-linecap="round" fill="none" opacity="0.63"/>
<path d="M 954 621 Q 1228 799 1216 942" stroke="#e09f3e" stroke-width="10" stroke-linecap="round" fill="none" opacity="0.54"/>
<path d="M 1296 593 Q 1490 382 1926 448" stroke="#bb3e03" stroke-width="7" stroke-linecap="round" fill="none" opacity="0.42"/>
<path d="M 514 1008 Q 622 1100 581 1051" stroke="#e09f3e" stroke-width="12" stroke-linecap="round" fill="none" opacity="0.43"/>
<circle cx="303" cy="148" r="141" fill="#ae2012" opacity="0.64"/>
<circle cx="615" cy="795" r="164" fill="#e09f3e" opacity="0.43"/>
<circle cx="1184" cy="1328" r="40" fill="#ae2012" opacity="0.52"/>
<line x1="1978" y1="260" x2="1972" y2="249" stroke="#e09f3e" stroke-width="1.1" opacity="0.44"/>
<circle cx="669" cy="554" r="1.4" fill="#6a040f" opacity="0.27"/>
<circle cx="609" cy="941" r="1.9" fill="#bb3e03" opacity="0.35"/>
<circle cx="1121" cy="783" r="1.9" fill="#9b2226" opacity="0.58"/>
<circle cx="550" cy="895" r="2.1" fill="#ae2012" opacity="0.56"/>
<line x1="1927" y1="549" x2="1924" y2="559" stroke="#9b2226" stroke-width="1.9" opacity="0.32"/>
<circle cx="410" cy="495" r="1.9" fill="#ca6702" opacity="0.60"/>
<line x1="982" y1="726" x2="977" y2="728" stroke="#ca6702" stroke-width="1.1" opacity="0.47"/>
<circle cx="1392" cy="1141" r="0.9" fill="#ae2012" opacity="0.35"/>
<circle cx="93" cy="147" r="1.7" fill="#bb3e03" opacity="0.44"/>
<line x1="932" y1="1364" x2="942" y2="1369" stroke="#6a040f" stroke-width="1.8" opacity="0.27"/>
<circle cx="783" cy="805" r="1.8" fill="#ae2012" opacity="0.43"/>
<line x1="167" y1="945" x2="162" y2="942" stroke="#ae2012" stroke-width="0.8" opacity="0.58"/>
<circle cx="945" cy="158" r="1.6" fill="#ae2012" opacity="0.25"/>
<circle cx="1592" cy="1257" r="1.8" fill="#bb3e03" opacity="0.34"/>
<circle cx="287" cy="1393" r="2.8" fill="#e09f3e" opacity="0.69"/>
<line x1="561" y1="335" x2="569" y2="324" stroke="#6a040f" stroke-width="2.2" opacity="0.27"/>
<line x1="895" y1="947" x2="899" y2="952" stroke="#9b2226" stroke-width="1.1" opacity="0.41"/>
<circle cx="464" cy="124" r="2.8" fill="#ca6702" opacity="0.60"/>
<circle cx="42" cy="1082" r="1.2" fill="#e09f3e" opacity="0.29"/>
<circle cx="1448" cy="431" r="2.2" fill="#ae2012" opacity="0.46"/>
<line x1="177" y1="619" x2="172" y2="611" stroke="#ae2012" stroke-width="0.9" opacity="0.62"/>
<line x1="833" y1="1398" x2="825" y2="1393" stroke="#ca6702" stroke-width="2.0" opacity="0.54"/>
<line x1="1213" y1="1224" x2="1212" y2="1232" stroke="#ca6702" stroke-width="1.2" opacity="0.53"/>
<line x1="983" y1="1109" x2="972" y2="1115" stroke="#6a040f" stroke-width="1.0" opacity="0.51"/>
<line x1="433" y1="1019" x2="428" y2="1029" stroke="#6a040f" stroke-width="1.9" opacity="0.63"/>
<line x1="334" y1="33" x2="331" y2="29" stroke="#ca6702" stroke-width="1.5" opacity="0.21"/>
<line x1="1431" y1="81" x2="1438" y2="85" stroke="#ca6702" stroke-width="1.3" opacity="0.28"/>
<circle cx="1556" cy="681" r="1.6" fill="#ca6702" opacity="0.29"/>
<circle cx="749" cy="374" r="0.7" fill="#9b2226" opacity="0.54"/>
<circle cx="651" cy="366" r="1.5" fill="#e09f3e" opacity="0.64"/>
<circle cx="57" cy="562" r="2.9" fill="#e09f3e" opacity="0.62"/>
<circle cx="1560" cy="725" r="3.0" fill="#9b2226" opacity="0.33"/>
<line x1="1457" y1="1309" x2="1453" y2="1310" stroke="#6a040f" stroke-width="0.9" opacity="0.60"/>
<line x1="429" y1="102" x2="431" y2="101" stroke="#6a040f" stroke-width="0.7" opacity="0.65"/>
<circle cx="458" cy="956" r="0.7" fill="#ae2012" opacity="0.57"/>
<line x1="1175" y1="344" x2="1172" y2="341" stroke="#ae2012" stroke-width="2.1" opacity="0.22"/>
<circle cx="1256" cy="728" r="0.7" fill="#6a040f" opacity="0.60"/>
<line x1="1570" y1="252" x2="1563" y2="255" stroke="#9b2226" stroke-width="1.4" opacity="0.44"/>
<line x1="482" y1="466" x2="494" y2="469" stroke="#9b2226" stroke-width="0.7" opacity="0.42"/>
<circle cx="123" cy="1303" r="1.4" fill="#ca6702" opacity="0.23"/>
<line x1="1058" y1="1185" x2="1052" y2="1177" stroke="#ae2012" stroke-width="2.0" opacity="0.35"/>
<line x1="1057" y1="1032" x2="1050" y2="1020" stroke="#ae2012" stroke-width="1.8" opacity="0.59"/>
<circle cx="710" cy="1166" r="2.7" fill="#9b2226" opacity="0.46"/>
<line x1="594" y1="526" x2="592" y2="536" stroke="#ca6702" stroke-width="1.7" opacity="0.57"/>
<line x1="1586" y1="921" x2="1580" y2="923" stroke="#ca6702" stroke-width="1.3" opacity="0.49"/>
<line x1="807" y1="550" x2="804" y2="550" stroke="#9b2226" stroke-width="2.0" opacity="0.41"/>
<circle cx="289" cy="1130" r="1.6" fill="#bb3e03" opacity="0.32"/>
<circle cx="819" cy="1363" r="1.7" fill="#ca6702" opacity="0.52"/>
<line x1="837" y1="328" x2="849" y2="326" stroke="#9b2226" stroke-width="2.0" opacity="0.62"/>
<line x1="1192" y1="467" x2="1199" y2="465" stroke="#ca6702" stroke-width="2.0" opacity="0.35"/>
<circle cx="1208" cy="207" r="1.6" fill="#ca6702" opacity="0.61"/>
<circle cx="782" cy="97" r="2.7" fill="#9b2226" opacity="0.65"/>
<line x1="1978" y1="1093" x2="1969" y2="1087" stroke="#ca6702" stroke-width="1.3" opacity="0.50"/>
<circle cx="1310" cy="952" r="1.6" fill="#e09f3e" opacity="0.45"/>
<circle cx="1575" cy="172" r="0.7" fill="#ae2012" opacity="0.53"/>
<line x1="308" y1="1104" x2="319" y2="1101" stroke="#9b2226" stroke-width="1.9" opacity="0.41"/>
<circle cx="1918" cy="905" r="2.9" fill="#ae2012" opacity="0.49"/>
<circle cx="1075" cy="492" r="0.8" fill="#ae2012" opacity="0.42"/>
<circle cx="251" cy="1219" r="0.8" fill="#e09f3e" opacity="0.44"/>
<circle cx="1739" cy="167" r="2.2" fill="#ca6702" opacity="0.58"/>
<circle cx="333" cy="518" r="2.3" fill="#e09f3e" opacity="0.63"/>
<line x1="1594" y1="266" x2="1584" y2="276" stroke="#9b2226" stroke-width="1.4" opacity="0.60"/>
<line x1="1584" y1="291" x2="1584" y2="303" stroke="#bb3e03" stroke-width="1.8" opacity="0.41"/>
<circle cx="850" cy="282" r="1.2" fill="#6a040f" opacity="0.42"/>
<line x1="622" y1="145" x2="620" y2="151" stroke="#ae2012" stroke-width="0.7" opacity="0.62"/>
<circle cx="1981" cy="1333" r="2.3" fill="#bb3e03" opacity="0.21"/>
<line x1="1624" y1="9" x2="1624" y2="18" stroke="#e09f3e" stroke-width="1.3" opacity="0.42"/>
<line x1="321" y1="778" x2="321" y2="788" stroke="#e09f3e" stroke-width="2.0" opacity="0.33"/>
<circle cx="1209" cy="1178" r="2.4" fill="#6a040f" opacity="0.61"/>
<circle cx="215" cy="1320" r="1.8" fill="#6a040f" opacity="0.32"/>
<circle cx="1859" cy="460" r="0.7" fill="#ae2012" opacity="0.22"/>
<circle cx="535" cy="1370" r="1.0" fill="#6a040f" opacity="0.53"/>
<line x1="1293" y1="222" x2="1288" y2="231" stroke="#ae2012" stroke-width="1.8" opacity="0.44"/>
<circle cx="950" cy="386" r="2.6" fill="#ca6702" opacity="0.49"/>
<circle cx="987" cy="1072" r="2.7" fill="#e09f3e" opacity="0.65"/>
<line x1="1974" y1="481" x2="1965" y2="476" stroke="#bb3e03" stroke-width="1.8" opacity="0.48"/>
<line x1="11" y1="1269" x2="16" y2="1269" stroke="#bb3e03" stroke-width="1.2" opacity="0.38"/>
<line x1="1820" y1="262" x2="1821" y2="274" stroke="#6a040f" stroke-width="1.3" opacity="0.33"/>
<circle cx="646" cy="914" r="1.1" fill="#bb3e03" opacity="0.35"/>
<circle cx="1912" cy="554" r="2.7" fill="#6a040f" opacity="0.57"/>
<line x1="1481" y1="500" x2="1481" y2="506" stroke="#ca6702" stroke-width="2.2" opacity="0.35"/>
<circle cx="1988" cy="1285" r="2.3" fill="#ae2012" opacity="0.47"/>
<line x1="1469" y1="335" x2="1472" y2="328" stroke="#6a040f" stroke-width="1.0" opacity="0.38"/>
<circle cx="1658" cy="958" r="1.9" fill="#ae2012" opacity="0.43"/>
<line x1="1473" y1="1305" x2="1483" y2="1293" stroke="#ca6702" stroke-width="1.4" opacity="0.44"/>
<circle cx="1209" cy="105" r="1.2" fill="#ca6702" opacity="0.29"/>
<circle cx="1100" cy="351" r="0.6" fill="#bb3e03" opacity="0.32"/>
<line x1="347" y1="115" x2="357" y2="126" stroke="#ca6702" stroke-width="1.7" opacity="0.52"/>
<circle cx="1116" cy="76" r="0.8" fill="#9b2226" opacity="0.42"/>
<circle cx="323" cy="294" r="2.1" fill="#ca6702" opacity="0.34"/>
<line x1="1638" y1="698" x2="1632" y2="707" stroke="#ae2012" stroke-width="1.3" opacity="0.40"/>
<circle cx="19" cy="322" r="1.9" fill="#6a040f" opacity="0.54"/>
<line x1="723" y1="1231" x2="720" y2="1230" stroke="#6a040f" stroke-width="1.5" opacity="0.61"/>
<line x1="756" y1="690" x2="749" y2="689" stroke="#ca6702" stroke-width="1.3" opacity="0.36"/>
<line x1="1075" y1="199" x2="1074" y2="199" stroke="#e09f3e" stroke-width="1.9" opacity="0.45"/>
<circle cx="50" cy="1312" r="2.3" fill="#e09f3e" opacity="0.57"/>
<line x1="1003" y1="35" x2="1007" y2="29" stroke="#ae2012" stroke-width="1.8" opacity="0.34"/>
<circle cx="26" cy="1196" r="1.2" fill="#e09f3e" opacity="0.67"/>
<circle cx="1199" cy="1156" r="2.4" fill="#ae2012" opacity="0.33"/>
<circle cx="1814" cy="1374" r="1.1" fill="#bb3e03" opacity="0.51"/>
<circle cx="1679" cy="847" r="2.5" fill="#e09f3e" opacity="0.64"/>
<circle cx="1706" cy="1263" r="0.8" fill="#ca6702" opacity="0.30"/>
<line x1="741" y1="1261" x2="735" y2="1250" stroke="#9b2226" stroke-width="2.2" opacity="0.29"/>
<circle cx="1772" cy="1129" r="2.6" fill="#6a040f" opacity="0.48"/>
<circle cx="1942" cy="551" r="2.4" fill="#e09f3e" opacity="0.35"/>
<circle cx="1496" cy="873" r="2.6" fill="#bb3e03" opacity="0.48"/>
<line x1="1209" y1="301" x2="1213" y2="295" stroke="#bb3e03" stroke-width="0.7" opacity="0.23"/>
<line x1="599" y1="99" x2="590" y2="101" stroke="#bb3e03" stroke-width="1.0" opacity="0.29"/>
<line x1="1182" y1="1179" x2="1187" y2="1185" stroke="#bb3e03" stroke-width="0.7" opacity="0.37"/>
<line x1="1777" y1="227" x2="1775" y2="220" stroke="#e09f3e" stroke-width="0.8" opacity="0.61"/>
<circle cx="685" cy="20" r="2.3" fill="#bb3e03" opacity="0.63"/>
<line x1="1486" y1="500" x2="1474" y2="492" stroke="#ca6702" stroke-width="0.9" opacity="0.27"/>
<circle cx="160" cy="160" r="1.0" fill="#ae2012" opacity="0.28"/>
<circle cx="528" cy="524" r="2.8" fill="#e09f3e" opacity="0.42"/>
<circle cx="1884" cy="1005" r="1.1" fill="#6a040f" opacity="0.46"/>
<line x1="710" y1="685" x2="706" y2="675" stroke="#bb3e03" stroke-width="1.2" opacity="0.35"/>
<line x1="392" y1="450" x2="384" y2="449" stroke="#bb3e03" stroke-width="1.4" opacity="0.28"/>
<line x1="916" y1="483" x2="907" y2="480" stroke="#ca6702" stroke-width="0.9" opacity="0.29"/>
<line x1="1879" y1="1" x2="1878" y2="-7" stroke="#ca6702" stroke-width="1.0" opacity="0.45"/>
<circle cx="1269" cy="1362" r="1.4" fill="#6a040f" opacity="0.50"/>
<line x1="88" y1="795" x2="99" y2="804" stroke="#ca6702" stroke-width="1.7" opacity="0.47"/>
<line x1="319" y1="789" x2="331" y2="780" stroke="#ca6702" stroke-width="0.7" opacity="0.29"/>
<line x1="1811" y1="26" x2="1807" y2="16" stroke="#e09f3e" stroke-width="2.1" opacity="0.60"/>
<line x1="783" y1="926" x2="794" y2="916" stroke="#bb3e03" stroke-width="0.9" opacity="0.35"/>
<line x1="1680" y1="933" x2="1679" y2="943" stroke="#9b2226" stroke-width="1.3" opacity="0.44"/>
<line x1="443" y1="1267" x2="453" y2="1269" stroke="#ae2012" stroke-width="0.7" opacity="0.38"/>
<circle cx="406" cy="364" r="1.9" fill="#e09f3e" opacity="0.44"/>
<circle cx="1729" cy="1269" r="0.6" fill="#bb3e03" opacity="0.70"/>
<line x1="1474" y1="1106" x2="1483" y2="1117" stroke="#ae2012" stroke-width="1.7" opacity="0.24"/>
<line x1="1134" y1="1326" x2="1128" y2="1326" stroke="#bb3e03" stroke-width="1.8" opacity="0.20"/>
<circle cx="397" cy="937" r="2.8" fill="#9b2226" opacity="0.59"/>
<line x1="1222" y1="681" x2="1210" y2="671" stroke="#ae2012" stroke-width="0.8" opacity="0.32"/>
<line x1="1072" y1="1245" x2="1078" y2="1242" stroke="#e09f3e" stroke-width="1.8" opacity="0.61"/>
<line x1="363" y1="910" x2="372" y2="913" stroke="#ca6702" stroke-width="1.1" opacity="0.52"/>
<line x1="599" y1="536" x2="589" y2="532" stroke="#e09f3e" stroke-width="1.7" opacity="0.42"/>
<circle cx="684" cy="732" r="1.8" fill="#ae2012" opacity="0.40"/>
<line x1="1830" y1="934" x2="1831" y2="932" stroke="#9b2226" stroke-width="2.1" opacity="0.39"/>
<line x1="1025" y1="446" x2="1029" y2="456" stroke="#6a040f" stroke-width="1.6" opacity="0.27"/>
<circle cx="1368" cy="107" r="1.2" fill="#ae2012" opacity="0.49"/>
<circle cx="1967" cy="1163" r="1.2" fill="#bb3e03" opacity="0.57"/>
<circle cx="678" cy="373" r="2.5" fill="#6a040f" opacity="0.65"/>
<line x1="1922" y1="1314" x2="1925" y2="1312" stroke="#e09f3e" stroke-width="1.7" opacity="0.26"/>
<circle cx="154" cy="300" r="2.4" fill="#bb3e03" opacity="0.52"/>
<line x1="153" y1="299" x2="164" y2="295" stroke="#e09f3e" stroke-width="2.0" opacity="0.46"/>
<circle cx="1072" cy="1387" r="2.6" fill="#9b2226" opacity="0.62"/>
<circle cx="553" cy="1047" r="1.1" fill="#9b2226" opacity="0.35"/>
<line x1="254" y1="943" x2="247" y2="951" stroke="#9b2226" stroke-width="0.9" opacity="0.26"/>
<line x1="1664" y1="446" x2="1665" y2="448" stroke="#bb3e03" stroke-width="2.0" opacity="0.21"/>
<line x1="321" y1="968" x2="320" y2="964" stroke="#ca6702" stroke-width="1.5" opacity="0.25"/>
<line x1="1310" y1="87" x2="1308" y2="90" stroke="#bb3e03" stroke-width="0.6" opacity="0.61"/>
<line x1="1765" y1="652" x2="1767" y2="653" stroke="#6a040f" stroke-width="0.9" opacity="0.55"/>
<circle cx="322" cy="241" r="1.1" fill="#e09f3e" opacity="0.34"/>
<line x1="196" y1="63" x2="189" y2="70" stroke="#9b2226" stroke-width="2.1" opacity="0.28"/>
<circle cx="666" cy="877" r="0.6" fill="#ca6702" opacity="0.64"/>
<line x1="841" y1="819" x2="835" y2="826" stroke="#e09f3e" stroke-width="2.2" opacity="0.43"/>
<circle cx="882" cy="1100" r="1.2" fill="#bb3e03" opacity="0.34"/>
<circle cx="1553" cy="1332" r="1.1" fill="#ae2012" opacity="0.61"/>
<line x1="882" y1="860" x2="885" y2="865" stroke="#ca6702" stroke-width="0.8" opacity="0.63"/>
<line x1="621" y1="72" x2="613" y2="61" stroke="#6a040f" stroke-width="1.9" opacity="0.61"/>
<circle cx="622" cy="1314" r="0.9" fill="#ae2012" opacity="0.25"/>
<circle cx="1132" cy="326" r="2.7" fill="#bb3e03" opacity="0.65"/>
<line x1="1400" y1="9" x2="1395" y2="4" stroke="#6a040f" stroke-width="1.0" opacity="0.37"/>
<line x1="467" y1="988" x2="464" y2="985" stroke="#6a040f" stroke-width="1.9" opacity="0.21"/>
<circle cx="542" cy="1310" r="2.1" fill="#6a040f" opacity="0.63"/>
<circle cx="1561" cy="1043" r="1.4" fill="#ae2012" opacity="0.22"/>
<line x1="526" y1="648" x2="517" y2="645" stroke="#e09f3e" stroke-width="2.1" opacity="0.40"/>
<circle cx="1190" cy="321" r="1.3" fill="#9b2226" opacity="0.53"/>
<circle cx="1092" cy="1116" r="0.9" fill="#9b2226" opacity="0.34"/>
<line x1="1295" y1="232" x2="1290" y2="222" stroke="#e09f3e" stroke-width="1.5" opacity="0.29"/>
<circle cx="798" cy="340" r="2.2" fill="#9b2226" opacity="0.61"/>
<circle cx="1030" cy="797" r="2.4" fill="#ae2012" opacity="0.46"/>
<line x1="1225" y1="675" x2="1226" y2="666" stroke="#bb3e03" stroke-width="1.6" opacity="0.54"/>
<line x1="273" y1="326" x2="275" y2="318" stroke="#6a040f" stroke-width="1.5" opacity="0.59"/>
<circle cx="711" cy="517" r="2.2" fill="#bb3e03" opacity="0.50"/>
<line x1="805" y1="1023" x2="817" y2="1033" stroke="#9b2226" stroke-width="0.8" opacity="0.61"/>
<circle cx="1208" cy="1234" r="2.2" fill="#6a040f" opacity="0.60"/>
<line x1="1873" y1="74" x2="1872" y2="80" stroke="#bb3e03" stroke-width="1.8" opacity="0.40"/>
<circle cx="906" cy="513" r="2.0" fill="#ae2012" opacity="0.60"/>
<circle cx="1910" cy="962" r="1.1" fill="#bb3e03" opacity="0.44"/>
<circle cx="797" cy="308" r="1.5" fill="#9b2226" opacity="0.28"/>
<line x1="1954" y1="1371" x2="1959" y2="1366" stroke="#9b2226" stroke-width="1.3" opacity="0.44"/>
<circle cx="338" cy="965" r="2.0" fill="#6a040f" opacity="0.34"/>
<circle cx="1352" cy="750" r="2.3" fill="#ca6702" opacity="0.62"/>
<circle cx="1154" cy="333" r="2.5" fill="#9b2226" opacity="0.60"/>
<line x1="298" y1="194" x2="287" y2="197" stroke="#e09f3e" stroke-width="1.2" opacity="0.40"/>
<line x1="84" y1="407" x2="89" y2="410" stroke="#e09f3e" stroke-width="1.0" opacity="0.63"/>
<line x1="1602" y1="705" x2="1600" y2="708" stroke="#9b2226" stroke-width="1.9" opacity="0.49"/>
<line x1="755" y1="1139" x2="759" y2="1127" stroke="#ae2012" stroke-width="0.9" opacity="0.32"/>
<line x1="1572" y1="778" x2="1576" y2="773" stroke="#9b2226" stroke-width="1.4" opacity="0.21"/>
<line x1="293" y1="1253" x2="295" y2="1251" stroke="#bb3e03" stroke-width="2.2" opacity="0.36"/>
<circle cx="74" cy="594" r="0.8" fill="#ca6702" opacity="0.39"/>
<circle cx="1982" cy="70" r="2.6" fill="#e09f3e" opacity="0.55"/>
<line x1="665" y1="560" x2="653" y2="556" stroke="#ca6702" stroke-width="2.0" opacity="0.46"/>
<line x1="1808" y1="1370" x2="1811" y2="1375" stroke="#6a040f" stroke-width="1.8" opacity="0.56"/>
<line x1="1897" y1="1267" x2="1900" y2="1268" stroke="#e09f3e" stroke-width="2.1" opacity="0.34"/>
<line x1="1065" y1="489" x2="1067" y2="499" stroke="#6a040f" stroke-width="1.4" opacity="0.42"/>
<line x1="920" y1="73" x2="929" y2="63" stroke="#ca6702" stroke-width="1.6" opacity="0.25"/>
<line x1="1819" y1="807" x2="1814" y2="819" stroke="#6a040f" stroke-width="0.9" opacity="0.64"/>
<line x1="759" y1="871" x2="751" y2="862" stroke="#bb3e03" stroke-width="1.7" opacity="0.26"/>
<circle cx="1897" cy="564" r="1.0" fill="#ca6702" opacity="0.27"/>
<line x1="1401" y1="744" x2="1391" y2="756" stroke="#bb3e03" stroke-width="1.8" opacity="0.25"/>
<circle cx="1136" cy="571" r="1.3" fill="#6a040f" opacity="0.31"/>
<circle cx="80" cy="1237" r="0.8" fill="#e09f3e" opacity="0.53"/>
<line x1="843" y1="70" x2="841" y2="77" stroke="#bb3e03" stroke-width="2.1" opacity="0.41"/>
<line x1="131" y1="1047" x2="129" y2="1055" stroke="#6a040f" stroke-width="0.7" opacity="0.37"/>
<circle cx="1358" cy="681" r="1.0" fill="#bb3e03" opacity="0.48"/>
<circle cx="1678" cy="81" r="2.3" fill="#6a040f" opacity="0.43"/>
<line x1="635" y1="649" x2="627" y2="639" stroke="#e09f3e" stroke-width="2.1" opacity="0.58"/>
<circle cx="207" cy="1270" r="0.7" fill="#6a040f" opacity="0.45"/>
<circle cx="500" cy="1173" r="1.7" fill="#ca6702" opacity="0.61"/>
<circle cx="1468" cy="69" r="2.6" fill="#ca6702" opacity="0.47"/>
<line x1="1146" y1="480" x2="1140" y2="488" stroke="#e09f3e" stroke-width="2.2" opacity="0.59"/>
<circle cx="1803" cy="325" r="3.0" fill="#bb3e03" opacity="0.38"/>
<line x1="1668" y1="408" x2="1656" y2="420" stroke="#6a040f" stroke-width="0.9" opacity="0.29"/>
<circle cx="1406" cy="453" r="1.3" fill="#9b2226" opacity="0.41"/>
<line x1="1760" y1="833" x2="1753" y2="828" stroke="#9b2226" stroke-width="1.6" opacity="0.40"/>
<line x1="1648" y1="132" x2="1647" y2="124" stroke="#9b2226" stroke-width="1.9" opacity="0.35"/>
<line x1="364" y1="1054" x2="355" y2="1054" stroke="#e09f3e" stroke-width="0.9" opacity="0.54"/>
<line x1="1890" y1="348" x2="1889" y2="357" stroke="#6a040f" stroke-width="0.8" opacity="0.48"/>
<line x1="883" y1="160" x2="878" y2="158" stroke="#e09f3e" stroke-width="1.4" opacity="0.20"/>
<line x1="256" y1="23" x2="261" y2="18" stroke="#e09f3e" stroke-width="1.8" opacity="0.43"/>
<line x1="1385" y1="146" x2="1392" y2="157" stroke="#6a040f" stroke-width="1.5" opacity="0.31"/>
<circle cx="942" cy="583" r="1.3" fill="#9b2226" opacity="0.30"/>
<circle cx="150" cy="423" r="1.4" fill="#e09f3e" opacity="0.38"/>
<circle cx="1702" cy="872" r="2.6" fill="#e09f3e" opacity="0.30"/>
<circle cx="1799" cy="807" r="2.6" fill="#6a040f" opacity="0.58"/>
<line x1="1306" y1="1053" x2="1310" y2="1042" stroke="#9b2226" stroke-width="2.0" opacity="0.60"/>
<circle cx="1327" cy="1300" r="2.4" fill="#9b2226" opacity="0.44"/>
<line x1="1174" y1="1099" x2="1175" y2="1106" stroke="#9b2226" stroke-width="0.7" opacity="0.59"/>
<circle cx="804" cy="1361" r="0.6" fill="#ca6702" opacity="0.38"/>
<line x1="1919" y1="234" x2="1930" y2="225" stroke="#ae2012" stroke-width="1.9" opacity="0.64"/>
<line x1="527" y1="1028" x2="527" y2="1021" stroke="#6a040f" stroke-width="0.9" opacity="0.21"/>
<circle cx="1141" cy="842" r="0.6" fill="#9b2226" opacity="0.27"/>
<circle cx="217" cy="986" r="2.2" fill="#9b2226" opacity="0.49"/>
<line x1="42" y1="760" x2="49" y2="770" stroke="#9b2226" stroke-width="1.5" opacity="0.46"/>
<circle cx="917" cy="875" r="2.5" fill="#6a040f" opacity="0.43"/>
<line x1="1162" y1="207" x2="1167" y2="203" stroke="#6a040f" stroke-width="1.9" opacity="0.45"/>
<circle cx="1506" cy="775" r="2.8" fill="#6a040f" opacity="0.53"/>
<circle cx="1618" cy="809" r="2.9" fill="#e09f3e" opacity="0.55"/>
<line x1="1439" y1="1265" x2="1447" y2="1254" stroke="#6a040f" stroke-width="1.2" opacity="0.59"/>
<circle cx="192" cy="213" r="1.2" fill="#ae2012" opacity="0.63"/>
<line x1="680" y1="291" x2="671" y2="302" stroke="#bb3e03" stroke-width="1.6" opacity="0.49"/>
<circle cx="1010" cy="1294" r="0.9" fill="#ae2012" opacity="0.52"/>
<circle cx="259" cy="766" r="0.9" fill="#ca6702" opacity="0.31"/>
<line x1="1260" y1="899" x2="1258" y2="910" stroke="#bb3e03" stroke-width="1.9" opacity="0.62"/>
<circle cx="1845" cy="1004" r="2.9" fill="#bb3e03" opacity="0.50"/>
<circle cx="1333" cy="520" r="0.6" fill="#ca6702" opacity="0.28"/>
<circle cx="448" cy="570" r="0.9" fill="#ae2012" opacity="0.43"/>
<line x1="402" y1="1339" x2="395" y2="1341" stroke="#ca6702" stroke-width="1.1" opacity="0.58"/>
<circle cx="1698" cy="1302" r="2.8" fill="#ae2012" opacity="0.65"/>
<circle cx="1486" cy="1262" r="2.6" fill="#e09f3e" opacity="0.66"/>
<line x1="937" y1="568" x2="938" y2="557" stroke="#ca6702" stroke-width="2.0" opacity="0.62"/>
<circle cx="1554" cy="988" r="0.9" fill="#6a040f" opacity="0.65"/>
<circle cx="253" cy="236" r="1.3" fill="#e09f3e" opacity="0.55"/>
<line x1="1858" y1="461" x2="1855" y2="465" stroke="#6a040f" stroke-width="0.8" opacity="0.39"/>
<line x1="530" y1="66" x2="541" y2="55" stroke="#bb3e03" stroke-width="1.2" opacity="0.21"/>
<circle cx="162" cy="155" r="1.3" fill="#e09f3e" opacity="0.55"/>
<line x1="741" y1="382" x2="735" y2="387" stroke="#e09f3e" stroke-width="1.4" opacity="0.65"/>
<line x1="1518" y1="744" x2="1515" y2="748" stroke="#e09f3e" stroke-width="2.1" opacity="0.23"/>
<circle cx="73" cy="599" r="1.3" fill="#bb3e03" opacity="0.37"/>
<circle cx="203" cy="20" r="1.8" fill="#ca6702" opacity="0.44"/>
<circle cx="1286" cy="873" r="2.7" fill="#e09f3e" opacity="0.20"/>
<circle cx="1359" cy="74" r="1.1" fill="#ae2012" opacity="0.56"/>
<circle cx="33" cy="908" r="1.5" fill="#ca6702" opacity="0.23"/>
<circle cx="609" cy="355" r="1.9" fill="#e09f3e" opacity="0.39"/>
<circle cx="1234" cy="506" r="1.0" fill="#e09f3e" opacity="0.23"/>
<line x1="1599" y1="189" x2="1592" y2="186" stroke="#e09f3e" stroke-width="0.9" opacity="0.64"/>
<circle cx="1122" cy="575" r="1.7" fill="#9b2226" opacity="0.64"/>
<line x1="95" y1="550" x2="92" y2="545" stroke="#ca6702" stroke-width="1.2" opacity="0.51"/>
<circle cx="1036" cy="1255" r="1.3" fill="#ca6702" opacity="0.28"/>
<line x1="473" y1="405" x2="481" y2="397" stroke="#9b2226" stroke-width="1.6" opacity="0.53"/>
<line x1="1085" y1="376" x2="1082" y2="385" stroke="#ca6702" stroke-width="1.7" opacity="0.64"/>
<circle cx="785" cy="487" r="0.9" fill="#ca6702" opacity="0.23"/>
<circle cx="1489" cy="350" r="2.0" fill="#e09f3e" opacity="0.30"/>
<circle cx="439" cy="204" r="2.0" fill="#bb3e03" opacity="0.26"/>
<circle cx="514" cy="1162" r="1.2" fill="#ca6702" opacity="0.20"/>
<circle cx="616" cy="628" r="2.6" fill="#ca6702" opacity="0.28"/>
<circle cx="648" cy="1019" r="1.3" fill="#ae2012" opacity="0.30"/>
<circle cx="485" cy="884" r="2.0" fill="#6a040f" opacity="0.25"/>
<line x1="1728" y1="847" x2="1721" y2="857" stroke="#ae2012" stroke-width="1.5" opacity="0.57"/>
<circle cx="1021" cy="378" r="2.4" fill="#e09f3e" opacity="0.30"/>
<line x1="1518" y1="1052" x2="1520" y2="1052" stroke="#ca6702" stroke-width="1.4" opacity="0.42"/>
<circle cx="542" cy="529" r="0.6" fill="#6a040f" opacity="0.22"/>
<line x1="901" y1="1365" x2="894" y2="1354" stroke="#e09f3e" stroke-width="2.1" opacity="0.57"/>
<line x1="470" y1="1007" x2="482" y2="1009" stroke="#ae2012" stroke-width="1.6" opacity="0.49"/>
<circle cx="578" cy="1039" r="1.5" fill="#ca6702" opacity="0.36"/>
<circle cx="1916" cy="741" r="2.5" fill="#ae2012" opacity="0.48"/>
<line x1="810" y1="1328" x2="818" y2="1325" stroke="#ae2012" stroke-width="1.7" opacity="0.59"/>
<circle cx="4" cy="141" r="2.0" fill="#e09f3e" opacity="0.70"/>
<circle cx="128" cy="692" r="3.0" fill="#9b2226" opacity="0.50"/>
<circle cx="1308" cy="401" r="1.7" fill="#bb3e03" opacity="0.34"/>
<circle cx="93" cy="1329" r="3.0" fill="#6a040f" opacity="0.31"/>
<circle cx="226" cy="624" r="1.1" fill="#ae2012" opacity="0.46"/>
<line x1="1204" y1="1162" x2="1195" y2="1160" stroke="#9b2226" stroke-width="1.0" opacity="0.23"/>
<circle cx="541" cy="1010" r="2.0" fill="#6a040f" opacity="0.63"/>
<line x1="410" y1="1093" x2="421" y2="1099" stroke="#ae2012" stroke-width="1.6" opacity="0.56"/>
<circle cx="327" cy="133" r="1.0" fill="#ae2012" opacity="0.66"/>
<line x1="1235" y1="79" x2="1224" y2="89" stroke="#6a040f" stroke-width="0.8" opacity="0.28"/>
<line x1="59" y1="421" x2="62" y2="430" stroke="#bb3e03" stroke-width="1.5" opacity="0.32"/>
<line x1="1086" y1="492" x2="1085" y2="495" stroke="#6a040f" stroke-width="2.0" opacity="0.33"/>
<circle cx="270" cy="325" r="2.9" fill="#ca6702" opacity="0.47"/>
<line x1="1496" y1="1173" x2="1503" y2="1167" stroke="#bb3e03" stroke-width="1.2" opacity="0.37"/>
<circle cx="217" cy="16" r="0.7" fill="#bb3e03" opacity="0.29"/>
<circle cx="510" cy="821" r="1.2" fill="#ae2012" opacity="0.51"/>
<circle cx="856" cy="1003" r="2.3" fill="#ca6702" opacity="0.39"/>
<line x1="1738" y1="711" x2="1731" y2="705" stroke="#e09f3e" stroke-width="1.4" opacity="0.49"/>
<circle cx="1073" cy="873" r="1.8" fill="#bb3e03" opacity="0.21"/>
<line x1="1218" y1="1258" x2="1216" y2="1248" stroke="#e09f3e" stroke-width="1.5" opacity="0.58"/>
<line x1="1908" y1="1016" x2="1917" y2="1009" stroke="#bb3e03" stroke-width="1.8" opacity="0.36"/>
<line x1="94" y1="1015" x2="83" y2="1010" stroke="#ae2012" stroke-width="1.1" opacity="0.31"/>
<line x1="1270" y1="1150" x2="1264" y2="1144" stroke="#bb3e03" stroke-width="1.9" opacity="0.23"/>
<line x1="1966" y1="895" x2="1971" y2="901" stroke="#e09f3e" stroke-width="2.2" opacity="0.22"/>
<line x1="889" y1="1325" x2="900" y2="1321" stroke="#bb3e03" stroke-width="2.2" opacity="0.35"/>
<circle cx="700" cy="209" r="1.6" fill="#6a040f" opacity="0.22"/>
<circle cx="1524" cy="1202" r="2.7" fill="#6a040f" opacity="0.24"/>
<line x1="1216" y1="822" x2="1223" y2="815" stroke="#ca6702" stroke-width="0.9" opacity="0.33"/>
<line x1="1752" y1="1153" x2="1752" y2="1164" stroke="#9b2226" stroke-width="0.6" opacity="0.33"/>
<line x1="1596" y1="84" x2="1585" y2="94" stroke="#e09f3e" stroke-width="2.2" opacity="0.33"/>
<circle cx="1554" cy="919" r="1.8" fill="#bb3e03" opacity="0.34"/>
<line x1="1242" y1="265" x2="1245" y2="270" stroke="#ae2012" stroke-width="1.8" opacity="0.40"/>
<line x1="1086" y1="935" x2="1080" y2="942" stroke="#6a040f" stroke-width="0.7" opacity="0.49"/>
<line x1="1568" y1="54" x2="1578" y2="46" stroke="#e09f3e" stroke-width="1.9" opacity="0.65"/>
<line x1="1540" y1="758" x2="1545" y2="748" stroke="#ae2012" stroke-width="1.5" opacity="0.47"/>
<circle cx="331" cy="344" r="1.7" fill="#9b2226" opacity="0.55"/>
<line x1="1506" y1="940" x2="1506" y2="933" stroke="#bb3e03" stroke-width="1.1" opacity="0.27"/>
<line x1="415" y1="927" x2="426" y2="928" stroke="#6a040f" stroke-width="2.1" opacity="0.21"/>
<circle cx="1442" cy="846" r="0.9" fill="#bb3e03" opacity="0.51"/>
<line x1="1016" y1="1025" x2="1013" y2="1029" stroke="#ca6702" stroke-width="1.1" opacity="0.31"/>
<line x1="553" y1="1205" x2="543" y2="1204" stroke="#ca6702" stroke-width="1.8" opacity="0.47"/>
<circle cx="478" cy="1279" r="1.9" fill="#e09f3e" opacity="0.41"/>
<circle cx="601" cy="836" r="2.1" fill="#6a040f" opacity="0.52"/>
<line x1="545" y1="240" x2="547" y2="241" stroke="#6a040f" stroke-width="0.8" opacity="0.26"/>
<line x1="1115" y1="225" x2="1114" y2="224" stroke="#ca6702" stroke-width="1.4" opacity="0.23"/>
<circle cx="860" cy="1222" r="1.5" fill="#ca6702" opacity="0.68"/>
<line x1="941" y1="780" x2="941" y2="769" stroke="#e09f3e" stroke-width="2.1" opacity="0.49"/>
<line x1="1871" y1="717" x2="1882" y2="726" stroke="#ca6702" stroke-width="1.7" opacity="0.47"/>
<circle cx="1033" cy="676" r="2.0" fill="#6a040f" opacity="0.63"/>
<circle cx="1909" cy="863" r="1.8" fill="#9b2226" opacity="0.42"/>
<circle cx="251" cy="634" r="1.9" fill="#9b2226" opacity="0.24"/>
<circle cx="1192" cy="1150" r="0.8" fill="#ca6702" opacity="0.21"/>
<circle cx="887" cy="126" r="2.6" fill="#6a040f" opacity="0.34"/>
<line x1="1545" y1="0" x2="1557" y2="-7" stroke="#9b2226" stroke-width="2.0" opacity="0.36"/>
<line x1="1637" y1="726" x2="1644" y2="715" stroke="#ca6702" stroke-width="1.1" opacity="0.28"/>
<line x1="1831" y1="347" x2="1829" y2="338" stroke="#6a040f" stroke-width="0.7" opacity="0.26"/>
<circle cx="1204" cy="749" r="2.5" fill="#ca6702" opacity="0.39"/>
<circle cx="298" cy="341" r="0.6" fill="#bb3e03" opacity="0.32"/>
<circle cx="1663" cy="941" r="1.2" fill="#bb3e03" opacity="0.59"/>
<circle cx="73" cy="1221" r="1.6" fill="#bb3e03" opacity="0.53"/>
<line x1="1263" y1="201" x2="1275" y2="195" stroke="#ae2012" stroke-width="1.1" opacity="0.27"/>
<circle cx="1250" cy="1219" r="1.9" fill="#e09f3e" opacity="0.34"/>
<line x1="1102" y1="980" x2="1092" y2="975" stroke="#e09f3e" stroke-width="1.5" opacity="0.53"/>
<line x1="1639" y1="1382" x2="1646" y2="1382" stroke="#9b2226" stroke-width="1.7" opacity="0.53"/>
<circle cx="1054" cy="1135" r="2.1" fill="#6a040f" opacity="0.25"/>
<line x1="132" y1="1237" x2="133" y2="1226" stroke="#ca6702" stroke-width="1.9" opacity="0.57"/>
<circle cx="715" cy="491" r="2.2" fill="#6a040f" opacity="0.27"/>
<line x1="400" y1="781" x2="399" y2="774" stroke="#bb3e03" stroke-width="1.4" opacity="0.57"/>
<line x1="646" y1="840" x2="635" y2="849" stroke="#ae2012" stroke-width="2.2" opacity="0.42"/>
<line x1="1808" y1="260" x2="1818" y2="266" stroke="#e09f3e" stroke-width="1.6" opacity="0.28"/>
<circle cx="554" cy="746" r="1.9" fill="#e09f3e" opacity="0.68"/>
<circle cx="1091" cy="518" r="2.7" fill="#bb3e03" opacity="0.57"/>
<circle cx="1549" cy="718" r="0.6" fill="#ae2012" opacity="0.54"/>
<circle cx="161" cy="190" r="1.8" fill="#e09f3e" opacity="0.67"/>
<circle cx="1104" cy="910" r="1.2" fill="#e09f3e" opacity="0.36"/>
<line x1="1248" y1="1340" x2="1241" y2="1341" stroke="#9b2226" stroke-width="0.6" opacity="0.25"/>
<line x1="1450" y1="579" x2="1451" y2="590" stroke="#e09f3e" stroke-width="0.7" opacity="0.49"/>
<line x1="1027" y1="587" x2="1023" y2="581" stroke="#e09f3e" stroke-width="1.5" opacity="0.48"/>
<line x1="1529" y1="781" x2="1539" y2="783" stroke="#bb3e03" stroke-width="1.6" opacity="0.57"/>
<line x1="1362" y1="263" x2="1369" y2="269" stroke="#e09f3e" stroke-width="1.8" opacity="0.39"/>
<line x1="1150" y1="431" x2="1144" y2="434" stroke="#ae2012" stroke-width="2.1" opacity="0.36"/>
<line x1="723" y1="1370" x2="715" y2="1358" stroke="#ca6702" stroke-width="0.7" opacity="0.48"/>
<circle cx="1730" cy="430" r="1.6" fill="#9b2226" opacity="0.42"/>
<line x1="1269" y1="1285" x2="1257" y2="1284" stroke="#6a040f" stroke-width="1.9" opacity="0.53"/>
<circle cx="1561" cy="33" r="1.7" fill="#ca6702" opacity="0.52"/>
<line x1="1206" y1="416" x2="1206" y2="422" stroke="#ca6702" stroke-width="0.8" opacity="0.24"/>
<circle cx="1585" cy="219" r="1.2" fill="#6a040f" opacity="0.48"/>
<line x1="287" y1="852" x2="282" y2="842" stroke="#bb3e03" stroke-width="2.2" opacity="0.39"/>
<circle cx="490" cy="291" r="2.8" fill="#ca6702" opacity="0.57"/>
<line x1="933" y1="1005" x2="933" y2="1003" stroke="#ca6702" stroke-width="2.0" opacity="0.27"/>
<line x1="607" y1="1071" x2="611" y2="1075" stroke="#9b2226" stroke-width="1.3" opacity="0.62"/>
<line x1="280" y1="92" x2="291" y2="80" stroke="#bb3e03" stroke-width="1.4" opacity="0.23"/>
<line x1="1704" y1="507" x2="1708" y2="495" stroke="#ae2012" stroke-width="1.5" opacity="0.29"/>
<line x1="1960" y1="340" x2="1959" y2="345" stroke="#e09f3e" stroke-width="1.0" opacity="0.52"/>
<circle cx="1943" cy="453" r="2.9" fill="#ae2012" opacity="0.62"/>
<circle cx="832" cy="1341" r="2.9" fill="#bb3e03" opacity="0.69"/>
<line x1="393" y1="981" x2="390" y2="970" stroke="#ca6702" stroke-width="1.4" opacity="0.26"/>
<line x1="522" y1="451" x2="529" y2="442" stroke="#ca6702" stroke-width="1.7" opacity="0.35"/>
<circle cx="678" cy="183" r="2.6" fill="#ae2012" opacity="0.55"/>
<circle cx="120" cy="691" r="0.7" fill="#ae2012" opacity="0.37"/>
<line x1="1040" y1="1152" x2="1031" y2="1143" stroke="#9b2226" stroke-width="1.4" opacity="0.53"/>
<line x1="932" y1="1293" x2="925" y2="1291" stroke="#ae2012" stroke-width="1.6" opacity="0.47"/>
<line x1="1940" y1="1244" x2="1949" y2="1241" stroke="#bb3e03" stroke-width="0.8" opacity="0.37"/>
<circle cx="66" cy="384" r="1.5" fill="#6a040f" opacity="0.45"/>
<circle cx="777" cy="1176" r="1.9" fill="#bb3e03" opacity="0.69"/>
<line x1="1311" y1="1192" x2="1322" y2="1194" stroke="#6a040f" stroke-width="1.0" opacity="0.65"/>
<line x1="1622" y1="192" x2="1625" y2="195" stroke="#bb3e03" stroke-width="1.0" opacity="0.58"/>
<line x1="111" y1="1247" x2="111" y2="1253" stroke="#bb3e03" stroke-width="2.2" opacity="0.28"/>
<line x1="1361" y1="85" x2="1349" y2="96" stroke="#bb3e03" stroke-width="1.8" opacity="0.20"/>
<circle cx="1912" cy="25" r="0.9" fill="#9b2226" opacity="0.61"/>
<circle cx="1301" cy="103" r="0.9" fill="#bb3e03" opacity="0.46"/>
<circle cx="270" cy="1155" r="0.7" fill="#e09f3e" opacity="0.67"/>
<circle cx="1585" cy="1033" r="0.8" fill="#ca6702" opacity="0.21"/>
<line x1="1026" y1="1131" x2="1018" y2="1135" stroke="#ae2012" stroke-width="1.8" opacity="0.56"/>
<circle cx="670" cy="319" r="1.8" fill="#ca6702" opacity="0.33"/>
<line x1="957" y1="779" x2="960" y2="781" stroke="#6a040f" stroke-width="1.3" opacity="0.39"/>
<line x1="549" y1="413" x2="557" y2="408" stroke="#6a040f" stroke-width="1.4" opacity="0.44"/>
<line x1="991" y1="727" x2="1002" y2="735" stroke="#bb3e03" stroke-width="1.6" opacity="0.65"/>
<circle cx="616" cy="1273" r="2.4" fill="#ca6702" opacity="0.56"/>
<line x1="949" y1="608" x2="939" y2="612" stroke="#ae2012" stroke-width="1.4" opacity="0.40"/>
<circle cx="976" cy="1005" r="1.5" fill="#e09f3e" opacity="0.44"/>
<line x1="376" y1="469" x2="379" y2="475" stroke="#6a040f" stroke-width="2.1" opacity="0.54"/>
<circle cx="371" cy="834" r="1.2" fill="#ca6702" opacity="0.66"/>
<line x1="1276" y1="802" x2="1278" y2="795" stroke="#bb3e03" stroke-width="1.0" opacity="0.55"/>
<circle cx="1626" cy="528" r="2.2" fill="#9b2226" opacity="0.51"/>
<circle cx="825" cy="244" r="1.4" fill="#6a040f" opacity="0.66"/>
<circle cx="1437" cy="439" r="2.0" fill="#ae2012" opacity="0.57"/>
<circle cx="1545" cy="381" r="2.7" fill="#ca6702" opacity="0.41"/>
<line x1="452" y1="289" x2="446" y2="285" stroke="#bb3e03" stroke-width="0.6" opacity="0.35"/>
<line x1="273" y1="58" x2="264" y2="53" stroke="#bb3e03" stroke-width="0.9" opacity="0.43"/>
<circle cx="373" cy="722" r="2.9" fill="#ae2012" opacity="0.32"/>
<line x1="1165" y1="1321" x2="1165" y2="1315" stroke="#e09f3e" stroke-width="1.6" opacity="0.25"/>
<circle cx="1387" cy="25" r="2.7" fill="#ca6702" opacity="0.22"/>
<line x1="39" y1="243" x2="49" y2="234" stroke="#9b2226" stroke-width="1.0" opacity="0.34"/>
<line x1="1353" y1="1395" x2="1347" y2="1405" stroke="#e09f3e" stroke-width="0.6" opacity="0.28"/>
<circle cx="1157" cy="46" r="2.1" fill="#6a040f" opacity="0.63"/>
<line x1="313" y1="638" x2="317" y2="627" stroke="#bb3e03" stroke-width="2.1" opacity="0.40"/>
<line x1="1916" y1="922" x2="1919" y2="917" stroke="#ae2012" stroke-width="0.6" opacity="0.48"/>
<circle cx="1695" cy="729" r="1.3" fill="#9b2226" opacity="0.35"/>
<line x1="1780" y1="1031" x2="1783" y2="1020" stroke="#ae2012" stroke-width="1.3" opacity="0.57"/>
<line x1="215" y1="854" x2="204" y2="858" stroke="#ca6702" stroke-width="0.7" opacity="0.23"/>
<circle cx="1960" cy="549" r="3.0" fill="#6a040f" opacity="0.40"/>
<line x1="184" y1="639" x2="192" y2="633" stroke="#6a040f" stroke-width="0.8" opacity="0.57"/>
<line x1="909" y1="787" x2="903" y2="777" stroke="#ca6702" stroke-width="1.6" opacity="0.31"/>
<circle cx="174" cy="329" r="2.6" fill="#9b2226" opacity="0.29"/>
<circle cx="1988" cy="245" r="2.5" fill="#9b2226" opacity="0.63"/>
<circle cx="389" cy="266" r="1.0" fill="#e09f3e" opacity="0.37"/>
<line x1="1426" y1="134" x2="1436" y2="135" stroke="#ca6702" stroke-width="0.7" opacity="0.62"/>
<line x1="669" y1="101" x2="672" y2="111" stroke="#bb3e03" stroke-width="1.9" opacity="0.25"/>
<circle cx="251" cy="988" r="1.6" fill="#6a040f" opacity="0.43"/>
<circle cx="1824" cy="362" r="2.0" fill="#ae2012" opacity="0.56"/>
<line x1="722" y1="580" x2="712" y2="579" stroke="#e09f3e" stroke-width="1.3" opacity="0.43"/>
<circle cx="1830" cy="927" r="1.5" fill="#ae2012" opacity="0.48"/>
<line x1="390" y1="772" x2="397" y2="777" stroke="#ae2012" stroke-width="2.2" opacity="0.44"/>
<line x1="221" y1="1240" x2="223" y2="1248" stroke="#9b2226" stroke-width="1.0" opacity="0.22"/>
<circle cx="157" cy="426" r="1.8" fill="#ae2012" opacity="0.47"/>
<circle cx="1870" cy="1168" r="2.7" fill="#6a040f" opacity="0.65"/>
<circle cx="343" cy="1082" r="2.3" fill="#ca6702" opacity="0.44"/>
<line x1="903" y1="822" x2="909" y2="819" stroke="#6a040f" stroke-width="0.7" opacity="0.47"/>
<line x1="1380" y1="216" x2="1369" y2="226" stroke="#ae2012" stroke-width="1.0" opacity="0.60"/>
<line x1="169" y1="1000" x2="178" y2="1008" stroke="#6a040f" stroke-width="0.7" opacity="0.24"/>
</svg>