<svg xmlns="http://www.w3.org/2000/svg" width="1800" height="1800" viewBox="0 0 1800 1800">
<rect width="1800" height="1800" fill="#10131f"/>
<rect x="5" y="311" width="871" height="691" fill="#293241" opacity="0.37" transform="rotate(12 441 657)"/>
<rect x="694" y="146" width="1173" height="458" fill="#1f2a48" opacity="0.60" transform="rotate(-1 1281 375)"/>
<rect x="181" y="20" width="567" height="806" fill="#1f2a48" opacity="0.44" transform="rotate(-15 465 423)"/>
<rect x="293" y="1045" width="1167" height="847" fill="#293241" opacity="0.36" transform="rotate(-5 876 1468)"/>
<rect x="-423" y="223" width="1132" height="748" fill="#3d5a80" opacity="0.31" transform="rotate(1 143 597)"/>
<rect x="1312" y="165" width="431" height="789" fill="#1f2a48" opacity="0.50" transform="rotate(26 1527 559)"/>
<rect x="221" y="917" width="1235" height="387" fill="#98c1d9" opacity="0.32" transform="rotate(-17 838 1110)"/>
<path d="M 1191 1011 Q 1483 745 1818 616" stroke="#1f2a48" stroke-width="31" stroke-linecap="round" fill="none" opacity="0.53"/>
<path d="M 120 584 Q -317 532 -537 763" stroke="#5c6f9c" stroke-width="23" stroke-linecap="round" fill="none" opacity="0.80"/>
<path d="M 136 25 Q 248 -88 225 -156" stroke="#e0fbfc" stroke-width="29" stroke-linecap="round" fill="none" opacity="0.77"/>
<path d="M 1172 1729 Q 838 1882 562 2146" stroke="#3d5a80" stroke-width="42" stroke-linecap="round" fill="none" opacity="0.80"/>
<path d="M 486 1219 Q 411 1058 548 881" stroke="#5c6f9c" stroke-width="8" stroke-linecap="round" fill="none" opacity="0.77"/>
<path d="M 984 1517 Q 868 1708 1006 1656" stroke="#1f2a48" stroke-width="32" stroke-linecap="round" fill="none" opacity="0.32"/>
<path d="M 868 1313 Q 988 1164 1043 1220" stroke="#3d5a80" stroke-width="21" stroke-linecap="round" fill="none" opacity="0.32"/>
<path d="M 940 1505 Q 1290 1625 1561 1606" stroke="#1f2a48" stroke-width="40" stroke-linecap="round" fill="none" opacity="0.51"/>
<path d="M 827 1450 Q 792 1307 701 1419" stroke="#293241" stroke-width="37" stroke-linecap="round" fill="none" opacity="0.77"/>
<path d="M 1522 981 Q 1632 1133 1748 1354" stroke="#98c1d9" stroke-width="28" stroke-linecap="round" fill="none" opacity="0.75"/>
<circle cx="1386" cy="1338" r="108" fill="#1f2a48" opacity="0.54"/>
<circle cx="864" cy="585" r="93" fill="#3d5a80" opacity="0.38"/>
<circle cx="1192" cy="72" r="68" fill="#293241" opacity="0.71"/>
<line x1="1127" y1="447" x2="1136" y2="436" stroke="#1f2a48" stroke-width="1.6" opacity="0.24"/>
<circle cx="665" cy="1326" r="3.0" fill="#1f2a48" opacity="0.38"/>
<circle cx="1543" cy="1282" r="2.1" fill="#5c6f9c" opacity="0.31"/>
<line x1="567" y1="28" x2="574" y2="28" stroke="#293241" stroke-width="0.8" opacity="0.23"/>
<line x1="758" y1="1734" x2="768" y2="1741" stroke="#5c6f9c" stroke-width="0.9" opacity="0.49"/>
<line x1="143" y1="1443" x2="150" y2="1438" stroke="#293241" stroke-width="1.4" opacity="0.52"/>
<circle cx="375" cy="245" r="2.6" fill="#1f2a48" opacity="0.35"/>
<line x1="246" y1="289" x2="236" y2="279" stroke="#1f2a48" stroke-width="0.9" opacity="0.30"/>
<line x1="627" y1="114" x2="631" y2="112" stroke="#1f2a48" stroke-width="0.9" opacity="0.50"/>
<circle cx="526" cy="644" r="2.3" fill="#3d5a80" opacity="0.50"/>
<circle cx="1464" cy="494" r="0.7" fill="#5c6f9c" opacity="0.28"/>
<line x1="507" y1="82" x2="497" y2="81" stroke="#5c6f9c" stroke-width="0.9" opacity="0.20"/>
<circle cx="1651" cy="1779" r="1.6" fill="#5c6f9c" opacity="0.67"/>
<line x1="1530" y1="58" x2="1535" y2="65" stroke="#1f2a48" stroke-width="1.3" opacity="0.27"/>
<circle cx="1129" cy="1100" r="0.6" fill="#293241" opacity="0.53"/>
<circle cx="1270" cy="91" r="2.2" fill="#293241" opacity="0.62"/>
<line x1="221" y1="205" x2="225" y2="214" stroke="#e0fbfc" stroke-width="0.6" opacity="0.29"/>
<line x1="434" y1="1188" x2="425" y2="1183" stroke="#98c1d9" stroke-width="1.5" opacity="0.57"/>
<circle cx="1190" cy="1420" r="2.5" fill="#1f2a48" opacity="0.52"/>
<circle cx="310" cy="657" r="2.3" fill="#1f2a48" opacity="0.70"/>
<circle cx="1064" cy="1190" r="0.8" fill="#293241" opacity="0.54"/>
<circle cx="1111" cy="469" r="2.7" fill="#e0fbfc" opacity="0.32"/>
<circle cx="1506" cy="1365" r="1.0" fill="#5c6f9c" opacity="0.67"/>
<line x1="279" y1="1382" x2="269" y2="1386" stroke="#293241" stroke-width="1.3" opacity="0.27"/>
<line x1="466" y1="1665" x2="470" y2="1668" stroke="#3d5a80" stroke-width="0.6" opacity="0.61"/>
<circle cx="556" cy="235" r="0.7" fill="#3d5a80" opacity="0.29"/>
<circle cx="995" cy="92" r="2.0" fill="#e0fbfc" opacity="0.21"/>
<circle cx="804" cy="1328" r="1.8" fill="#e0fbfc" opacity="0.33"/>
<circle cx="1152" cy="944" r="2.7" fill="#1f2a48" opacity="0.62"/>
<line x1="334" y1="1493" x2="332" y2="1489" stroke="#98c1d9" stroke-width="1.8" opacity="0.62"/>
<line x1="1028" y1="1084" x2="1026" y2="1078" stroke="#e0fbfc" stroke-width="1.5" opacity="0.51"/>
<line x1="1126" y1="935" x2="1121" y2="939" stroke="#293241" stroke-width="1.0" opacity="0.56"/>
<circle cx="1414" cy="805" r="2.2" fill="#e0fbfc" opacity="0.22"/>
<circle cx="892" cy="1100" r="0.9" fill="#293241" opacity="0.33"/>
<circle cx="1504" cy="1660" r="0.7" fill="#5c6f9c" opacity="0.49"/>
<line x1="1037" y1="275" x2="1027" y2="263" stroke="#e0fbfc" stroke-width="1.8" opacity="0.35"/>
<line x1="939" y1="1661" x2="928" y2="1651" stroke="#3d5a80" stroke-width="1.2" opacity="0.57"/>
<circle cx="67" cy="17" r="1.9" fill="#293241" opacity="0.52"/>
<line x1="905" y1="1248" x2="895" y2="1248" stroke="#293241" stroke-width="0.8" opacity="0.34"/>
<circle cx="605" cy="955" r="1.8" fill="#98c1d9" opacity="0.30"/>
<line x1="1291" y1="1473" x2="1281" y2="1474" stroke="#293241" stroke-width="1.5" opacity="0.60"/>
<circle cx="206" cy="1783" r="1.3" fill="#98c1d9" opacity="0.27"/>
<circle cx="306" cy="502" r="1.5" fill="#98c1d9" opacity="0.39"/>
<circle cx="479" cy="468" r="2.7" fill="#293241" opacity="0.48"/>
<circle cx="1432" cy="529" r="2.5" fill="#1f2a48" opacity="0.68"/>
<circle cx="1518" cy="1267" r="2.7" fill="#98c1d9" opacity="0.30"/>
<circle cx="1382" cy="881" r="0.7" fill="#5c6f9c" opacity="0.26"/>
<circle cx="1798" cy="1144" r="2.8" fill="#5c6f9c" opacity="0.46"/>
<line x1="977" y1="1625" x2="981" y2="1636" stroke="#3d5a80" stroke-width="1.7" opacity="0.36"/>
<line x1="357" y1="202" x2="353" y2="208" stroke="#1f2a48" stroke-width="2.1" opacity="0.58"/>
<line x1="897" y1="901" x2="889" y2="898" stroke="#3d5a80" stroke-width="1.8" opacity="0.27"/>
<circle cx="143" cy="65" r="0.8" fill="#e0fbfc" opacity="0.55"/>
<line x1="844" y1="152" x2="851" y2="142" stroke="#293241" stroke-width="0.6" opacity="0.30"/>
<circle cx="950" cy="138" r="2.1" fill="#5c6f9c" opacity="0.46"/>
<line x1="654" y1="1258" x2="645" y2="1257" stroke="#293241" stroke-width="0.9" opacity="0.65"/>
<circle cx="8" cy="1212" r="2.4" fill="#98c1d9" opacity="0.25"/>
<line x1="1655" y1="78" x2="1655" y2="86" stroke="#3d5a80" stroke-width="2.2" opacity="0.49"/>
<line x1="1532" y1="565" x2="1522" y2="570" stroke="#5c6f9c" stroke-width="1.0" opacity="0.57"/>
<line x1="387" y1="1209" x2="398" y2="1211" stroke="#e0fbfc" stroke-width="0.8" opacity="0.41"/>
<line x1="911" y1="1229" x2="911" y2="1235" stroke="#1f2a48" stroke-width="1.0" opacity="0.55"/>
<circle cx="1269" cy="333" r="2.7" fill="#e0fbfc" opacity="0.54"/>
<line x1="1063" y1="1356" x2="1072" y2="1355" stroke="#3d5a80" stroke-width="1.2" opacity="0.46"/>
<line x1="803" y1="271" x2="796" y2="281" stroke="#98c1d9" stroke-width="2.0" opacity="0.55"/>
<line x1="1502" y1="72" x2="1506" y2="79" stroke="#e0fbfc" stroke-width="1.1" opacity="0.35"/>
<circle cx="553" cy="1658" r="0.9" fill="#293241" opacity="0.68"/>
<line x1="1219" y1="1781" x2="1216" y2="1770" stroke="#98c1d9" stroke-width="1.0" opacity="0.45"/>
<line x1="1238" y1="1597" x2="1235" y2="1586" stroke="#98c1d9" stroke-width="1.0" opacity="0.34"/>
<circle cx="804" cy="414" r="0.6" fill="#e0fbfc" opacity="0.63"/>
<line x1="1047" y1="1259" x2="1037" y2="1269" stroke="#293241" stroke-width="0.7" opacity="0.43"/>
<circle cx="609" cy="1036" r="1.3" fill="#1f2a48" opacity="0.57"/>
<circle cx="592" cy="729" r="2.2" fill="#98c1d9" opacity="0.31"/>
<line x1="1557" y1="1353" x2="1566" y2="1346" stroke="#e0fbfc" stroke-width="1.3" opacity="0.61"/>
<circle cx="1786" cy="1257" r="2.4" fill="#e0fbfc" opacity="0.28"/>
<line x1="1053" y1="26" x2="1065" y2="25" stroke="#1f2a48" stroke-width="0.9" opacity="0.29"/>
<line x1="226" y1="1587" x2="233" y2="1598" stroke="#293241" stroke-width="1.1" opacity="0.43"/>
<circle cx="724" cy="1383" r="2.5" fill="#3d5a80" opacity="0.62"/>
<circle cx="897" cy="968" r="0.7" fill="#3d5a80" opacity="0.39"/>
<line x1="1168" y1="702" x2="1159" y2="697" stroke="#98c1d9" stroke-width="1.3" opacity="0.47"/>
<circle cx="1428" cy="590" r="2.7" fill="#5c6f9c" opacity="0.37"/>
<line x1="1598" y1="1057" x2="1610" y2="1050" stroke="#1f2a48" stroke-width="0.7" opacity="0.41"/>
<line x1="1554" y1="937" x2="1562" y2="926" stroke="#e0fbfc" stroke-width="2.2" opacity="0.21"/>
<circle cx="926" cy="296" r="1.1" fill="#5c6f9c" opacity="0.20"/>
<line x1="1114" y1="583" x2="1126" y2="574" stroke="#1f2a48" stroke-width="1.9" opacity="0.38"/>
<circle cx="22" cy="910" r="2.7" fill="#98c1d9" opacity="0.27"/>
<line x1="416" y1="1534" x2="405" y2="1543" stroke="#3d5a80" stroke-width="1.1" opacity="0.35"/>
<circle cx="1606" cy="687" r="2.0" fill="#1f2a48" opacity="0.25"/>
<line x1="1762" y1="513" x2="1757" y2="506" stroke="#e0fbfc" stroke-width="1.3" opacity="0.20"/>
<circle cx="1319" cy="245" r="0.9" fill="#5c6f9c" opacity="0.44"/>
<line x1="8" y1="702" x2="13" y2="702" stroke="#5c6f9c" stroke-width="2.0" opacity="0.20"/>
<line x1="1604" y1="1460" x2="1610" y2="1458" stroke="#98c1d9" stroke-width="1.0" opacity="0.55"/>
<circle cx="462" cy="131" r="0.9" fill="#1f2a48" opacity="0.55"/>
<line x1="591" y1="9" x2="599" y2="17" stroke="#1f2a48" stroke-width="1.5" opacity="0.21"/>
<line x1="786" y1="1159" x2="792" y2="1162" stroke="#293241" stroke-width="1.8" opacity="0.57"/>
<circle cx="477" cy="1032" r="1.3" fill="#1f2a48" opacity="0.51"/>
<circle cx="135" cy="1510" r="2.5" fill="#98c1d9" opacity="0.66"/>
<line x1="1589" y1="1389" x2="1577" y2="1382" stroke="#293241" stroke-width="1.8" opacity="0.22"/>
<circle cx="1586" cy="1274" r="2.5" fill="#5c6f9c" opacity="0.51"/>
<line x1="1335" y1="831" x2="1344" y2="830" stroke="#3d5a80" stroke-width="1.9" opacity="0.55"/>
<circle cx="1167" cy="405" r="1.6" fill="#e0fbfc" opacity="0.34"/>
<circle cx="708" cy="337" r="1.3" fill="#5c6f9c" opacity="0.61"/>
<line x1="1501" y1="284" x2="1490" y2="295" stroke="#e0fbfc" stroke-width="1.0" opacity="0.55"/>
<line x1="891" y1="1313" x2="887" y2="1323" stroke="#5c6f9c" stroke-width="1.7" opacity="0.25"/>
<circle cx="1441" cy="1556" r="1.5" fill="#1f2a48" opacity="0.48"/>
<line x1="425" y1="1219" x2="417" y2="1213" stroke="#293241" stroke-width="1.6" opacity="0.58"/>
<circle cx="1756" cy="602" r="1.2" fill="#3d5a80" opacity="0.61"/>
<line x1="1163" y1="48" x2="1152" y2="50" stroke="#293241" stroke-width="2.0" opacity="0.62"/>
<circle cx="1158" cy="672" r="0.7" fill="#293241" opacity="0.54"/>
<circle cx="1625" cy="1692" r="2.1" fill="#5c6f9c" opacity="0.66"/>
<line x1="349" y1="809" x2="347" y2="799" stroke="#1f2a48" stroke-width="2.0" opacity="0.62"/>
<line x1="1568" y1="923" x2="1573" y2="930" stroke="#5c6f9c" stroke-width="1.0" opacity="0.36"/>
<line x1="1631" y1="811" x2="1639" y2="817" stroke="#1f2a48" stroke-width="0.9" opacity="0.56"/>
<circle cx="1289" cy="1261" r="2.5" fill="#293241" opacity="0.24"/>
<line x1="384" y1="1226" x2="391" y2="1226" stroke="#293241" stroke-width="2.2" opacity="0.27"/>
<line x1="219" y1="1277" x2="215" y2="1269" stroke="#3d5a80" stroke-width="1.3" opacity="0.41"/>
<circle cx="238" cy="823" r="0.7" fill="#3d5a80" opacity="0.59"/>
<circle cx="907" cy="1704" r="3.0" fill="#1f2a48" opacity="0.26"/>
<circle cx="1073" cy="1732" r="0.8" fill="#1f2a48" opacity="0.47"/>
<circle cx="1639" cy="997" r="0.7" fill="#1f2a48" opacity="0.47"/>
<line x1="1375" y1="562" x2="1367" y2="566" stroke="#e0fbfc" stroke-width="1.3" opacity="0.31"/>
<circle cx="1708" cy="361" r="1.5" fill="#293241" opacity="0.56"/>
<line x1="1168" y1="130" x2="1174" y2="141" stroke="#3d5a80" stroke-width="1.7" opacity="0.35"/>
<circle cx="221" cy="158" r="0.8" fill="#e0fbfc" opacity="0.49"/>
<line x1="228" y1="617" x2="224" y2="615" stroke="#5c6f9c" stroke-width="1.5" opacity="0.53"/>
<line x1="843" y1="1109" x2="835" y2="1110" stroke="#98c1d9" stroke-width="1.4" opacity="0.63"/>
<circle cx="332" cy="1564" r="1.2" fill="#98c1d9" opacity="0.58"/>
<line x1="1591" y1="1184" x2="1591" y2="1173" stroke="#5c6f9c" stroke-width="1.4" opacity="0.61"/>
<line x1="1434" y1="841" x2="1439" y2="836" stroke="#e0fbfc" stroke-width="1.2" opacity="0.24"/>
<line x1="1066" y1="1398" x2="1059" y2="1390" stroke="#e0fbfc" stroke-width="1.9" opacity="0.63"/>
<circle cx="1529" cy="1647" r="2.4" fill="#3d5a80" opacity="0.31"/>
<circle cx="131" cy="306" r="2.6" fill="#e0fbfc" opacity="0.64"/>
<line x1="440" y1="69" x2="443" y2="69" stroke="#98c1d9" stroke-width="1.4" opacity="0.42"/>
<circle cx="263" cy="260" r="0.8" fill="#98c1d9" opacity="0.33"/>
<circle cx="1160" cy="1514" r="1.0" fill="#293241" opacity="0.55"/>
<line x1="1590" y1="87" x2="1580" y2="88" stroke="#e0fbfc" stroke-width="1.8" opacity="0.50"/>
<line x1="538" y1="1083" x2="540" y2="1089" stroke="#5c6f9c" stroke-width="1.7" opacity="0.58"/>
<circle cx="235" cy="554" r="1.5" fill="#293241" opacity="0.66"/>
<circle cx="1092" cy="1068" r="1.2" fill="#98c1d9" opacity="0.58"/>
<circle cx="811" cy="98" r="1.9" fill="#3d5a80" opacity="0.58"/>
<line x1="1026" y1="1673" x2="1037" y2="1680" stroke="#98c1d9" stroke-width="1.7" opacity="0.57"/>
<circle cx="927" cy="843" r="2.2" fill="#98c1d9" opacity="0.31"/>
<circle cx="344" cy="1085" r="1.1" fill="#1f2a48" opacity="0.50"/>
<circle cx="486" cy="1458" r="2.8" fill="#e0fbfc" opacity="0.22"/>
<line x1="1398" y1="1339" x2="1394" y2="1328" stroke="#1f2a48" stroke-width="1.4" opacity="0.46"/>
<circle cx="945" cy="1078" r="1.2" fill="#1f2a48" opacity="0.47"/>
<circle cx="1348" cy="486" r="2.4" fill="#3d5a80" opacity="0.41"/>
<line x1="793" y1="798" x2="787" y2="806" stroke="#293241" stroke-width="1.9" opacity="0.41"/>
<circle cx="1184" cy="1245" r="1.7" fill="#1f2a48" opacity="0.26"/>
<circle cx="1175" cy="101" r="2.7" fill="#3d5a80" opacity="0.49"/>
<line x1="1336" y1="1622" x2="1331" y2="1620" stroke="#5c6f9c" stroke-width="0.9" opacity="0.38"/>
<line x1="650" y1="1715" x2="640" y2="1723" stroke="#e0fbfc" stroke-width="1.4" opacity="0.61"/>
<circle cx="1167" cy="1764" r="2.5" fill="#5c6f9c" opacity="0.21"/>
<circle cx="308" cy="1043" r="1.7" fill="#293241" opacity="0.50"/>
<circle cx="1693" cy="505" r="2.4" fill="#1f2a48" opacity="0.22"/>
<line x1="458" y1="556" x2="454" y2="558" stroke="#1f2a48" stroke-width="1.0" opacity="0.44"/>
<line x1="1719" y1="1711" x2="1719" y2="1712" stroke="#5c6f9c" stroke-width="0.7" opacity="0.45"/>
<circle cx="696" cy="977" r="1.9" fill="#5c6f9c" opacity="0.58"/>
<line x1="210" y1="758" x2="220" y2="768" stroke="#98c1d9" stroke-width="1.0" opacity="0.30"/>
<line x1="237" y1="122" x2="239" y2="133" stroke="#1f2a48" stroke-width="1.6" opacity="0.32"/>
<circle cx="1361" cy="219" r="2.3" fill="#293241" opacity="0.28"/>
<line x1="392" y1="232" x2="399" y2="229" stroke="#1f2a48" stroke-width="1.9" opacity="0.22"/>
<line x1="1631" y1="170" x2="1621" y2="181" stroke="#5c6f9c" stroke-width="1.9" opacity="0.55"/>
<circle cx="1231" cy="548" r="3.0" fill="#1f2a48" opacity="0.65"/>
<line x1="92" y1="71" x2="97" y2="76" stroke="#293241" stroke-width="2.0" opacity="0.22"/>
<circle cx="632" cy="584" r="2.8" fill="#98c1d9" opacity="0.60"/>
<line x1="237" y1="1710" x2="236" y2="1720" stroke="#98c1d9" stroke-width="1.8" opacity="0.60"/>
<line x1="23" y1="1362" x2="29" y2="1363" stroke="#e0fbfc" stroke-width="1.3" opacity="0.48"/>
<circle cx="950" cy="947" r="2.3" fill="#1f2a48" opacity="0.62"/>
<circle cx="1306" cy="1174" r="2.3" fill="#5c6f9c" opacity="0.35"/>
<circle cx="1492" cy="1315" r="2.3" fill="#1f2a48" opacity="0.55"/>
<circle cx="777" cy="1448" r="1.7" fill="#3d5a80" opacity="0.53"/>
<circle cx="917" cy="454" r="1.0" fill="#3d5a80" opacity="0.25"/>
<circle cx="1359" cy="1386" r="1.3" fill="#5c6f9c" opacity="0.21"/>
<circle cx="1552" cy="38" r="2.5" fill="#98c1d9" opacity="0.45"/>
<circle cx="466" cy="101" r="1.4" fill="#5c6f9c" opacity="0.43"/>
<circle cx="30" cy="77" r="1.3" fill="#98c1d9" opacity="0.46"/>
<circle cx="969" cy="1191" r="1.7" fill="#5c6f9c" opacity="0.52"/>
<line x1="826" y1="1535" x2="815" y2="1542" stroke="#e0fbfc" stroke-width="1.9" opacity="0.20"/>
<line x1="47" y1="416" x2="42" y2="406" stroke="#1f2a48" stroke-width="1.8" opacity="0.30"/>
<line x1="40" y1="1455" x2="49" y2="1461" stroke="#98c1d9" stroke-width="1.6" opacity="0.33"/>
<circle cx="282" cy="1434" r="1.8" fill="#293241" opacity="0.42"/>
<circle cx="1076" cy="534" r="1.3" fill="#e0fbfc" opacity="0.68"/>
<line x1="389" y1="131" x2="397" y2="126" stroke="#3d5a80" stroke-width="1.5" opacity="0.50"/>
<line x1="127" y1="745" x2="116" y2="743" stroke="#98c1d9" stroke-width="2.2" opacity="0.49"/>
<line x1="504" y1="777" x2="498" y2="781" stroke="#3d5a80" stroke-width="1.0" opacity="0.28"/>
<line x1="48" y1="361" x2="60" y2="365" stroke="#1f2a48" stroke-width="1.8" opacity="0.64"/>
<circle cx="1648" cy="497" r="2.5" fill="#3d5a80" opacity="0.56"/>
<line x1="1693" y1="1723" x2="1684" y2="1729" stroke="#98c1d9" stroke-width="1.7" opacity="0.52"/>
<circle cx="189" cy="794" r="2.2" fill="#98c1d9" opacity="0.60"/>
<circle cx="1003" cy="874" r="0.9" fill="#1f2a48" opacity="0.60"/>
<line x1="328" y1="335" x2="324" y2="339" stroke="#98c1d9" stroke-width="1.6" opacity="0.21"/>
<circle cx="454" cy="606" r="2.7" fill="#1f2a48" opacity="0.43"/>
<line x1="1305" y1="209" x2="1316" y2="211" stroke="#e0fbfc" stroke-width="0.9" opacity="0.54"/>
<line x1="741" y1="1758" x2="746" y2="1758" stroke="#1f2a48" stroke-width="1.9" opacity="0.24"/>
<circle cx="1438" cy="605" r="3.0" fill="#1f2a48" opacity="0.24"/>
<line x1="571" y1="756" x2="575" y2="746" stroke="#1f2a48" stroke-width="1.9" opacity="0.60"/>
<line x1="1055" y1="1686" x2="1047" y2="1680" stroke="#293241" stroke-width="0.7" opacity="0.21"/>
<circle cx="1101" cy="1746" r="2.3" fill="#3d5a80" opacity="0.63"/>
<line x1="1465" y1="273" x2="1461" y2="269" stroke="#5c6f9c" stroke-width="0.8" opacity="0.27"/>
<circle cx="1251" cy="1534" r="0.9" fill="#1f2a48" opacity="0.29"/>
<line x1="1429" y1="1108" x2="1431" y2="1111" stroke="#e0fbfc" stroke-width="1.3" opacity="0.28"/>
<circle cx="1587" cy="1046" r="1.8" fill="#98c1d9" opacity="0.40"/>
<line x1="270" y1="1419" x2="266" y2="1426" stroke="#293241" stroke-width="1.5" opacity="0.35"/>
<circle cx="1545" cy="935" r="0.7" fill="#e0fbfc" opacity="0.40"/>
<circle cx="1783" cy="964" r="2.8" fill="#5c6f9c" opacity="0.67"/>
<line x1="1613" y1="954" x2="1618" y2="962" stroke="#5c6f9c" stroke-width="2.0" opacity="0.20"/>
<line x1="825" y1="1079" x2="818" y2="1076" stroke="#e0fbfc" stroke-width="1.5" opacity="0.30"/>
<line x1="891" y1="1206" x2="882" y2="1208" stroke="#98c1d9" stroke-width="1.9" opacity="0.54"/>
<circle cx="1437" cy="1348" r="1.8" fill="#98c1d9" opacity="0.62"/>
<circle cx="1773" cy="7" r="1.1" fill="#293241" opacity="0.40"/>
<line x1="1047" y1="796" x2="1037" y2="786" stroke="#3d5a80" stroke-width="1.6" opacity="0.41"/>
<circle cx="874" cy="409" r="2.8" fill="#293241" opacity="0.39"/>
<line x1="97" y1="82" x2="100" y2="78" stroke="#5c6f9c" stroke-width="1.8" opacity="0.27"/>
<line x1="1219" y1="1405" x2="1217" y2="1414" stroke="#5c6f9c" stroke-width="0.6" opacity="0.53"/>
<circle cx="592" cy="1688" r="1.7" fill="#e0fbfc" opacity="0.49"/>
<circle cx="1067" cy="956" r="1.0" fill="#e0fbfc" opacity="0.69"/>
<circle cx="263" cy="1651" r="1.0" fill="#98c1d9" opacity="0.62"/>
<circle cx="96" cy="726" r="2.5" fill="#1f2a48" opacity="0.29"/>
<circle cx="982" cy="89" r="2.0" fill="#98c1d9" opacity="0.24"/>
<circle cx="1581" cy="42" r="3.0" fill="#293241" opacity="0.69"/>
<line x1="1717" y1="1525" x2="1728" y2="1523" stroke="#1f2a48" stroke-width="1.6" opacity="0.61"/>
<line x1="1602" y1="1383" x2="1593" y2="1394" stroke="#e0fbfc" stroke-width="1.7" opacity="0.58"/>
<circle cx="634" cy="715" r="2.1" fill="#e0fbfc" opacity="0.63"/>
<circle cx="148" cy="1500" r="2.6" fill="#5c6f9c" opacity="0.59"/>
<line x1="588" y1="1196" x2="597" y2="1192" stroke="#5c6f9c" stroke-width="1.2" opacity="0.27"/>
<line x1="315" y1="164" x2="314" y2="155" stroke="#3d5a80" stroke-width="1.6" opacity="0.21"/>
<circle cx="573" cy="23" r="1.0" fill="#293241" opacity="0.36"/>
<line x1="1560" y1="1040" x2="1563" y2="1050" stroke="#3d5a80" stroke-width="0.7" opacity="0.52"/>
<line x1="449" y1="824" x2="447" y2="828" stroke="#1f2a48" stroke-width="0.7" opacity="0.41"/>
<circle cx="1618" cy="244" r="2.3" fill="#1f2a48" opacity="0.54"/>
<line x1="144" y1="353" x2="144" y2="350" stroke="#293241" stroke-width="1.3" opacity="0.44"/>
<circle cx="111" cy="1389" r="1.5" fill="#1f2a48" opacity="0.55"/>
<circle cx="1194" cy="193" r="1.7" fill="#293241" opacity="0.33"/>
<line x1="766" y1="171" x2="769" y2="177" stroke="#293241" stroke-width="2.1" opacity="0.24"/>
<circle cx="1168" cy="910" r="0.7" fill="#293241" opacity="0.54"/>
<line x1="908" y1="1531" x2="906" y2="1542" stroke="#3d5a80" stroke-width="0.9" opacity="0.49"/>
<circle cx="952" cy="1036" r="1.3" fill="#5c6f9c" opacity="0.54"/>
<line x1="1664" y1="1706" x2="1656" y2="1711" stroke="#5c6f9c" stroke-width="1.4" opacity="0.39"/>
<circle cx="359" cy="1438" r="1.8" fill="#5c6f9c" opacity="0.64"/>
<line x1="1281" y1="1185" x2="1290" y2="1185" stroke="#3d5a80" stroke-width="1.3" opacity="0.42"/>
<circle cx="1138" cy="568" r="1.7" fill="#293241" opacity="0.25"/>
<line x1="1367" y1="900" x2="1365" y2="905" stroke="#1f2a48" stroke-width="1.3" opacity="0.65"/>
<circle cx="1261" cy="1273" r="1.7" fill="#98c1d9" opacity="0.26"/>
<circle cx="1296" cy="279" r="1.0" fill="#293241" opacity="0.21"/>
<line x1="1164" y1="92" x2="1165" y2="102" stroke="#1f2a48" stroke-width="1.0" opacity="0.29"/>
<line x1="1369" y1="587" x2="1359" y2="594" stroke="#98c1d9" stroke-width="1.9" opacity="0.37"/>
<line x1="779" y1="260" x2="771" y2="257" stroke="#3d5a80" stroke-width="1.5" opacity="0.54"/>
<circle cx="1106" cy="1771" r="0.7" fill="#293241" opacity="0.46"/>
<circle cx="586" cy="375" r="2.2" fill="#1f2a48" opacity="0.40"/>
<line x1="1457" y1="1385" x2="1448" y2="1376" stroke="#1f2a48" stroke-width="1.7" opacity="0.61"/>
<circle cx="1243" cy="1301" r="1.0" fill="#293241" opacity="0.33"/>
<circle cx="1452" cy="25" r="1.1" fill="#e0fbfc" opacity="0.35"/>
<circle cx="393" cy="419" r="1.7" fill="#e0fbfc" opacity="0.24"/>
<line x1="658" y1="1466" x2="655" y2="1469" stroke="#3d5a80" stroke-width="1.7" opacity="0.36"/>
<circle cx="587" cy="537" r="1.0" fill="#293241" opacity="0.34"/>
<line x1="557" y1="721" x2="565" y2="714" stroke="#5c6f9c" stroke-width="1.9" opacity="0.46"/>
<circle cx="1599" cy="479" r="1.0" fill="#5c6f9c" opacity="0.39"/>
<line x1="1768" y1="1706" x2="1775" y2="1699" stroke="#5c6f9c" stroke-width="2.1" opacity="0.56"/>
<circle cx="277" cy="320" r="0.9" fill="#5c6f9c" opacity="0.23"/>
<line x1="1708" y1="1158" x2="1698" y2="1169" stroke="#1f2a48" stroke-width="1.4" opacity="0.21"/>
<circle cx="1266" cy="1029" r="2.2" fill="#3d5a80" opacity="0.52"/>
<circle cx="1438" cy="658" r="2.0" fill="#293241" opacity="0.37"/>
<line x1="1206" y1="888" x2="1199" y2="891" stroke="#5c6f9c" stroke-width="1.8" opacity="0.31"/>
<line x1="1122" y1="1281" x2="1126" y2="1281" stroke="#3d5a80" stroke-width="1.3" opacity="0.44"/>
<circle cx="868" cy="455" r="2.6" fill="#1f2a48" opacity="0.20"/>
<line x1="972" y1="1515" x2="983" y2="1503" stroke="#5c6f9c" stroke-width="1.7" opacity="0.48"/>
<circle cx="1427" cy="1258" r="3.0" fill="#5c6f9c" opacity="0.55"/>
<circle cx="852" cy="1063" r="0.9" fill="#e0fbfc" opacity="0.29"/>
<circle cx="87" cy="976" r="1.3" fill="#e0fbfc" opacity="0.26"/>
<line x1="85" y1="801" x2="95" y2="811" stroke="#1f2a48" stroke-width="1.4" opacity="0.41"/>
<line x1="157" y1="286" x2="147" y2="277" stroke="#5c6f9c" stroke-width="0.9" opacity="0.37"/>
<circle cx="1467" cy="1680" r="0.9" fill="#1f2a48" opacity="0.26"/>
<circle cx="522" cy="456" r="2.9" fill="#3d5a80" opacity="0.66"/>
<circle cx="1582" cy="1458" r="1.9" fill="#98c1d9" opacity="0.69"/>
<circle cx="1194" cy="801" r="2.0" fill="#e0fbfc" opacity="0.53"/>
<circle cx="1203" cy="1225" r="2.6" fill="#1f2a48" opacity="0.47"/>
<circle cx="1073" cy="27" r="2.6" fill="#1f2a48" opacity="0.51"/>
<circle cx="1400" cy="1317" r="2.8" fill="#3d5a80" opacity="0.64"/>
<circle cx="1163" cy="373" r="1.7" fill="#98c1d9" opacity="0.60"/>
<circle cx="1008" cy="157" r="0.7" fill="#1f2a48" opacity="0.62"/>
<line x1="79" y1="520" x2="73" y2="525" stroke="#3d5a80" stroke-width="1.1" opacity="0.30"/>
<circle cx="1667" cy="827" r="1.0" fill="#3d5a80" opacity="0.63"/>
<line x1="958" y1="1572" x2="949" y2="1573" stroke="#1f2a48" stroke-width="1.9" opacity="0.54"/>
<line x1="1380" y1="844" x2="1373" y2="838" stroke="#5c6f9c" stroke-width="0.8" opacity="0.63"/>
<line x1="61" y1="1790" x2="73" y2="1780" stroke="#1f2a48" stroke-width="1.6" opacity="0.41"/>
<circle cx="839" cy="519" r="2.7" fill="#1f2a48" opacity="0.29"/>
<circle cx="1529" cy="87" r="0.9" fill="#293241" opacity="0.52"/>
<circle cx="1111" cy="711" r="2.9" fill="#3d5a80" opacity="0.60"/>
<circle cx="1162" cy="339" r="1.6" fill="#293241" opacity="0.61"/>
<line x1="631" y1="837" x2="623" y2="845" stroke="#293241" stroke-width="2.2" opacity="0.51"/>
<line x1="1267" y1="1343" x2="1271" y2="1338" stroke="#1f2a48" stroke-width="0.9" opacity="0.60"/>
<circle cx="1371" cy="300" r="3.0" fill="#e0fbfc" opacity="0.49"/>
<line x1="1496" y1="337" x2="1484" y2="341" stroke="#e0fbfc" stroke-width="1.7" opacity="0.46"/>
<circle cx="1078" cy="1607" r="2.5" fill="#98c1d9" opacity="0.69"/>
<line x1="1139" y1="75" x2="1127" y2="69" stroke="#3d5a80" stroke-width="1.5" opacity="0.41"/>
<circle cx="552" cy="301" r="2.0" fill="#293241" opacity="0.64"/>
<line x1="1239" y1="882" x2="1230" y2="871" stroke="#5c6f9c" stroke-width="1.1" opacity="0.33"/>
<line x1="1520" y1="982" x2="1512" y2="984" stroke="#5c6f9c" stroke-width="2.0" opacity="0.48"/>
<line x1="353" y1="717" x2="352" y2="722" stroke="#293241" stroke-width="1.5" opacity="0.64"/>
<circle cx="641" cy="517" r="1.1" fill="#5c6f9c" opacity="0.66"/>
<circle cx="1508" cy="482" r="1.1" fill="#293241" opacity="0.59"/>
<circle cx="1335" cy="904" r="1.8" fill="#5c6f9c" opacity="0.34"/>
<circle cx="752" cy="1545" r="0.8" fill="#3d5a80" opacity="0.60"/>
<line x1="999" y1="189" x2="1002" y2="180" stroke="#293241" stroke-width="1.0" opacity="0.63"/>
<circle cx="1037" cy="541" r="1.0" fill="#1f2a48" opacity="0.26"/>
<circle cx="970" cy="807" r="3.0" fill="#3d5a80" opacity="0.56"/>
<line x1="1538" y1="815" x2="1528" y2="824" stroke="#98c1d9" stroke-width="0.9" opacity="0.31"/>
<circle cx="283" cy="375" r="1.2" fill="#e0fbfc" opacity="0.49"/>
<circle cx="690" cy="1244" r="2.2" fill="#3d5a80" opacity="0.54"/>
<line x1="222" y1="1769" x2="229" y2="1770" stroke="#5c6f9c" stroke-width="0.7" opacity="0.52"/>
<line x1="869" y1="762" x2="870" y2="758" stroke="#3d5a80" stroke-width="2.2" opacity="0.30"/>
<line x1="1652" y1="1432" x2="1659" y2="1439" stroke="#e0fbfc" stroke-width="1.6" opacity="0.26"/>
<circle cx="150" cy="62" r="1.0" fill="#3d5a80" opacity="0.41"/>
<circle cx="809" cy="665" r="0.8" fill="#98c1d9" opacity="0.61"/>
<circle cx="1287" cy="1334" r="1.7" fill="#e0fbfc" opacity="0.64"/>
<circle cx="1007" cy="220" r="1.2" fill="#98c1d9" opacity="0.52"/>
<circle cx="1367" cy="1007" r="2.7" fill="#e0fbfc" opacity="0.66"/>
<line x1="1795" y1="1118" x2="1794" y2="1125" stroke="#5c6f9c" stroke-width="1.2" opacity="0.36"/>
<circle cx="532" cy="1509" r="2.0" fill="#98c1d9" opacity="0.57"/>
<circle cx="897" cy="450" r="1.2" fill="#e0fbfc" opacity="0.45"/>
<line x1="795" y1="1559" x2="785" y2="1563" stroke="#293241" stroke-width="1.1" opacity="0.24"/>
<line x1="671" y1="1264" x2="674" y2="1266" stroke="#1f2a48" stroke-width="1.9" opacity="0.52"/>
<circle cx="1275" cy="558" r="2.2" fill="#3d5a80" opacity="0.49"/>
<circle cx="944" cy="1368" r="0.6" fill="#98c1d9" opacity="0.61"/>
<line x1="702" y1="1420" x2="695" y2="1415" stroke="#98c1d9" stroke-width="1.8" opacity="0.29"/>
<line x1="846" y1="1067" x2="835" y2="1073" stroke="#98c1d9" stroke-width="0.9" opacity="0.41"/>
<circle cx="607" cy="247" r="1.1" fill="#3d5a80" opacity="0.67"/>
<line x1="84" y1="1223" x2="88" y2="1231" stroke="#1f2a48" stroke-width="1.3" opacity="0.64"/>
<circle cx="717" cy="465" r="2.8" fill="#1f2a48" opacity="0.48"/>
<line x1="1669" y1="179" x2="1660" y2="189" stroke="#5c6f9c" stroke-width="0.8" opacity="0.34"/>
<line x1="732" y1="297" x2="740" y2="306" stroke="#98c1d9" stroke-width="2.0" opacity="0.35"/>
<line x1="935" y1="1596" x2="938" y2="1607" stroke="#5c6f9c" stroke-width="1.9" opacity="0.46"/>
<circle cx="718" cy="1564" r="2.9" fill="#1f2a48" opacity="0.51"/>
<circle cx="1487" cy="195" r="1.1" fill="#98c1d9" opacity="0.41"/>
<line x1="342" y1="1632" x2="332" y2="1644" stroke="#293241" stroke-width="1.4" opacity="0.44"/>
<circle cx="799" cy="954" r="0.8" fill="#98c1d9" opacity="0.51"/>
<line x1="836" y1="1563" x2="841" y2="1559" stroke="#1f2a48" stroke-width="0.9" opacity="0.56"/>
<line x1="168" y1="1309" x2="156" y2="1303" stroke="#5c6f9c" stroke-width="1.6" opacity="0.54"/>
<line x1="1140" y1="1130" x2="1144" y2="1132" stroke="#5c6f9c" stroke-width="1.3" opacity="0.20"/>
<circle cx="265" cy="1728" r="2.1" fill="#e0fbfc" opacity="0.36"/>
<circle cx="26" cy="5" r="2.2" fill="#e0fbfc" opacity="0.23"/>
<circle cx="1012" cy="4" r="2.5" fill="#293241" opacity="0.70"/>
<circle cx="161" cy="597" r="1.1" fill="#1f2a48" opacity="0.20"/>
<circle cx="356" cy="574" r="2.4" fill="#e0fbfc" opacity="0.36"/>
<circle cx="610" cy="1167" r="0.6" fill="#293241" opacity="0.58"/>
<circle cx="316" cy="1113" r="1.2" fill="#1f2a48" opacity="0.38"/>
<circle cx="1324" cy="1208" r="2.8" fill="#293241" opacity="0.56"/>
<line x1="1257" y1="1155" x2="1245" y2="1152" stroke="#98c1d9" stroke-width="0.8" opacity="0.49"/>
<circle cx="1164" cy="152" r="1.6" fill="#1f2a48" opacity="0.41"/>
<line x1="1006" y1="503" x2="996" y2="510" stroke="#1f2a48" stroke-width="1.7" opacity="0.36"/>
<line x1="1161" y1="20" x2="1156" y2="8" stroke="#5c6f9c" stroke-width="1.6" opacity="0.54"/>
<line x1="1731" y1="694" x2="1721" y2="691" stroke="#e0fbfc" stroke-width="1.7" opacity="0.28"/>
<line x1="746" y1="1336" x2="746" y2="1331" stroke="#e0fbfc" stroke-width="0.9" opacity="0.40"/>
<line x1="907" y1="683" x2="897" y2="676" stroke="#1f2a48" stroke-width="1.5" opacity="0.50"/>
<line x1="691" y1="529" x2="700" y2="523" stroke="#e0fbfc" stroke-width="1.3" opacity="0.45"/>
<line x1="1310" y1="858" x2="1304" y2="868" stroke="#293241" stroke-width="0.6" opacity="0.52"/>
<line x1="744" y1="1399" x2="738" y2="1392" stroke="#293241" stroke-width="1.3" opacity="0.59"/>
<line x1="27" y1="583" x2="26" y2="594" stroke="#1f2a48" stroke-width="2.2" opacity="0.39"/>
<circle cx="198" cy="925" r="1.6" fill="#e0fbfc" opacity="0.40"/>
<circle cx="1761" cy="1414" r="1.9" fill="#3d5a80" opacity="0.48"/>
<line x1="204" y1="489" x2="193" y2="492" stroke="#e0fbfc" stroke-width="1.2" opacity="0.62"/>
<line x1="1083" y1="35" x2="1083" y2="32" stroke="#98c1d9" stroke-width="0.6" opacity="0.28"/>
<circle cx="1042" cy="1510" r="1.2" fill="#e0fbfc" opacity="0.44"/>
<circle cx="20" cy="638" r="2.0" fill="#1f2a48" opacity="0.23"/>
<circle cx="1352" cy="174" r="3.0" fill="#e0fbfc" opacity="0.29"/>
<line x1="1746" y1="3" x2="1745" y2="10" stroke="#3d5a80" stroke-width="0.7" opacity="0.34"/>
<circle cx="1027" cy="693" r="2.3" fill="#5c6f9c" opacity="0.55"/>
<line x1="630" y1="227" x2="633" y2="223" stroke="#98c1d9" stroke-width="1.6" opacity="0.23"/>
<line x1="1459" y1="121" x2="1455" y2="109" stroke="#98c1d9" stroke-width="1.0" opacity="0.22"/>
<line x1="1331" y1="981" x2="1321" y2="982" stroke="#5c6f9c" stroke-width="1.0" opacity="0.52"/>
<circle cx="826" cy="89" r="2.5" fill="#1f2a48" opacity="0.37"/>
<circle cx="1239" cy="1758" r="2.7" fill="#98c1d9" opacity="0.58"/>
<circle cx="333" cy="1385" r="0.6" fill="#5c6f9c" opacity="0.35"/>
<line x1="1" y1="1411" x2="9" y2="1419" stroke="#e0fbfc" stroke-width="1.6" opacity="0.48"/>
<line x1="546" y1="1186" x2="540" y2="1191" stroke="#1f2a48" stroke-width="1.9" opacity="0.34"/>
<circle cx="1290" cy="654" r="1.2" fill="#1f2a48" opacity="0.47"/>
<circle cx="1532" cy="185" r="1.9" fill="#e0fbfc" opacity="0.53"/>
<circle cx="1744" cy="1057" r="1.8" fill="#1f2a48" opacity="0.63"/>
<line x1="678" y1="736" x2="675" y2="747" stroke="#293241" stroke-width="2.1" opacity="0.55"/>
<circle cx="134" cy="1072" r="1.1" fill="#98c1d9" opacity="0.62"/>
<circle cx="429" cy="1583" r="1.1" fill="#e0fbfc" opacity="0.39"/>
<line x1="1100" y1="116" x2="1105" y2="107" stroke="#98c1d9" stroke-width="1.4" opacity="0.33"/>
<circle cx="1082" cy="756" r="1.3" fill="#3d5a80" opacity="0.30"/>
<circle cx="444" cy="387" r="2.1" fill="#98c1d9" opacity="0.36"/>
<circle cx="381" cy="1597" r="2.1" fill="#293241" opacity="0.70"/>
<circle cx="632" cy="838" r="0.6" fill="#3d5a80" opacity="0.23"/>
<line x1="1027" y1="164" x2="1032" y2="158" stroke="#293241" stroke-width="1.5" opacity="0.45"/>
<circle cx="1082" cy="964" r="0.8" fill="#98c1d9" opacity="0.25"/>
<line x1="1155" y1="1260" x2="1159" y2="1268" stroke="#5c6f9c" stroke-width="1.5" opacity="0.34"/>
<circle cx="463" cy="148" r="2.5" fill="#5c6f9c" opacity="0.45"/>
<line x1="491" y1="377" x2="493" y2="377" stroke="#293241" stroke-width="0.8" opacity="0.59"/>
<line x1="816" y1="1573" x2="825" y2="1585" stroke="#5c6f9c" stroke-width="1.1" opacity="0.42"/>
<line x1="650" y1="1689" x2="659" y2="1679" stroke="#5c6f9c" stroke-width="1.6" opacity="0.58"/>
<circle cx="492" cy="822" r="1.5" fill="#3d5a80" opacity="0.66"/>
<line x1="354" y1="1076" x2="350" y2="1070" stroke="#e0fbfc" stroke-width="2.0" opacity="0.39"/>
<circle cx="1232" cy="267" r="1.3" fill="#293241" opacity="0.59"/>
<circle cx="842" cy="567" r="0.6" fill="#1f2a48" opacity="0.40"/>
<circle cx="1169" cy="632" r="0.9" fill="#293241" opacity="0.38"/>
<circle cx="867" cy="554" r="1.2" fill="#98c1d9" opacity="0.52"/>
<circle cx="1212" cy="1230" r="2.4" fill="#e0fbfc" opacity="0.20"/>
<circle cx="1597" cy="240" r="1.5" fill="#98c1d9" opacity="0.64"/>
<line x1="340" y1="1385" x2="330" y2="1394" stroke="#98c1d9" stroke-width="0.6" opacity="0.23"/>
<line x1="581" y1="308" x2="581" y2="297" stroke="#98c1d9" stroke-width="1.0" opacity="0.31"/>
<circle cx="1563" cy="801" r="2.8" fill="#3d5a80" opacity="0.66"/>
<line x1="625" y1="1376" x2="627" y2="1373" stroke="#293241" stroke-width="0.6" opacity="0.21"/>
<circle cx="1746" cy="65" r="1.5" fill="#e0fbfc" opacity="0.30"/>
<line x1="639" y1="1443" x2="638" y2="1450" stroke="#5c6f9c" stroke-width="1.5" opacity="0.31"/>
<line x1="288" y1="921" x2="276" y2="931" stroke="#293241" stroke-width="2.1" opacity="0.33"/>
<circle cx="95" cy="1322" r="1.9" fill="#98c1d9" opacity="0.35"/>
<line x1="28" y1="306" x2="27" y2="313" stroke="#98c1d9" stroke-width="0.7" opacity="0.27"/>
<line x1="1263" y1="623" x2="1261" y2="615" stroke="#5c6f9c" stroke-width="1.4" opacity="0.56"/>
<line x1="1389" y1="1273" x2="1383" y2="1274" stroke="#293241" stroke-width="1.1" opacity="0.24"/>
<line x1="622" y1="1787" x2="630" y2="1777" stroke="#1f2a48" stroke-width="1.3" opacity="0.59"/>
<circle cx="20" cy="1334" r="2.5" fill="#1f2a48" opacity="0.28"/>
<line x1="510" y1="1165" x2="518" y2="1163" stroke="#5c6f9c" stroke-width="1.3" opacity="0.47"/>
<line x1="933" y1="626" x2="931" y2="631" stroke="#293241" stroke-width="2.1" opacity="0.23"/>
<circle cx="1344" cy="299" r="2.8" fill="#5c6f9c" opacity="0.29"/>
<circle cx="1246" cy="954" r="1.6" fill="#98c1d9" opacity="0.57"/>
<circle cx="778" cy="1463" r="2.3" fill="#293241" opacity="0.43"/>
<circle cx="1063" cy="895" r="1.0" fill="#1f2a48" opacity="0.61"/>
<circle cx="875" cy="1349" r="0.7" fill="#e0fbfc" opacity="0.28"/>
<circle cx="1389" cy="1486" r="2.6" fill="#1f2a48" opacity="0.45"/>
<circle cx="1783" cy="0" r="1.9" fill="#3d5a80" opacity="0.48"/>
<line x1="1486" y1="1157" x2="1478" y2="1146" stroke="#5c6f9c" stroke-width="1.6" opacity="0.28"/>
<line x1="83" y1="1798" x2="75" y2="1798" stroke="#e0fbfc" stroke-width="1.6" opacity="0.50"/>
<circle cx="1756" cy="633" r="0.7" fill="#293241" opacity="0.40"/>
<line x1="645" y1="1767" x2="655" y2="1764" stroke="#293241" stroke-width="1.1" opacity="0.61"/>
<line x1="1748" y1="907" x2="1738" y2="918" stroke="#1f2a48" stroke-width="1.9" opacity="0.31"/>
<circle cx="116" cy="764" r="1.8" fill="#98c1d9" opacity="0.41"/>
<line x1="138" y1="1230" x2="132" y2="1223" stroke="#3d5a80" stroke-width="1.7" opacity="0.62"/>
<circle cx="1502" cy="843" r="1.7" fill="#293241" opacity="0.68"/>
<circle cx="1654" cy="588" r="1.2" fill="#1f2a48" opacity="0.66"/>
<circle cx="395" cy="1332" r="3.0" fill="#98c1d9" opacity="0.27"/>
<line x1="658" y1="1461" x2="668" y2="1454" stroke="#98c1d9" stroke-width="1.0" opacity="0.24"/>
<line x1="62" y1="458" x2="72" y2="453" stroke="#1f2a48" stroke-width="1.6" opacity="0.27"/>
<line x1="712" y1="243" x2="701" y2="250" stroke="#e0fbfc" stroke-width="0.6" opacity="0.26"/>
<circle cx="62" cy="1799" r="2.0" fill="#e0fbfc" opacity="0.48"/>
<line x1="1616" y1="1329" x2="1628" y2="1334" stroke="#e0fbfc" stroke-width="1.2" opacity="0.33"/>
<line x1="120" y1="863" x2="128" y2="855" stroke="#98c1d9" stroke-width="1.6" opacity="0.52"/>
<circle cx="1560" cy="1763" r="2.8" fill="#1f2a48" opacity="0.30"/>
<circle cx="770" cy="1746" r="2.8" fill="#293241" opacity="0.44"/>
<circle cx="1465" cy="1116" r="1.9" fill="#1f2a48" opacity="0.43"/>
<circle cx="152" cy="1099" r="2.7" fill="#3d5a80" opacity="0.22"/>
<circle cx="1794" cy="787" r="2.4" fill="#98c1d9" opacity="0.32"/>
<circle cx="1766" cy="760" r="2.5" fill="#293241" opacity="0.58"/>
<line x1="643" y1="302" x2="653" y2="313" stroke="#5c6f9c" stroke-width="2.1" opacity="0.46"/>
<circle cx="1160" cy="49" r="1.4" fill="#1f2a48" opacity="0.28"/>
<line x1="829" y1="638" x2="826" y2="645" stroke="#1f2a48" stroke-width="2.1" opacity="0.41"/>
<line x1="541" y1="335" x2="548" y2="334" stroke="#5c6f9c" stroke-width="1.0" opacity="0.60"/>
<circle cx="1213" cy="1017" r="1.3" fill="#293241" opacity="0.37"/>
<line x1="537" y1="491" x2="526" y2="490" stroke="#1f2a48" stroke-width="0.8" opacity="0.29"/>
</svg>