<svg xmlns="http://www.w3.org/2000/svg" width="1400" height="2000" viewBox="0 0 1400 2000">
<rect width="1400" height="2000" fill="#eef2e6"/>
<rect x="-86" y="472" width="918" height="833" fill="#f2e8cf" opacity="0.43" transform="rotate(-28 373 888)"/>
<rect x="-160" y="954" width="364" height="877" fill="#f2e8cf" opacity="0.29" transform="rotate(20 23 1393)"/>
<rect x="-360" y="292" width="845" height="761" fill="#f2e8cf" opacity="0.30" transform="rotate(28 62 673)"/>
<rect x="-452" y="418" width="919" height="558" fill="#6a994e" opacity="0.35" transform="rotate(-20 7 697)"/>
<rect x="197" y="1528" width="815" height="549" fill="#6a994e" opacity="0.42" transform="rotate(-2 604 1803)"/>
<rect x="553" y="-21" width="357" height="1159" fill="#386641" opacity="0.41" transform="rotate(-22 731 558)"/>
<rect x="706" y="1377" width="835" height="385" fill="#386641" opacity="0.62" transform="rotate(-3 1124 1569)"/>
<path d="M 687 663 Q 364 906 223 1049" stroke="#386641" stroke-width="33" stroke-linecap="round" fill="none" opacity="0.34"/>
<path d="M 245 906 Q 3 1217 -6 1392" stroke="#386641" stroke-width="17" stroke-linecap="round" fill="none" opacity="0.65"/>
<path d="M 1285 657 Q 1096 345 867 240" stroke="#52796f" stroke-width="23" stroke-linecap="round" fill="none" opacity="0.62"/>
<path d="M 987 1705 Q 872 1692 1010 1535" stroke="#a7c957" stroke-width="10" stroke-linecap="round" fill="none" opacity="0.71"/>
<path d="M 1369 529 Q 1685 372 1702 128" stroke="#a7c957" stroke-width="11" stroke-linecap="round" fill="none" opacity="0.54"/>
<path d="M 818 1689 Q 975 1656 1127 1693" stroke="#6a994e" stroke-width="31" stroke-linecap="round" fill="none" opacity="0.32"/>
<path d="M 761 534 Q 481 572 301 508" stroke="#f2e8cf" stroke-width="31" stroke-linecap="round" fill="none" opacity="0.46"/>
<path d="M 533 561 Q 903 321 1081 199" stroke="#6a994e" stroke-width="12" stroke-linecap="round" fill="none" opacity="0.52"/>
<path d="M 841 566 Q 938 519 1301 328" stroke="#52796f" stroke-width="6" stroke-linecap="round" fill="none" opacity="0.51"/>
<path d="M 798 1069 Q 594 917 449 716" stroke="#6a994e" stroke-width="23" stroke-linecap="round" fill="none" opacity="0.58"/>
<circle cx="406" cy="1077" r="50" fill="#386641" opacity="0.75"/>
<circle cx="698" cy="1048" r="64" fill="#bc4749" opacity="0.78"/>
<circle cx="1087" cy="621" r="106" fill="#386641" opacity="0.56"/>
<line x1="280" y1="994" x2="281" y2="1006" stroke="#52796f" stroke-width="1.1" opacity="0.61"/>
<line x1="987" y1="19" x2="995" y2="9" stroke="#a7c957" stroke-width="1.4" opacity="0.26"/>
<line x1="1155" y1="930" x2="1165" y2="936" stroke="#f2e8cf" stroke-width="0.8" opacity="0.32"/>
<line x1="458" y1="1438" x2="462" y2="1428" stroke="#bc4749" stroke-width="1.6" opacity="0.22"/>
<line x1="128" y1="193" x2="139" y2="193" stroke="#bc4749" stroke-width="0.7" opacity="0.29"/>
<circle cx="1137" cy="916" r="1.9" fill="#6a994e" opacity="0.31"/>
<circle cx="844" cy="790" r="1.4" fill="#52796f" opacity="0.54"/>
<circle cx="956" cy="393" r="2.3" fill="#6a994e" opacity="0.24"/>
<line x1="105" y1="1539" x2="101" y2="1537" stroke="#f2e8cf" stroke-width="1.0" opacity="0.28"/>
<circle cx="387" cy="551" r="2.1" fill="#f2e8cf" opacity="0.66"/>
<line x1="1220" y1="1092" x2="1225" y2="1097" stroke="#6a994e" stroke-width="2.0" opacity="0.30"/>
<line x1="571" y1="1709" x2="569" y2="1711" stroke="#bc4749" stroke-width="1.7" opacity="0.40"/>
<circle cx="775" cy="69" r="2.3" fill="#52796f" opacity="0.65"/>
<circle cx="234" cy="1320" r="2.4" fill="#386641" opacity="0.63"/>
<line x1="639" y1="497" x2="629" y2="508" stroke="#52796f" stroke-width="1.7" opacity="0.39"/>
<line x1="94" y1="1764" x2="96" y2="1774" stroke="#bc4749" stroke-width="1.7" opacity="0.27"/>
<line x1="1231" y1="1393" x2="1229" y2="1389" stroke="#386641" stroke-width="2.1" opacity="0.46"/>
<line x1="267" y1="1416" x2="256" y2="1410" stroke="#6a994e" stroke-width="1.9" opacity="0.22"/>
<circle cx="653" cy="1154" r="1.0" fill="#386641" opacity="0.39"/>
<line x1="1059" y1="791" x2="1052" y2="801" stroke="#6a994e" stroke-width="0.6" opacity="0.39"/>
<circle cx="638" cy="265" r="1.5" fill="#52796f" opacity="0.21"/>
<circle cx="177" cy="1076" r="1.1" fill="#52796f" opacity="0.46"/>
<line x1="446" y1="1933" x2="454" y2="1925" stroke="#a7c957" stroke-width="2.1" opacity="0.40"/>
<line x1="777" y1="1925" x2="778" y2="1927" stroke="#386641" stroke-width="0.8" opacity="0.30"/>
<line x1="432" y1="119" x2="420" y2="131" stroke="#f2e8cf" stroke-width="1.0" opacity="0.23"/>
<circle cx="553" cy="1991" r="0.6" fill="#bc4749" opacity="0.23"/>
<circle cx="484" cy="661" r="1.2" fill="#52796f" opacity="0.67"/>
<circle cx="289" cy="1027" r="1.8" fill="#52796f" opacity="0.52"/>
<line x1="1321" y1="327" x2="1317" y2="320" stroke="#a7c957" stroke-width="0.9" opacity="0.43"/>
<circle cx="1015" cy="693" r="1.4" fill="#a7c957" opacity="0.22"/>
<line x1="1075" y1="973" x2="1086" y2="969" stroke="#6a994e" stroke-width="1.3" opacity="0.37"/>
<line x1="777" y1="1439" x2="781" y2="1447" stroke="#6a994e" stroke-width="1.4" opacity="0.24"/>
<circle cx="690" cy="1596" r="3.0" fill="#a7c957" opacity="0.67"/>
<circle cx="261" cy="351" r="1.0" fill="#386641" opacity="0.70"/>
<line x1="298" y1="1306" x2="293" y2="1304" stroke="#386641" stroke-width="1.9" opacity="0.57"/>
<circle cx="347" cy="684" r="1.0" fill="#52796f" opacity="0.24"/>
<line x1="448" y1="974" x2="450" y2="981" stroke="#a7c957" stroke-width="1.2" opacity="0.39"/>
<circle cx="1246" cy="1556" r="1.0" fill="#bc4749" opacity="0.51"/>
<line x1="990" y1="719" x2="979" y2="720" stroke="#a7c957" stroke-width="1.2" opacity="0.46"/>
<circle cx="920" cy="1125" r="1.0" fill="#6a994e" opacity="0.64"/>
<line x1="410" y1="1085" x2="420" y2="1082" stroke="#bc4749" stroke-width="1.9" opacity="0.44"/>
<line x1="1329" y1="595" x2="1339" y2="597" stroke="#6a994e" stroke-width="1.8" opacity="0.64"/>
<line x1="358" y1="1738" x2="356" y2="1727" stroke="#386641" stroke-width="2.1" opacity="0.47"/>
<line x1="328" y1="952" x2="326" y2="946" stroke="#bc4749" stroke-width="1.4" opacity="0.56"/>
<line x1="377" y1="993" x2="383" y2="997" stroke="#bc4749" stroke-width="1.2" opacity="0.37"/>
<circle cx="904" cy="995" r="3.0" fill="#52796f" opacity="0.38"/>
<circle cx="563" cy="1804" r="1.4" fill="#bc4749" opacity="0.46"/>
<circle cx="1174" cy="381" r="1.1" fill="#bc4749" opacity="0.35"/>
<circle cx="195" cy="456" r="1.7" fill="#6a994e" opacity="0.57"/>
<circle cx="439" cy="730" r="2.6" fill="#bc4749" opacity="0.43"/>
<circle cx="174" cy="967" r="1.6" fill="#a7c957" opacity="0.61"/>
<line x1="652" y1="1532" x2="644" y2="1533" stroke="#f2e8cf" stroke-width="2.0" opacity="0.52"/>
<circle cx="918" cy="46" r="1.6" fill="#a7c957" opacity="0.26"/>
<circle cx="1157" cy="343" r="1.8" fill="#386641" opacity="0.21"/>
<line x1="1203" y1="1459" x2="1205" y2="1457" stroke="#52796f" stroke-width="1.1" opacity="0.35"/>
<line x1="665" y1="647" x2="676" y2="637" stroke="#6a994e" stroke-width="2.0" opacity="0.50"/>
<circle cx="743" cy="1987" r="2.8" fill="#bc4749" opacity="0.55"/>
<line x1="128" y1="1088" x2="135" y2="1077" stroke="#f2e8cf" stroke-width="1.9" opacity="0.32"/>
<line x1="1095" y1="1116" x2="1093" y2="1113" stroke="#52796f" stroke-width="1.5" opacity="0.29"/>
<circle cx="208" cy="1228" r="0.9" fill="#a7c957" opacity="0.37"/>
<line x1="810" y1="1764" x2="819" y2="1765" stroke="#a7c957" stroke-width="2.0" opacity="0.23"/>
<line x1="501" y1="1801" x2="492" y2="1806" stroke="#52796f" stroke-width="2.0" opacity="0.53"/>
<circle cx="681" cy="618" r="2.8" fill="#52796f" opacity="0.50"/>
<circle cx="499" cy="413" r="2.6" fill="#a7c957" opacity="0.25"/>
<circle cx="305" cy="1236" r="1.3" fill="#52796f" opacity="0.35"/>
<circle cx="688" cy="1786" r="1.5" fill="#a7c957" opacity="0.61"/>
<circle cx="229" cy="1540" r="2.3" fill="#bc4749" opacity="0.62"/>
<line x1="603" y1="979" x2="597" y2="976" stroke="#6a994e" stroke-width="1.8" opacity="0.47"/>
<circle cx="1042" cy="243" r="0.8" fill="#a7c957" opacity="0.55"/>
<line x1="927" y1="552" x2="927" y2="563" stroke="#a7c957" stroke-width="1.9" opacity="0.45"/>
<line x1="1312" y1="1545" x2="1319" y2="1553" stroke="#386641" stroke-width="1.1" opacity="0.23"/>
<line x1="131" y1="1515" x2="135" y2="1522" stroke="#f2e8cf" stroke-width="1.9" opacity="0.46"/>
<circle cx="318" cy="189" r="1.9" fill="#a7c957" opacity="0.49"/>
<circle cx="812" cy="1070" r="1.5" fill="#f2e8cf" opacity="0.25"/>
<circle cx="1252" cy="315" r="1.3" fill="#6a994e" opacity="0.48"/>
<line x1="1299" y1="1176" x2="1306" y2="1166" stroke="#386641" stroke-width="1.2" opacity="0.44"/>
<line x1="897" y1="579" x2="895" y2="568" stroke="#6a994e" stroke-width="1.0" opacity="0.64"/>
<line x1="537" y1="477" x2="539" y2="482" stroke="#f2e8cf" stroke-width="2.0" opacity="0.64"/>
<line x1="217" y1="1175" x2="214" y2="1187" stroke="#386641" stroke-width="1.8" opacity="0.22"/>
<circle cx="665" cy="1076" r="2.7" fill="#a7c957" opacity="0.65"/>
<circle cx="954" cy="1741" r="2.6" fill="#f2e8cf" opacity="0.67"/>
<circle cx="993" cy="738" r="1.6" fill="#386641" opacity="0.58"/>
<circle cx="1158" cy="1538" r="2.6" fill="#a7c957" opacity="0.63"/>
<circle cx="643" cy="1687" r="0.8" fill="#f2e8cf" opacity="0.57"/>
<line x1="1339" y1="1551" x2="1350" y2="1542" stroke="#a7c957" stroke-width="1.1" opacity="0.44"/>
<circle cx="1260" cy="366" r="0.8" fill="#f2e8cf" opacity="0.68"/>
<circle cx="1170" cy="1600" r="2.7" fill="#6a994e" opacity="0.50"/>
<circle cx="1389" cy="824" r="0.9" fill="#52796f" opacity="0.51"/>
<line x1="414" y1="296" x2="404" y2="287" stroke="#bc4749" stroke-width="0.8" opacity="0.47"/>
<circle cx="558" cy="103" r="1.4" fill="#f2e8cf" opacity="0.39"/>
<line x1="1183" y1="1363" x2="1179" y2="1364" stroke="#6a994e" stroke-width="1.5" opacity="0.62"/>
<circle cx="936" cy="79" r="1.0" fill="#386641" opacity="0.33"/>
<circle cx="1085" cy="702" r="2.0" fill="#6a994e" opacity="0.29"/>
<circle cx="684" cy="817" r="1.7" fill="#f2e8cf" opacity="0.49"/>
<line x1="50" y1="1766" x2="55" y2="1766" stroke="#52796f" stroke-width="0.8" opacity="0.35"/>
<line x1="91" y1="236" x2="87" y2="229" stroke="#f2e8cf" stroke-width="1.3" opacity="0.60"/>
<line x1="797" y1="1456" x2="799" y2="1445" stroke="#6a994e" stroke-width="2.1" opacity="0.58"/>
<line x1="1042" y1="1939" x2="1054" y2="1938" stroke="#6a994e" stroke-width="1.6" opacity="0.24"/>
<line x1="1007" y1="853" x2="1004" y2="859" stroke="#bc4749" stroke-width="0.9" opacity="0.60"/>
<line x1="505" y1="994" x2="495" y2="992" stroke="#386641" stroke-width="0.7" opacity="0.51"/>
<circle cx="1250" cy="884" r="1.0" fill="#a7c957" opacity="0.59"/>
<circle cx="1293" cy="521" r="3.0" fill="#bc4749" opacity="0.61"/>
<line x1="102" y1="1790" x2="108" y2="1795" stroke="#bc4749" stroke-width="0.8" opacity="0.50"/>
<circle cx="745" cy="804" r="2.6" fill="#6a994e" opacity="0.63"/>
<line x1="262" y1="396" x2="254" y2="398" stroke="#52796f" stroke-width="1.9" opacity="0.37"/>
<line x1="201" y1="643" x2="212" y2="644" stroke="#a7c957" stroke-width="1.2" opacity="0.24"/>
<circle cx="260" cy="1790" r="1.9" fill="#52796f" opacity="0.42"/>
<line x1="1023" y1="1970" x2="1020" y2="1972" stroke="#386641" stroke-width="1.7" opacity="0.38"/>
<circle cx="233" cy="1930" r="1.6" fill="#bc4749" opacity="0.21"/>
<line x1="663" y1="644" x2="662" y2="648" stroke="#52796f" stroke-width="1.2" opacity="0.64"/>
<circle cx="169" cy="1833" r="1.8" fill="#386641" opacity="0.31"/>
<line x1="1150" y1="1387" x2="1146" y2="1397" stroke="#a7c957" stroke-width="0.8" opacity="0.56"/>
<circle cx="470" cy="1061" r="2.2" fill="#52796f" opacity="0.21"/>
<line x1="579" y1="1111" x2="572" y2="1107" stroke="#52796f" stroke-width="1.8" opacity="0.44"/>
<circle cx="378" cy="226" r="1.1" fill="#f2e8cf" opacity="0.55"/>
<line x1="510" y1="1611" x2="517" y2="1618" stroke="#a7c957" stroke-width="0.7" opacity="0.56"/>
<circle cx="1368" cy="595" r="2.5" fill="#52796f" opacity="0.24"/>
<line x1="472" y1="883" x2="474" y2="881" stroke="#a7c957" stroke-width="1.4" opacity="0.23"/>
<circle cx="362" cy="340" r="1.4" fill="#386641" opacity="0.67"/>
<circle cx="524" cy="283" r="2.5" fill="#52796f" opacity="0.23"/>
<circle cx="946" cy="1409" r="2.5" fill="#bc4749" opacity="0.48"/>
<line x1="1264" y1="248" x2="1270" y2="240" stroke="#52796f" stroke-width="0.7" opacity="0.31"/>
<line x1="1179" y1="1184" x2="1181" y2="1188" stroke="#a7c957" stroke-width="1.5" opacity="0.41"/>
<line x1="467" y1="970" x2="471" y2="981" stroke="#a7c957" stroke-width="1.0" opacity="0.59"/>
<circle cx="86" cy="1300" r="3.0" fill="#a7c957" opacity="0.23"/>
<circle cx="251" cy="1120" r="1.0" fill="#f2e8cf" opacity="0.45"/>
<line x1="880" y1="1358" x2="878" y2="1369" stroke="#a7c957" stroke-width="2.1" opacity="0.26"/>
<line x1="1397" y1="1660" x2="1401" y2="1655" stroke="#a7c957" stroke-width="1.9" opacity="0.32"/>
<line x1="1321" y1="1273" x2="1319" y2="1263" stroke="#a7c957" stroke-width="1.7" opacity="0.51"/>
<line x1="355" y1="774" x2="343" y2="762" stroke="#f2e8cf" stroke-width="0.8" opacity="0.41"/>
<circle cx="748" cy="1477" r="0.8" fill="#f2e8cf" opacity="0.60"/>
<circle cx="1369" cy="1547" r="1.8" fill="#a7c957" opacity="0.68"/>
<line x1="1111" y1="1456" x2="1100" y2="1459" stroke="#52796f" stroke-width="1.7" opacity="0.48"/>
<circle cx="164" cy="832" r="2.9" fill="#f2e8cf" opacity="0.47"/>
<line x1="1086" y1="806" x2="1092" y2="809" stroke="#bc4749" stroke-width="1.9" opacity="0.60"/>
<line x1="127" y1="126" x2="136" y2="114" stroke="#a7c957" stroke-width="0.8" opacity="0.29"/>
<line x1="385" y1="1260" x2="385" y2="1264" stroke="#52796f" stroke-width="0.7" opacity="0.25"/>
<circle cx="894" cy="979" r="1.4" fill="#a7c957" opacity="0.62"/>
<circle cx="516" cy="1788" r="1.7" fill="#52796f" opacity="0.34"/>
<circle cx="1196" cy="197" r="3.0" fill="#52796f" opacity="0.70"/>
<circle cx="1163" cy="268" r="2.5" fill="#bc4749" opacity="0.41"/>
<line x1="358" y1="640" x2="347" y2="651" stroke="#a7c957" stroke-width="2.2" opacity="0.45"/>
<circle cx="738" cy="1590" r="0.9" fill="#6a994e" opacity="0.44"/>
<line x1="1357" y1="982" x2="1351" y2="977" stroke="#6a994e" stroke-width="1.9" opacity="0.26"/>
<line x1="1268" y1="104" x2="1263" y2="108" stroke="#bc4749" stroke-width="2.1" opacity="0.61"/>
<circle cx="234" cy="549" r="2.8" fill="#386641" opacity="0.36"/>
<line x1="745" y1="728" x2="745" y2="722" stroke="#386641" stroke-width="1.8" opacity="0.27"/>
<circle cx="853" cy="3" r="3.0" fill="#52796f" opacity="0.67"/>
<circle cx="800" cy="669" r="0.8" fill="#386641" opacity="0.31"/>
<circle cx="1024" cy="103" r="1.3" fill="#52796f" opacity="0.50"/>
<line x1="1216" y1="971" x2="1219" y2="972" stroke="#a7c957" stroke-width="1.4" opacity="0.32"/>
<line x1="1221" y1="826" x2="1222" y2="816" stroke="#386641" stroke-width="0.7" opacity="0.46"/>
<line x1="1351" y1="1454" x2="1343" y2="1465" stroke="#6a994e" stroke-width="0.7" opacity="0.61"/>
<line x1="656" y1="1512" x2="650" y2="1523" stroke="#6a994e" stroke-width="1.1" opacity="0.56"/>
<circle cx="868" cy="879" r="2.6" fill="#bc4749" opacity="0.22"/>
<line x1="1011" y1="209" x2="1021" y2="221" stroke="#a7c957" stroke-width="1.3" opacity="0.29"/>
<line x1="99" y1="689" x2="102" y2="696" stroke="#f2e8cf" stroke-width="0.8" opacity="0.45"/>
<line x1="623" y1="194" x2="613" y2="188" stroke="#bc4749" stroke-width="1.8" opacity="0.33"/>
<line x1="1011" y1="840" x2="1003" y2="852" stroke="#6a994e" stroke-width="1.5" opacity="0.22"/>
<circle cx="662" cy="716" r="2.4" fill="#52796f" opacity="0.33"/>
<circle cx="783" cy="1780" r="1.8" fill="#bc4749" opacity="0.35"/>
<circle cx="1340" cy="1376" r="2.2" fill="#bc4749" opacity="0.52"/>
<line x1="551" y1="1675" x2="549" y2="1681" stroke="#386641" stroke-width="0.6" opacity="0.38"/>
<line x1="381" y1="614" x2="388" y2="624" stroke="#386641" stroke-width="1.7" opacity="0.22"/>
<circle cx="923" cy="1520" r="2.7" fill="#6a994e" opacity="0.27"/>
<circle cx="1365" cy="509" r="2.9" fill="#f2e8cf" opacity="0.39"/>
<line x1="1388" y1="1816" x2="1378" y2="1827" stroke="#bc4749" stroke-width="1.4" opacity="0.24"/>
<circle cx="32" cy="672" r="2.2" fill="#6a994e" opacity="0.29"/>
<line x1="1294" y1="1410" x2="1295" y2="1421" stroke="#bc4749" stroke-width="1.8" opacity="0.21"/>
<circle cx="1087" cy="1063" r="1.2" fill="#6a994e" opacity="0.60"/>
<circle cx="381" cy="1034" r="1.5" fill="#a7c957" opacity="0.45"/>
<line x1="1334" y1="735" x2="1331" y2="739" stroke="#bc4749" stroke-width="1.4" opacity="0.38"/>
<circle cx="90" cy="527" r="2.4" fill="#52796f" opacity="0.45"/>
<circle cx="1181" cy="1977" r="1.2" fill="#6a994e" opacity="0.55"/>
<line x1="944" y1="737" x2="954" y2="742" stroke="#a7c957" stroke-width="0.9" opacity="0.40"/>
<line x1="1084" y1="1252" x2="1086" y2="1257" stroke="#386641" stroke-width="0.9" opacity="0.22"/>
<circle cx="1173" cy="913" r="2.8" fill="#52796f" opacity="0.26"/>
<circle cx="281" cy="1131" r="2.8" fill="#52796f" opacity="0.52"/>
<line x1="356" y1="832" x2="346" y2="840" stroke="#6a994e" stroke-width="1.5" opacity="0.30"/>
<circle cx="429" cy="432" r="2.8" fill="#386641" opacity="0.30"/>
<line x1="656" y1="183" x2="654" y2="172" stroke="#f2e8cf" stroke-width="1.3" opacity="0.39"/>
<line x1="1306" y1="1727" x2="1300" y2="1728" stroke="#52796f" stroke-width="0.8" opacity="0.64"/>
<circle cx="738" cy="1470" r="1.0" fill="#f2e8cf" opacity="0.51"/>
<line x1="1122" y1="1706" x2="1126" y2="1717" stroke="#bc4749" stroke-width="0.7" opacity="0.54"/>
<line x1="328" y1="1074" x2="340" y2="1063" stroke="#f2e8cf" stroke-width="0.8" opacity="0.53"/>
<line x1="955" y1="1432" x2="961" y2="1421" stroke="#bc4749" stroke-width="1.5" opacity="0.44"/>
<line x1="1396" y1="1942" x2="1392" y2="1931" stroke="#386641" stroke-width="1.7" opacity="0.61"/>
<circle cx="1248" cy="1127" r="0.8" fill="#bc4749" opacity="0.59"/>
<line x1="500" y1="701" x2="495" y2="693" stroke="#386641" stroke-width="1.8" opacity="0.32"/>
<line x1="1136" y1="928" x2="1133" y2="939" stroke="#6a994e" stroke-width="2.0" opacity="0.37"/>
<line x1="1345" y1="115" x2="1343" y2="111" stroke="#a7c957" stroke-width="0.7" opacity="0.35"/>
<circle cx="1014" cy="1373" r="2.0" fill="#52796f" opacity="0.60"/>
<circle cx="770" cy="99" r="2.5" fill="#f2e8cf" opacity="0.39"/>
<circle cx="650" cy="1690" r="2.0" fill="#386641" opacity="0.43"/>
<line x1="1141" y1="371" x2="1148" y2="376" stroke="#a7c957" stroke-width="1.4" opacity="0.47"/>
<line x1="987" y1="381" x2="996" y2="374" stroke="#a7c957" stroke-width="0.8" opacity="0.56"/>
<line x1="1380" y1="1640" x2="1378" y2="1647" stroke="#f2e8cf" stroke-width="1.4" opacity="0.57"/>
<circle cx="1111" cy="75" r="0.8" fill="#6a994e" opacity="0.59"/>
<circle cx="1268" cy="848" r="2.4" fill="#f2e8cf" opacity="0.58"/>
<circle cx="50" cy="103" r="2.8" fill="#386641" opacity="0.36"/>
<circle cx="1142" cy="888" r="2.1" fill="#f2e8cf" opacity="0.34"/>
<line x1="1147" y1="45" x2="1136" y2="49" stroke="#386641" stroke-width="2.1" opacity="0.55"/>
<line x1="136" y1="1411" x2="127" y2="1418" stroke="#bc4749" stroke-width="1.6" opacity="0.28"/>
<line x1="337" y1="856" x2="332" y2="854" stroke="#386641" stroke-width="1.1" opacity="0.41"/>
<line x1="455" y1="355" x2="462" y2="364" stroke="#a7c957" stroke-width="0.9" opacity="0.32"/>
<circle cx="622" cy="1309" r="0.6" fill="#bc4749" opacity="0.51"/>
<circle cx="1326" cy="1348" r="0.9" fill="#f2e8cf" opacity="0.37"/>
<circle cx="1094" cy="1990" r="2.3" fill="#6a994e" opacity="0.35"/>
<circle cx="1162" cy="1330" r="2.5" fill="#6a994e" opacity="0.36"/>
<line x1="124" y1="739" x2="122" y2="731" stroke="#6a994e" stroke-width="1.8" opacity="0.23"/>
<circle cx="483" cy="1918" r="1.1" fill="#f2e8cf" opacity="0.45"/>
<circle cx="490" cy="263" r="1.3" fill="#6a994e" opacity="0.69"/>
<circle cx="64" cy="1635" r="0.8" fill="#6a994e" opacity="0.33"/>
<line x1="115" y1="1428" x2="108" y2="1433" stroke="#6a994e" stroke-width="1.0" opacity="0.55"/>
<circle cx="796" cy="1613" r="1.6" fill="#a7c957" opacity="0.25"/>
<line x1="1168" y1="1887" x2="1177" y2="1894" stroke="#6a994e" stroke-width="0.8" opacity="0.40"/>
<circle cx="1163" cy="880" r="1.0" fill="#52796f" opacity="0.30"/>
<circle cx="1237" cy="1232" r="2.8" fill="#52796f" opacity="0.49"/>
<circle cx="443" cy="964" r="1.5" fill="#386641" opacity="0.47"/>
<circle cx="877" cy="498" r="1.4" fill="#52796f" opacity="0.67"/>
<line x1="76" y1="763" x2="78" y2="759" stroke="#386641" stroke-width="1.3" opacity="0.43"/>
<line x1="175" y1="270" x2="184" y2="263" stroke="#f2e8cf" stroke-width="1.2" opacity="0.50"/>
<line x1="336" y1="1475" x2="344" y2="1483" stroke="#f2e8cf" stroke-width="1.5" opacity="0.62"/>
<line x1="278" y1="167" x2="289" y2="160" stroke="#f2e8cf" stroke-width="1.8" opacity="0.33"/>
<circle cx="1363" cy="1625" r="1.3" fill="#52796f" opacity="0.43"/>
<circle cx="1075" cy="1864" r="1.0" fill="#a7c957" opacity="0.24"/>
<line x1="773" y1="1864" x2="780" y2="1868" stroke="#52796f" stroke-width="1.8" opacity="0.37"/>
<circle cx="484" cy="312" r="1.8" fill="#a7c957" opacity="0.23"/>
<circle cx="560" cy="107" r="2.3" fill="#f2e8cf" opacity="0.22"/>
<circle cx="547" cy="1082" r="1.7" fill="#a7c957" opacity="0.64"/>
<line x1="873" y1="1760" x2="875" y2="1766" stroke="#bc4749" stroke-width="2.0" opacity="0.31"/>
<circle cx="1166" cy="1225" r="1.0" fill="#f2e8cf" opacity="0.48"/>
<circle cx="1126" cy="1797" r="1.2" fill="#386641" opacity="0.42"/>
<circle cx="724" cy="1022" r="0.8" fill="#386641" opacity="0.28"/>
<circle cx="1302" cy="1275" r="2.6" fill="#bc4749" opacity="0.56"/>
<line x1="1170" y1="413" x2="1174" y2="403" stroke="#52796f" stroke-width="2.1" opacity="0.20"/>
<line x1="1368" y1="2" x2="1367" y2="9" stroke="#386641" stroke-width="1.1" opacity="0.27"/>
<line x1="807" y1="448" x2="805" y2="455" stroke="#6a994e" stroke-width="1.2" opacity="0.26"/>
<circle cx="1378" cy="1545" r="2.9" fill="#52796f" opacity="0.49"/>
<circle cx="155" cy="841" r="1.5" fill="#386641" opacity="0.24"/>
<line x1="363" y1="1723" x2="375" y2="1718" stroke="#52796f" stroke-width="1.8" opacity="0.27"/>
<circle cx="376" cy="355" r="0.9" fill="#bc4749" opacity="0.65"/>
<line x1="1268" y1="892" x2="1279" y2="881" stroke="#bc4749" stroke-width="1.9" opacity="0.28"/>
<circle cx="27" cy="89" r="1.3" fill="#6a994e" opacity="0.43"/>
<circle cx="765" cy="1140" r="2.2" fill="#f2e8cf" opacity="0.59"/>
<line x1="625" y1="924" x2="623" y2="913" stroke="#a7c957" stroke-width="1.2" opacity="0.30"/>
<circle cx="485" cy="135" r="1.8" fill="#6a994e" opacity="0.34"/>
<line x1="1003" y1="769" x2="1009" y2="766" stroke="#f2e8cf" stroke-width="2.1" opacity="0.35"/>
<line x1="462" y1="1706" x2="457" y2="1710" stroke="#a7c957" stroke-width="1.2" opacity="0.42"/>
<circle cx="161" cy="149" r="1.2" fill="#bc4749" opacity="0.56"/>
<circle cx="605" cy="925" r="0.9" fill="#a7c957" opacity="0.29"/>
<circle cx="1197" cy="1635" r="2.9" fill="#a7c957" opacity="0.23"/>
<circle cx="622" cy="835" r="1.0" fill="#f2e8cf" opacity="0.65"/>
<circle cx="826" cy="1319" r="1.7" fill="#a7c957" opacity="0.49"/>
<line x1="126" y1="1979" x2="137" y2="1986" stroke="#bc4749" stroke-width="0.9" opacity="0.32"/>
<circle cx="723" cy="1699" r="1.1" fill="#f2e8cf" opacity="0.56"/>
<line x1="1059" y1="753" x2="1063" y2="746" stroke="#a7c957" stroke-width="1.5" opacity="0.61"/>
<circle cx="336" cy="1983" r="2.3" fill="#f2e8cf" opacity="0.41"/>
<circle cx="186" cy="829" r="2.7" fill="#f2e8cf" opacity="0.60"/>
<circle cx="323" cy="1232" r="1.6" fill="#a7c957" opacity="0.48"/>
<circle cx="1004" cy="355" r="1.0" fill="#f2e8cf" opacity="0.68"/>
<line x1="941" y1="551" x2="930" y2="550" stroke="#f2e8cf" stroke-width="1.0" opacity="0.23"/>
<circle cx="1167" cy="237" r="1.5" fill="#bc4749" opacity="0.34"/>
<circle cx="472" cy="1436" r="0.7" fill="#6a994e" opacity="0.63"/>
<line x1="1005" y1="91" x2="1016" y2="82" stroke="#6a994e" stroke-width="1.1" opacity="0.53"/>
<circle cx="337" cy="47" r="1.0" fill="#a7c957" opacity="0.34"/>
<line x1="1370" y1="1575" x2="1370" y2="1566" stroke="#6a994e" stroke-width="2.1" opacity="0.44"/>
<line x1="837" y1="633" x2="842" y2="622" stroke="#52796f" stroke-width="0.9" opacity="0.39"/>
<line x1="174" y1="642" x2="167" y2="632" stroke="#386641" stroke-width="1.3" opacity="0.25"/>
<circle cx="460" cy="1221" r="1.2" fill="#6a994e" opacity="0.54"/>
<circle cx="328" cy="1528" r="0.7" fill="#52796f" opacity="0.46"/>
<circle cx="459" cy="548" r="1.4" fill="#386641" opacity="0.58"/>
<line x1="801" y1="1324" x2="801" y2="1322" stroke="#52796f" stroke-width="2.0" opacity="0.49"/>
<line x1="602" y1="1674" x2="599" y2="1672" stroke="#386641" stroke-width="1.8" opacity="0.47"/>
<circle cx="950" cy="1403" r="2.5" fill="#6a994e" opacity="0.59"/>
<line x1="1052" y1="195" x2="1062" y2="201" stroke="#bc4749" stroke-width="0.9" opacity="0.55"/>
<circle cx="634" cy="1350" r="1.6" fill="#bc4749" opacity="0.28"/>
<circle cx="556" cy="720" r="2.0" fill="#386641" opacity="0.56"/>
<line x1="203" y1="899" x2="199" y2="893" stroke="#6a994e" stroke-width="2.0" opacity="0.48"/>
<line x1="748" y1="1613" x2="737" y2="1624" stroke="#bc4749" stroke-width="2.2" opacity="0.49"/>
<circle cx="1092" cy="38" r="1.3" fill="#f2e8cf" opacity="0.58"/>
<line x1="121" y1="1222" x2="118" y2="1231" stroke="#f2e8cf" stroke-width="1.6" opacity="0.22"/>
<circle cx="1286" cy="833" r="2.6" fill="#386641" opacity="0.21"/>
<line x1="691" y1="250" x2="694" y2="243" stroke="#386641" stroke-width="0.7" opacity="0.56"/>
<circle cx="1085" cy="648" r="1.6" fill="#a7c957" opacity="0.22"/>
<line x1="1360" y1="861" x2="1360" y2="855" stroke="#a7c957" stroke-width="1.0" opacity="0.57"/>
<line x1="1311" y1="211" x2="1307" y2="201" stroke="#a7c957" stroke-width="1.0" opacity="0.39"/>
<line x1="703" y1="992" x2="694" y2="996" stroke="#f2e8cf" stroke-width="0.8" opacity="0.22"/>
<circle cx="635" cy="108" r="1.8" fill="#386641" opacity="0.69"/>
<circle cx="1365" cy="1078" r="2.6" fill="#386641" opacity="0.31"/>
<circle cx="69" cy="323" r="0.8" fill="#f2e8cf" opacity="0.65"/>
<circle cx="263" cy="1834" r="0.9" fill="#bc4749" opacity="0.54"/>
<circle cx="1013" cy="536" r="1.2" fill="#f2e8cf" opacity="0.38"/>
<circle cx="545" cy="1977" r="1.6" fill="#386641" opacity="0.42"/>
<line x1="175" y1="1673" x2="187" y2="1670" stroke="#a7c957" stroke-width="2.1" opacity="0.59"/>
<line x1="31" y1="1643" x2="37" y2="1652" stroke="#a7c957" stroke-width="1.7" opacity="0.48"/>
<line x1="586" y1="1472" x2="586" y2="1469" stroke="#52796f" stroke-width="1.3" opacity="0.24"/>
<circle cx="118" cy="661" r="1.4" fill="#f2e8cf" opacity="0.25"/>
<circle cx="1288" cy="1705" r="1.8" fill="#bc4749" opacity="0.36"/>
<line x1="1129" y1="1885" x2="1124" y2="1887" stroke="#bc4749" stroke-width="0.7" opacity="0.47"/>
<circle cx="1252" cy="434" r="1.7" fill="#bc4749" opacity="0.44"/>
<line x1="12" y1="873" x2="10" y2="877" stroke="#386641" stroke-width="0.9" opacity="0.56"/>
<circle cx="516" cy="1003" r="3.0" fill="#52796f" opacity="0.53"/>
<circle cx="1370" cy="580" r="0.7" fill="#52796f" opacity="0.55"/>
<circle cx="309" cy="1921" r="1.0" fill="#bc4749" opacity="0.29"/>
<circle cx="878" cy="1983" r="2.4" fill="#a7c957" opacity="0.38"/>
<line x1="1381" y1="805" x2="1382" y2="815" stroke="#bc4749" stroke-width="1.7" opacity="0.38"/>
<line x1="772" y1="1800" x2="775" y2="1806" stroke="#386641" stroke-width="1.7" opacity="0.41"/>
<line x1="418" y1="190" x2="427" y2="192" stroke="#6a994e" stroke-width="0.8" opacity="0.42"/>
<circle cx="495" cy="431" r="2.4" fill="#f2e8cf" opacity="0.22"/>
<circle cx="319" cy="684" r="2.8" fill="#386641" opacity="0.39"/>
<circle cx="864" cy="512" r="0.7" fill="#52796f" opacity="0.69"/>
<line x1="1358" y1="348" x2="1356" y2="344" stroke="#6a994e" stroke-width="1.6" opacity="0.21"/>
<circle cx="350" cy="1778" r="1.3" fill="#f2e8cf" opacity="0.21"/>
<line x1="555" y1="815" x2="549" y2="812" stroke="#6a994e" stroke-width="1.1" opacity="0.31"/>
<circle cx="1391" cy="1991" r="0.9" fill="#6a994e" opacity="0.21"/>
<circle cx="424" cy="284" r="1.0" fill="#386641" opacity="0.41"/>
<circle cx="1195" cy="1241" r="1.6" fill="#a7c957" opacity="0.63"/>
<circle cx="959" cy="437" r="2.7" fill="#6a994e" opacity="0.49"/>
<line x1="1346" y1="928" x2="1354" y2="928" stroke="#a7c957" stroke-width="1.0" opacity="0.55"/>
<line x1="750" y1="331" x2="742" y2="341" stroke="#6a994e" stroke-width="1.3" opacity="0.39"/>
<circle cx="368" cy="1977" r="2.6" fill="#52796f" opacity="0.47"/>
<circle cx="14" cy="260" r="0.8" fill="#6a994e" opacity="0.47"/>
<line x1="400" y1="1256" x2="396" y2="1252" stroke="#386641" stroke-width="2.2" opacity="0.44"/>
<circle cx="198" cy="1660" r="2.0" fill="#f2e8cf" opacity="0.44"/>
<line x1="124" y1="1940" x2="120" y2="1928" stroke="#386641" stroke-width="1.0" opacity="0.60"/>
<line x1="443" y1="894" x2="442" y2="897" stroke="#386641" stroke-width="0.9" opacity="0.57"/>
<line x1="1347" y1="1378" x2="1358" y2="1388" stroke="#52796f" stroke-width="2.0" opacity="0.25"/>
<circle cx="318" cy="1979" r="1.3" fill="#386641" opacity="0.26"/>
<circle cx="1141" cy="955" r="1.0" fill="#a7c957" opacity="0.28"/>
<line x1="682" y1="1123" x2="679" y2="1127" stroke="#386641" stroke-width="1.7" opacity="0.60"/>
<circle cx="210" cy="69" r="2.0" fill="#6a994e" opacity="0.49"/>
<circle cx="295" cy="1915" r="1.3" fill="#386641" opacity="0.29"/>
<line x1="774" y1="1035" x2="777" y2="1030" stroke="#f2e8cf" stroke-width="1.5" opacity="0.32"/>
<line x1="1176" y1="1012" x2="1178" y2="1004" stroke="#52796f" stroke-width="0.7" opacity="0.63"/>
<circle cx="531" cy="1912" r="2.1" fill="#386641" opacity="0.46"/>
<circle cx="467" cy="1000" r="1.4" fill="#52796f" opacity="0.50"/>
<circle cx="240" cy="1685" r="0.9" fill="#6a994e" opacity="0.22"/>
<circle cx="719" cy="2000" r="2.8" fill="#6a994e" opacity="0.40"/>
<circle cx="520" cy="1845" r="0.8" fill="#a7c957" opacity="0.35"/>
<line x1="756" y1="405" x2="749" y2="410" stroke="#f2e8cf" stroke-width="0.8" opacity="0.21"/>
<line x1="939" y1="266" x2="931" y2="267" stroke="#bc4749" stroke-width="1.5" opacity="0.34"/>
<line x1="784" y1="1526" x2="776" y2="1523" stroke="#52796f" stroke-width="1.1" opacity="0.48"/>
<line x1="1287" y1="41" x2="1286" y2="31" stroke="#386641" stroke-width="1.1" opacity="0.45"/>
<circle cx="1163" cy="1258" r="1.7" fill="#f2e8cf" opacity="0.45"/>
<line x1="919" y1="1851" x2="922" y2="1845" stroke="#a7c957" stroke-width="2.0" opacity="0.30"/>
<circle cx="659" cy="1690" r="2.7" fill="#f2e8cf" opacity="0.23"/>
<circle cx="1354" cy="1807" r="0.6" fill="#386641" opacity="0.57"/>
<line x1="943" y1="606" x2="942" y2="599" stroke="#f2e8cf" stroke-width="2.1" opacity="0.56"/>
<line x1="848" y1="1886" x2="849" y2="1885" stroke="#a7c957" stroke-width="1.0" opacity="0.46"/>
<circle cx="1248" cy="1285" r="2.7" fill="#f2e8cf" opacity="0.20"/>
<circle cx="1227" cy="480" r="2.1" fill="#6a994e" opacity="0.25"/>
<line x1="825" y1="0" x2="829" y2="5" stroke="#f2e8cf" stroke-width="2.0" opacity="0.32"/>
<line x1="381" y1="654" x2="377" y2="661" stroke="#bc4749" stroke-width="2.0" opacity="0.49"/>
<circle cx="1008" cy="1678" r="0.9" fill="#bc4749" opacity="0.44"/>
<circle cx="442" cy="879" r="2.3" fill="#f2e8cf" opacity="0.58"/>
<circle cx="25" cy="631" r="2.2" fill="#bc4749" opacity="0.43"/>
<circle cx="818" cy="1055" r="1.5" fill="#bc4749" opacity="0.21"/>
<line x1="776" y1="442" x2="782" y2="454" stroke="#386641" stroke-width="1.9" opacity="0.65"/>
<line x1="134" y1="81" x2="122" y2="74" stroke="#f2e8cf" stroke-width="1.6" opacity="0.51"/>
<circle cx="307" cy="666" r="1.2" fill="#bc4749" opacity="0.36"/>
<line x1="895" y1="175" x2="886" y2="186" stroke="#a7c957" stroke-width="0.8" opacity="0.52"/>
<circle cx="360" cy="243" r="2.2" fill="#386641" opacity="0.58"/>
<line x1="359" y1="1119" x2="369" y2="1124" stroke="#386641" stroke-width="1.4" opacity="0.35"/>
<line x1="180" y1="554" x2="171" y2="564" stroke="#bc4749" stroke-width="0.9" opacity="0.48"/>
<circle cx="664" cy="780" r="1.0" fill="#6a994e" opacity="0.49"/>
<line x1="805" y1="150" x2="805" y2="152" stroke="#f2e8cf" stroke-width="0.7" opacity="0.37"/>
<line x1="922" y1="1849" x2="930" y2="1855" stroke="#386641" stroke-width="0.8" opacity="0.46"/>
<line x1="1290" y1="1644" x2="1284" y2="1643" stroke="#386641" stroke-width="1.2" opacity="0.40"/>
<circle cx="1260" cy="1411" r="2.9" fill="#52796f" opacity="0.64"/>
<line x1="871" y1="783" x2="875" y2="787" stroke="#f2e8cf" stroke-width="1.9" opacity="0.49"/>
<circle cx="315" cy="682" r="2.8" fill="#bc4749" opacity="0.41"/>
<circle cx="676" cy="861" r="1.7" fill="#52796f" opacity="0.54"/>
<circle cx="850" cy="1694" r="1.6" fill="#386641" opacity="0.48"/>
<line x1="1149" y1="878" x2="1139" y2="880" stroke="#bc4749" stroke-width="2.0" opacity="0.63"/>
<line x1="1308" y1="1851" x2="1302" y2="1839" stroke="#bc4749" stroke-width="1.6" opacity="0.21"/>
<circle cx="1261" cy="678" r="1.7" fill="#bc4749" opacity="0.24"/>
<circle cx="1195" cy="502" r="2.1" fill="#bc4749" opacity="0.41"/>
<line x1="1347" y1="207" x2="1353" y2="198" stroke="#f2e8cf" stroke-width="1.2" opacity="0.41"/>
<circle cx="1123" cy="1531" r="1.9" fill="#6a994e" opacity="0.24"/>
<circle cx="992" cy="829" r="0.9" fill="#386641" opacity="0.34"/>
<circle cx="650" cy="1852" r="2.4" fill="#bc4749" opacity="0.45"/>
<line x1="834" y1="884" x2="844" y2="874" stroke="#a7c957" stroke-width="1.0" opacity="0.50"/>
<circle cx="595" cy="649" r="1.8" fill="#386641" opacity="0.42"/>
<circle cx="1092" cy="599" r="1.6" fill="#52796f" opacity="0.64"/>
<circle cx="151" cy="937" r="1.4" fill="#bc4749" opacity="0.35"/>
<line x1="594" y1="694" x2="598" y2="698" stroke="#a7c957" stroke-width="2.1" opacity="0.39"/>
<line x1="10" y1="490" x2="12" y2="499" stroke="#a7c957" stroke-width="0.7" opacity="0.62"/>
<line x1="464" y1="1430" x2="453" y2="1442" stroke="#6a994e" stroke-width="1.8" opacity="0.45"/>
<line x1="816" y1="1169" x2="825" y2="1169" stroke="#6a994e" stroke-width="1.6" opacity="0.53"/>
<circle cx="639" cy="614" r="1.2" fill="#6a994e" opacity="0.56"/>
<line x1="1009" y1="919" x2="1021" y2="929" stroke="#bc4749" stroke-width="1.6" opacity="0.43"/>
<circle cx="582" cy="1274" r="1.4" fill="#a7c957" opacity="0.60"/>
<line x1="317" y1="9" x2="329" y2="15" stroke="#52796f" stroke-width="1.8" opacity="0.30"/>
<circle cx="961" cy="838" r="1.9" fill="#6a994e" opacity="0.46"/>
<circle cx="1119" cy="491" r="2.4" fill="#6a994e" opacity="0.56"/>
<circle cx="130" cy="1653" r="1.7" fill="#386641" opacity="0.59"/>
<line x1="1293" y1="1781" x2="1288" y2="1785" stroke="#386641" stroke-width="1.6" opacity="0.27"/>
<circle cx="21" cy="1135" r="1.5" fill="#a7c957" opacity="0.34"/>
<line x1="1350" y1="1130" x2="1342" y2="1138" stroke="#f2e8cf" stroke-width="0.7" opacity="0.63"/>
<circle cx="32" cy="1931" r="1.3" fill="#386641" opacity="0.27"/>
<line x1="905" y1="328" x2="914" y2="316" stroke="#bc4749" stroke-width="1.2" opacity="0.50"/>
<line x1="489" y1="1341" x2="491" y2="1349" stroke="#386641" stroke-width="1.0" opacity="0.44"/>
<circle cx="272" cy="1759" r="2.7" fill="#6a994e" opacity="0.38"/>
<line x1="1258" y1="1420" x2="1254" y2="1423" stroke="#386641" stroke-width="1.9" opacity="0.22"/>
<circle cx="620" cy="1438" r="2.8" fill="#52796f" opacity="0.26"/>
<circle cx="56" cy="1589" r="1.6" fill="#f2e8cf" opacity="0.31"/>
<circle cx="88" cy="949" r="0.7" fill="#386641" opacity="0.61"/>
<circle cx="997" cy="140" r="1.5" fill="#386641" opacity="0.36"/>
<circle cx="733" cy="384" r="0.8" fill="#a7c957" opacity="0.35"/>
<line x1="1028" y1="1794" x2="1038" y2="1784" stroke="#386641" stroke-width="1.5" opacity="0.55"/>
<circle cx="476" cy="599" r="1.9" fill="#bc4749" opacity="0.64"/>
<line x1="1" y1="438" x2="-8" y2="434" stroke="#386641" stroke-width="0.7" opacity="0.20"/>
<line x1="812" y1="1750" x2="815" y2="1757" stroke="#52796f" stroke-width="1.5" opacity="0.36"/>
<circle cx="963" cy="1531" r="1.9" fill="#6a994e" opacity="0.47"/>
<line x1="61" y1="141" x2="67" y2="133" stroke="#386641" stroke-width="1.7" opacity="0.26"/>
<line x1="394" y1="986" x2="394" y2="989" stroke="#f2e8cf" stroke-width="0.8" opacity="0.49"/>
<line x1="14" y1="1957" x2="24" y2="1967" stroke="#386641" stroke-width="1.8" opacity="0.58"/>
<line x1="736" y1="239" x2="726" y2="235" stroke="#bc4749" stroke-width="1.6" opacity="0.64"/>
<circle cx="321" cy="1166" r="2.2" fill="#f2e8cf" opacity="0.44"/>
<line x1="1243" y1="451" x2="1243" y2="451" stroke="#6a994e" stroke-width="1.0" opacity="0.23"/>
<circle cx="300" cy="813" r="1.6" fill="#a7c957" opacity="0.63"/>
<line x1="1270" y1="697" x2="1273" y2="705" stroke="#52796f" stroke-width="1.9" opacity="0.25"/>
<circle cx="801" cy="1111" r="0.9" fill="#6a994e" opacity="0.38"/>
<circle cx="196" cy="173" r="1.4" fill="#386641" opacity="0.65"/>
<line x1="994" y1="58" x2="1000" y2="60" stroke="#a7c957" stroke-width="2.1" opacity="0.54"/>
<circle cx="1039" cy="1920" r="2.4" fill="#6a994e" opacity="0.66"/>
<circle cx="4" cy="368" r="2.6" fill="#a7c957" opacity="0.66"/>
<line x1="316" y1="1694" x2="313" y2="1693" stroke="#6a994e" stroke-width="1.3" opacity="0.28"/>
<circle cx="30" cy="1723" r="1.1" fill="#52796f" opacity="0.61"/>
<circle cx="969" cy="938" r="2.9" fill="#6a994e" opacity="0.49"/>
<line x1="966" y1="538" x2="967" y2="528" stroke="#52796f" stroke-width="2.1" opacity="0.34"/>
<line x1="814" y1="1555" x2="823" y2="1548" stroke="#f2e8cf" stroke-width="1.8" opacity="0.48"/>
<circle cx="1271" cy="809" r="2.9" fill="#52796f" opacity="0.49"/>
<line x1="1211" y1="662" x2="1205" y2="660" stroke="#386641" stroke-width="1.8" opacity="0.44"/>
<line x1="880" y1="640" x2="874" y2="630" stroke="#f2e8cf" stroke-width="2.1" opacity="0.23"/>
<line x1="1328" y1="1773" x2="1321" y2="1772" stroke="#bc4749" stroke-width="2.0" opacity="0.40"/>
<circle cx="416" cy="585" r="2.8" fill="#a7c957" opacity="0.28"/>
<line x1="1255" y1="972" x2="1251" y2="975" stroke="#a7c957" stroke-width="1.0" opacity="0.50"/>
<circle cx="1065" cy="146" r="2.8" fill="#52796f" opacity="0.62"/>
<circle cx="358" cy="1567" r="0.8" fill="#bc4749" opacity="0.60"/>
<line x1="199" y1="343" x2="188" y2="333" stroke="#52796f" stroke-width="0.6" opacity="0.36"/>
<circle cx="259" cy="255" r="1.4" fill="#386641" opacity="0.66"/>
<circle cx="999" cy="663" r="2.7" fill="#bc4749" opacity="0.43"/>
<circle cx="18" cy="700" r="2.4" fill="#f2e8cf" opacity="0.32"/>
<line x1="1158" y1="1703" x2="1155" y2="1705" stroke="#52796f" stroke-width="2.1" opacity="0.41"/>
<circle cx="542" cy="635" r="1.5" fill="#386641" opacity="0.32"/>
<line x1="881" y1="1024" x2="887" y2="1025" stroke="#bc4749" stroke-width="1.8" opacity="0.43"/>
<circle cx="165" cy="56" r="0.6" fill="#f2e8cf" opacity="0.21"/>
<line x1="1162" y1="1799" x2="1168" y2="1791" stroke="#52796f" stroke-width="1.6" opacity="0.44"/>
</svg>