<svg xmlns="http://www.w3.org/2000/svg" width="1500" height="2000" viewBox="0 0 1500 2000">
<rect width="1500" height="2000" fill="#1e2030"/>
<rect x="-18" y="495" width="821" height="433" fill="#3a3d58" opacity="0.35" transform="rotate(-28 393 711)"/>
<rect x="-278" y="945" width="623" height="477" fill="#494d6b" opacity="0.55" transform="rotate(7 33 1183)"/>
<rect x="-56" y="1188" width="1027" height="597" fill="#494d6b" opacity="0.62" transform="rotate(-7 457 1486)"/>
<rect x="207" y="67" width="339" height="1090" fill="#494d6b" opacity="0.25" transform="rotate(22 377 612)"/>
<rect x="653" y="650" width="834" height="674" fill="#494d6b" opacity="0.53" transform="rotate(24 1070 987)"/>
<rect x="432" y="-228" width="485" height="455" fill="#6c6f93" opacity="0.56" transform="rotate(-8 674 0)"/>
<rect x="-223" y="15" width="709" height="394" fill="#494d6b" opacity="0.36" transform="rotate(11 131 212)"/>
<path d="M 362 48 Q 619 -167 684 -172" stroke="#494d6b" stroke-width="9" stroke-linecap="round" fill="none" opacity="0.45"/>
<path d="M 763 1422 Q 656 1422 778 1204" stroke="#6c6f93" stroke-width="21" stroke-linecap="round" fill="none" opacity="0.79"/>
<path d="M 249 94 Q -39 465 -259 580" stroke="#7d81a8" stroke-width="15" stroke-linecap="round" fill="none" opacity="0.72"/>
<path d="M 183 1180 Q 268 1214 93 1074" stroke="#7d81a8" stroke-width="29" stroke-linecap="round" fill="none" opacity="0.37"/>
<path d="M 1025 277 Q 1415 516 1573 596" stroke="#7d81a8" stroke-width="16" stroke-linecap="round" fill="none" opacity="0.77"/>
<path d="M 1400 974 Q 1185 1019 1064 939" stroke="#3a3d58" stroke-width="23" stroke-linecap="round" fill="none" opacity="0.35"/>
<path d="M 1117 1732 Q 1206 1929 1361 1833" stroke="#494d6b" stroke-width="12" stroke-linecap="round" fill="none" opacity="0.75"/>
<path d="M 617 1085 Q 944 1030 1018 824" stroke="#3a3d58" stroke-width="32" stroke-linecap="round" fill="none" opacity="0.34"/>
<path d="M 213 1076 Q 233 893 320 953" stroke="#9c9ebf" stroke-width="13" stroke-linecap="round" fill="none" opacity="0.75"/>
<path d="M 944 1502 Q 1221 1498 1461 1385" stroke="#6c6f93" stroke-width="7" stroke-linecap="round" fill="none" opacity="0.79"/>
<circle cx="53" cy="593" r="28" fill="#d9dae8" opacity="0.38"/>
<circle cx="421" cy="1391" r="70" fill="#7d81a8" opacity="0.60"/>
<circle cx="1236" cy="77" r="178" fill="#d9dae8" opacity="0.69"/>
<circle cx="437" cy="1745" r="3.0" fill="#d9dae8" opacity="0.65"/>
<circle cx="754" cy="1902" r="1.2" fill="#6c6f93" opacity="0.68"/>
<line x1="1419" y1="1878" x2="1427" y2="1867" stroke="#7d81a8" stroke-width="0.8" opacity="0.29"/>
<circle cx="873" cy="689" r="0.8" fill="#7d81a8" opacity="0.57"/>
<line x1="696" y1="1172" x2="689" y2="1178" stroke="#d9dae8" stroke-width="1.1" opacity="0.38"/>
<line x1="283" y1="869" x2="272" y2="878" stroke="#d9dae8" stroke-width="0.9" opacity="0.37"/>
<circle cx="445" cy="41" r="2.5" fill="#6c6f93" opacity="0.34"/>
<line x1="237" y1="1356" x2="242" y2="1367" stroke="#494d6b" stroke-width="1.6" opacity="0.30"/>
<circle cx="985" cy="924" r="2.1" fill="#3a3d58" opacity="0.23"/>
<line x1="1078" y1="825" x2="1081" y2="825" stroke="#7d81a8" stroke-width="1.0" opacity="0.26"/>
<line x1="244" y1="413" x2="247" y2="416" stroke="#9c9ebf" stroke-width="1.9" opacity="0.63"/>
<line x1="798" y1="1235" x2="788" y2="1238" stroke="#494d6b" stroke-width="1.8" opacity="0.65"/>
<line x1="389" y1="407" x2="398" y2="418" stroke="#9c9ebf" stroke-width="1.1" opacity="0.58"/>
<circle cx="391" cy="1049" r="2.6" fill="#9c9ebf" opacity="0.59"/>
<circle cx="1168" cy="653" r="1.0" fill="#9c9ebf" opacity="0.58"/>
<circle cx="0" cy="1247" r="2.4" fill="#3a3d58" opacity="0.34"/>
<circle cx="1023" cy="1055" r="1.7" fill="#7d81a8" opacity="0.36"/>
<line x1="1097" y1="1605" x2="1089" y2="1608" stroke="#6c6f93" stroke-width="1.4" opacity="0.36"/>
<circle cx="1382" cy="186" r="2.9" fill="#494d6b" opacity="0.23"/>
<line x1="784" y1="1749" x2="778" y2="1746" stroke="#3a3d58" stroke-width="1.6" opacity="0.37"/>
<line x1="43" y1="29" x2="51" y2="20" stroke="#494d6b" stroke-width="1.3" opacity="0.21"/>
<line x1="1033" y1="1255" x2="1031" y2="1247" stroke="#d9dae8" stroke-width="1.7" opacity="0.42"/>
<line x1="537" y1="1797" x2="537" y2="1806" stroke="#3a3d58" stroke-width="1.7" opacity="0.21"/>
<line x1="1346" y1="70" x2="1355" y2="70" stroke="#7d81a8" stroke-width="0.8" opacity="0.23"/>
<circle cx="457" cy="41" r="2.8" fill="#3a3d58" opacity="0.49"/>
<circle cx="1346" cy="1026" r="1.6" fill="#3a3d58" opacity="0.26"/>
<line x1="884" y1="23" x2="876" y2="21" stroke="#6c6f93" stroke-width="0.9" opacity="0.31"/>
<circle cx="868" cy="1849" r="1.3" fill="#9c9ebf" opacity="0.24"/>
<circle cx="719" cy="498" r="2.1" fill="#3a3d58" opacity="0.22"/>
<line x1="380" y1="1232" x2="379" y2="1224" stroke="#3a3d58" stroke-width="1.5" opacity="0.24"/>
<circle cx="985" cy="494" r="2.0" fill="#7d81a8" opacity="0.28"/>
<line x1="268" y1="894" x2="278" y2="892" stroke="#494d6b" stroke-width="1.7" opacity="0.45"/>
<line x1="80" y1="5" x2="75" y2="-2" stroke="#494d6b" stroke-width="1.4" opacity="0.61"/>
<line x1="143" y1="1023" x2="135" y2="1026" stroke="#9c9ebf" stroke-width="1.9" opacity="0.25"/>
<line x1="248" y1="483" x2="251" y2="472" stroke="#494d6b" stroke-width="0.8" opacity="0.32"/>
<circle cx="472" cy="277" r="1.9" fill="#3a3d58" opacity="0.50"/>
<line x1="389" y1="1627" x2="390" y2="1616" stroke="#7d81a8" stroke-width="0.9" opacity="0.55"/>
<circle cx="1204" cy="1402" r="2.0" fill="#9c9ebf" opacity="0.45"/>
<line x1="1156" y1="1649" x2="1161" y2="1648" stroke="#7d81a8" stroke-width="0.9" opacity="0.26"/>
<circle cx="1256" cy="1358" r="2.5" fill="#6c6f93" opacity="0.25"/>
<line x1="1024" y1="1277" x2="1035" y2="1271" stroke="#9c9ebf" stroke-width="1.6" opacity="0.58"/>
<line x1="909" y1="768" x2="906" y2="758" stroke="#9c9ebf" stroke-width="1.3" opacity="0.34"/>
<circle cx="746" cy="31" r="0.7" fill="#d9dae8" opacity="0.49"/>
<circle cx="170" cy="648" r="1.3" fill="#494d6b" opacity="0.66"/>
<circle cx="643" cy="941" r="0.6" fill="#9c9ebf" opacity="0.22"/>
<circle cx="383" cy="193" r="1.1" fill="#9c9ebf" opacity="0.24"/>
<circle cx="1496" cy="1863" r="1.9" fill="#7d81a8" opacity="0.45"/>
<circle cx="1428" cy="1113" r="2.1" fill="#9c9ebf" opacity="0.42"/>
<line x1="976" y1="876" x2="969" y2="864" stroke="#3a3d58" stroke-width="2.0" opacity="0.23"/>
<line x1="99" y1="510" x2="99" y2="512" stroke="#6c6f93" stroke-width="1.3" opacity="0.34"/>
<line x1="304" y1="594" x2="314" y2="585" stroke="#7d81a8" stroke-width="1.8" opacity="0.47"/>
<circle cx="37" cy="1937" r="0.9" fill="#7d81a8" opacity="0.56"/>
<line x1="544" y1="1085" x2="551" y2="1073" stroke="#3a3d58" stroke-width="1.3" opacity="0.25"/>
<line x1="1435" y1="44" x2="1433" y2="33" stroke="#494d6b" stroke-width="1.0" opacity="0.63"/>
<circle cx="399" cy="1917" r="2.8" fill="#494d6b" opacity="0.35"/>
<line x1="1359" y1="1493" x2="1360" y2="1497" stroke="#7d81a8" stroke-width="1.7" opacity="0.50"/>
<circle cx="1170" cy="498" r="0.7" fill="#7d81a8" opacity="0.62"/>
<circle cx="552" cy="271" r="2.9" fill="#3a3d58" opacity="0.35"/>
<line x1="880" y1="846" x2="892" y2="835" stroke="#3a3d58" stroke-width="1.5" opacity="0.43"/>
<line x1="662" y1="1827" x2="668" y2="1825" stroke="#3a3d58" stroke-width="1.3" opacity="0.62"/>
<circle cx="506" cy="1347" r="2.5" fill="#7d81a8" opacity="0.52"/>
<circle cx="981" cy="1588" r="2.2" fill="#9c9ebf" opacity="0.43"/>
<line x1="148" y1="1896" x2="138" y2="1907" stroke="#494d6b" stroke-width="2.0" opacity="0.48"/>
<line x1="109" y1="1377" x2="113" y2="1368" stroke="#7d81a8" stroke-width="1.0" opacity="0.65"/>
<circle cx="1117" cy="681" r="0.6" fill="#7d81a8" opacity="0.68"/>
<circle cx="26" cy="1928" r="2.7" fill="#d9dae8" opacity="0.56"/>
<circle cx="947" cy="111" r="2.8" fill="#494d6b" opacity="0.56"/>
<line x1="96" y1="341" x2="95" y2="344" stroke="#494d6b" stroke-width="0.7" opacity="0.23"/>
<circle cx="637" cy="240" r="1.9" fill="#3a3d58" opacity="0.33"/>
<circle cx="138" cy="1843" r="2.3" fill="#6c6f93" opacity="0.55"/>
<line x1="1156" y1="1018" x2="1153" y2="1015" stroke="#7d81a8" stroke-width="1.5" opacity="0.44"/>
<line x1="1372" y1="197" x2="1383" y2="189" stroke="#494d6b" stroke-width="0.8" opacity="0.57"/>
<circle cx="197" cy="965" r="2.8" fill="#6c6f93" opacity="0.63"/>
<circle cx="56" cy="1503" r="0.8" fill="#3a3d58" opacity="0.66"/>
<circle cx="1113" cy="939" r="0.8" fill="#7d81a8" opacity="0.54"/>
<circle cx="414" cy="348" r="2.3" fill="#3a3d58" opacity="0.43"/>
<line x1="375" y1="147" x2="370" y2="157" stroke="#3a3d58" stroke-width="1.3" opacity="0.55"/>
<line x1="1454" y1="1396" x2="1461" y2="1407" stroke="#7d81a8" stroke-width="1.4" opacity="0.47"/>
<line x1="413" y1="1048" x2="419" y2="1042" stroke="#d9dae8" stroke-width="1.4" opacity="0.44"/>
<line x1="1227" y1="1232" x2="1234" y2="1227" stroke="#9c9ebf" stroke-width="2.1" opacity="0.59"/>
<circle cx="1065" cy="497" r="1.7" fill="#d9dae8" opacity="0.22"/>
<circle cx="1477" cy="291" r="2.0" fill="#7d81a8" opacity="0.51"/>
<line x1="1430" y1="1184" x2="1436" y2="1186" stroke="#7d81a8" stroke-width="1.1" opacity="0.62"/>
<circle cx="1416" cy="1271" r="2.5" fill="#3a3d58" opacity="0.37"/>
<line x1="541" y1="387" x2="542" y2="391" stroke="#d9dae8" stroke-width="1.5" opacity="0.39"/>
<line x1="1210" y1="403" x2="1205" y2="400" stroke="#494d6b" stroke-width="1.5" opacity="0.58"/>
<circle cx="1147" cy="1933" r="0.9" fill="#9c9ebf" opacity="0.59"/>
<circle cx="1295" cy="1825" r="2.7" fill="#494d6b" opacity="0.34"/>
<circle cx="1009" cy="1732" r="2.4" fill="#9c9ebf" opacity="0.68"/>
<circle cx="328" cy="1571" r="1.6" fill="#7d81a8" opacity="0.61"/>
<circle cx="229" cy="406" r="1.9" fill="#d9dae8" opacity="0.61"/>
<line x1="1412" y1="182" x2="1422" y2="187" stroke="#494d6b" stroke-width="2.1" opacity="0.59"/>
<circle cx="888" cy="1562" r="0.8" fill="#9c9ebf" opacity="0.45"/>
<line x1="1310" y1="1980" x2="1315" y2="1985" stroke="#494d6b" stroke-width="2.1" opacity="0.64"/>
<circle cx="1336" cy="1083" r="0.7" fill="#d9dae8" opacity="0.31"/>
<line x1="399" y1="862" x2="390" y2="869" stroke="#7d81a8" stroke-width="1.4" opacity="0.62"/>
<line x1="1133" y1="1881" x2="1122" y2="1873" stroke="#494d6b" stroke-width="2.2" opacity="0.23"/>
<line x1="580" y1="150" x2="584" y2="152" stroke="#3a3d58" stroke-width="0.9" opacity="0.34"/>
<line x1="627" y1="53" x2="620" y2="48" stroke="#494d6b" stroke-width="1.5" opacity="0.21"/>
<circle cx="1494" cy="484" r="2.7" fill="#494d6b" opacity="0.44"/>
<line x1="658" y1="387" x2="662" y2="392" stroke="#494d6b" stroke-width="2.0" opacity="0.45"/>
<circle cx="471" cy="693" r="1.4" fill="#494d6b" opacity="0.57"/>
<circle cx="343" cy="1491" r="1.9" fill="#7d81a8" opacity="0.22"/>
<circle cx="411" cy="481" r="0.9" fill="#d9dae8" opacity="0.38"/>
<circle cx="1377" cy="1841" r="1.1" fill="#494d6b" opacity="0.34"/>
<circle cx="26" cy="486" r="0.6" fill="#494d6b" opacity="0.48"/>
<line x1="126" y1="1387" x2="125" y2="1385" stroke="#6c6f93" stroke-width="1.2" opacity="0.30"/>
<circle cx="1156" cy="1875" r="1.6" fill="#6c6f93" opacity="0.33"/>
<circle cx="788" cy="815" r="1.0" fill="#6c6f93" opacity="0.23"/>
<line x1="757" y1="88" x2="760" y2="96" stroke="#9c9ebf" stroke-width="0.9" opacity="0.29"/>
<line x1="1032" y1="246" x2="1038" y2="235" stroke="#494d6b" stroke-width="2.1" opacity="0.61"/>
<line x1="1442" y1="1209" x2="1440" y2="1209" stroke="#3a3d58" stroke-width="0.7" opacity="0.22"/>
<line x1="613" y1="82" x2="604" y2="78" stroke="#6c6f93" stroke-width="1.0" opacity="0.60"/>
<circle cx="647" cy="1659" r="2.4" fill="#9c9ebf" opacity="0.68"/>
<line x1="683" y1="1351" x2="675" y2="1350" stroke="#3a3d58" stroke-width="2.0" opacity="0.22"/>
<circle cx="95" cy="595" r="1.9" fill="#3a3d58" opacity="0.66"/>
<line x1="320" y1="981" x2="310" y2="983" stroke="#7d81a8" stroke-width="1.6" opacity="0.47"/>
<circle cx="305" cy="86" r="2.3" fill="#d9dae8" opacity="0.27"/>
<line x1="957" y1="1101" x2="965" y2="1111" stroke="#3a3d58" stroke-width="1.6" opacity="0.41"/>
<line x1="936" y1="844" x2="944" y2="843" stroke="#6c6f93" stroke-width="1.6" opacity="0.23"/>
<circle cx="34" cy="1147" r="1.2" fill="#494d6b" opacity="0.56"/>
<circle cx="1318" cy="947" r="2.6" fill="#7d81a8" opacity="0.36"/>
<circle cx="625" cy="681" r="1.7" fill="#494d6b" opacity="0.35"/>
<circle cx="967" cy="1966" r="1.3" fill="#d9dae8" opacity="0.44"/>
<line x1="400" y1="698" x2="398" y2="692" stroke="#6c6f93" stroke-width="1.3" opacity="0.52"/>
<line x1="1090" y1="1009" x2="1081" y2="1018" stroke="#d9dae8" stroke-width="0.8" opacity="0.46"/>
<circle cx="1415" cy="1045" r="1.8" fill="#6c6f93" opacity="0.52"/>
<circle cx="74" cy="1901" r="1.7" fill="#494d6b" opacity="0.22"/>
<circle cx="1049" cy="477" r="2.7" fill="#494d6b" opacity="0.66"/>
<line x1="528" y1="107" x2="539" y2="110" stroke="#3a3d58" stroke-width="1.0" opacity="0.24"/>
<circle cx="608" cy="1970" r="2.5" fill="#7d81a8" opacity="0.26"/>
<line x1="383" y1="420" x2="376" y2="410" stroke="#9c9ebf" stroke-width="0.8" opacity="0.37"/>
<circle cx="1135" cy="1681" r="2.2" fill="#494d6b" opacity="0.38"/>
<circle cx="552" cy="642" r="1.2" fill="#494d6b" opacity="0.41"/>
<line x1="1356" y1="139" x2="1365" y2="137" stroke="#7d81a8" stroke-width="1.5" opacity="0.51"/>
<circle cx="544" cy="161" r="1.1" fill="#d9dae8" opacity="0.28"/>
<line x1="809" y1="1386" x2="814" y2="1374" stroke="#6c6f93" stroke-width="2.0" opacity="0.39"/>
<line x1="395" y1="691" x2="404" y2="683" stroke="#3a3d58" stroke-width="1.7" opacity="0.33"/>
<circle cx="1442" cy="1092" r="1.0" fill="#7d81a8" opacity="0.58"/>
<circle cx="248" cy="75" r="2.9" fill="#6c6f93" opacity="0.54"/>
<circle cx="165" cy="2" r="1.6" fill="#6c6f93" opacity="0.37"/>
<line x1="850" y1="519" x2="847" y2="507" stroke="#d9dae8" stroke-width="1.3" opacity="0.44"/>
<line x1="1327" y1="947" x2="1321" y2="958" stroke="#3a3d58" stroke-width="0.7" opacity="0.60"/>
<circle cx="894" cy="1782" r="1.7" fill="#494d6b" opacity="0.45"/>
<circle cx="1360" cy="720" r="1.3" fill="#6c6f93" opacity="0.65"/>
<circle cx="53" cy="1536" r="0.8" fill="#d9dae8" opacity="0.23"/>
<circle cx="1229" cy="1431" r="2.2" fill="#6c6f93" opacity="0.45"/>
<line x1="1258" y1="799" x2="1268" y2="793" stroke="#7d81a8" stroke-width="0.9" opacity="0.33"/>
<line x1="1472" y1="1902" x2="1478" y2="1905" stroke="#3a3d58" stroke-width="1.4" opacity="0.39"/>
<line x1="91" y1="381" x2="89" y2="382" stroke="#3a3d58" stroke-width="1.4" opacity="0.27"/>
<circle cx="496" cy="42" r="1.9" fill="#494d6b" opacity="0.56"/>
<line x1="570" y1="914" x2="568" y2="906" stroke="#494d6b" stroke-width="1.2" opacity="0.22"/>
<circle cx="366" cy="1912" r="0.7" fill="#6c6f93" opacity="0.22"/>
<circle cx="168" cy="1171" r="1.8" fill="#3a3d58" opacity="0.25"/>
<line x1="1179" y1="221" x2="1188" y2="219" stroke="#6c6f93" stroke-width="0.6" opacity="0.24"/>
<line x1="71" y1="1556" x2="77" y2="1553" stroke="#9c9ebf" stroke-width="1.5" opacity="0.53"/>
<line x1="122" y1="532" x2="115" y2="542" stroke="#d9dae8" stroke-width="1.9" opacity="0.57"/>
<line x1="332" y1="758" x2="341" y2="758" stroke="#7d81a8" stroke-width="1.7" opacity="0.33"/>
<circle cx="64" cy="1652" r="0.6" fill="#9c9ebf" opacity="0.44"/>
<circle cx="248" cy="510" r="0.9" fill="#d9dae8" opacity="0.26"/>
<circle cx="1416" cy="987" r="1.1" fill="#494d6b" opacity="0.69"/>
<circle cx="330" cy="124" r="2.9" fill="#3a3d58" opacity="0.23"/>
<circle cx="489" cy="962" r="2.9" fill="#494d6b" opacity="0.57"/>
<line x1="1236" y1="1089" x2="1235" y2="1085" stroke="#494d6b" stroke-width="0.8" opacity="0.30"/>
<line x1="475" y1="935" x2="482" y2="944" stroke="#9c9ebf" stroke-width="1.2" opacity="0.38"/>
<circle cx="25" cy="122" r="0.6" fill="#3a3d58" opacity="0.26"/>
<line x1="299" y1="1369" x2="298" y2="1363" stroke="#3a3d58" stroke-width="0.9" opacity="0.31"/>
<line x1="1067" y1="253" x2="1059" y2="255" stroke="#494d6b" stroke-width="1.2" opacity="0.61"/>
<circle cx="1194" cy="713" r="2.4" fill="#494d6b" opacity="0.55"/>
<circle cx="150" cy="1233" r="2.9" fill="#494d6b" opacity="0.28"/>
<circle cx="295" cy="447" r="2.1" fill="#494d6b" opacity="0.44"/>
<line x1="757" y1="1592" x2="767" y2="1585" stroke="#d9dae8" stroke-width="1.8" opacity="0.64"/>
<line x1="1187" y1="55" x2="1196" y2="51" stroke="#3a3d58" stroke-width="2.0" opacity="0.24"/>
<circle cx="278" cy="104" r="1.6" fill="#7d81a8" opacity="0.59"/>
<line x1="379" y1="1588" x2="386" y2="1587" stroke="#d9dae8" stroke-width="1.0" opacity="0.50"/>
<circle cx="499" cy="1085" r="2.6" fill="#3a3d58" opacity="0.63"/>
<line x1="454" y1="1813" x2="445" y2="1806" stroke="#9c9ebf" stroke-width="0.8" opacity="0.26"/>
<line x1="563" y1="1258" x2="553" y2="1255" stroke="#9c9ebf" stroke-width="1.8" opacity="0.25"/>
<circle cx="985" cy="750" r="1.6" fill="#7d81a8" opacity="0.61"/>
<circle cx="61" cy="803" r="3.0" fill="#9c9ebf" opacity="0.41"/>
<line x1="292" y1="684" x2="298" y2="684" stroke="#d9dae8" stroke-width="2.2" opacity="0.35"/>
<line x1="1285" y1="300" x2="1283" y2="298" stroke="#3a3d58" stroke-width="1.5" opacity="0.33"/>
<line x1="779" y1="1991" x2="782" y2="1993" stroke="#494d6b" stroke-width="0.7" opacity="0.34"/>
<line x1="973" y1="1213" x2="981" y2="1209" stroke="#6c6f93" stroke-width="2.1" opacity="0.23"/>
<line x1="307" y1="265" x2="305" y2="257" stroke="#6c6f93" stroke-width="1.9" opacity="0.29"/>
<line x1="795" y1="1296" x2="791" y2="1287" stroke="#d9dae8" stroke-width="1.6" opacity="0.28"/>
<line x1="818" y1="1429" x2="815" y2="1428" stroke="#3a3d58" stroke-width="1.7" opacity="0.53"/>
<line x1="390" y1="19" x2="386" y2="21" stroke="#d9dae8" stroke-width="0.9" opacity="0.57"/>
<circle cx="889" cy="32" r="1.8" fill="#7d81a8" opacity="0.50"/>
<line x1="502" y1="410" x2="508" y2="415" stroke="#d9dae8" stroke-width="1.0" opacity="0.50"/>
<circle cx="192" cy="990" r="2.3" fill="#3a3d58" opacity="0.46"/>
<circle cx="727" cy="1598" r="2.8" fill="#6c6f93" opacity="0.41"/>
<line x1="206" y1="1139" x2="198" y2="1145" stroke="#9c9ebf" stroke-width="1.7" opacity="0.57"/>
<line x1="865" y1="300" x2="873" y2="311" stroke="#3a3d58" stroke-width="1.7" opacity="0.61"/>
<circle cx="1378" cy="300" r="1.3" fill="#494d6b" opacity="0.42"/>
<line x1="549" y1="16" x2="556" y2="4" stroke="#d9dae8" stroke-width="1.1" opacity="0.62"/>
<line x1="449" y1="1507" x2="442" y2="1508" stroke="#7d81a8" stroke-width="2.0" opacity="0.24"/>
<line x1="1171" y1="797" x2="1162" y2="792" stroke="#6c6f93" stroke-width="1.6" opacity="0.30"/>
<circle cx="729" cy="11" r="0.6" fill="#3a3d58" opacity="0.39"/>
<circle cx="1244" cy="1201" r="2.5" fill="#3a3d58" opacity="0.51"/>
<line x1="1269" y1="1562" x2="1276" y2="1553" stroke="#9c9ebf" stroke-width="2.1" opacity="0.23"/>
<line x1="411" y1="1080" x2="404" y2="1078" stroke="#d9dae8" stroke-width="0.7" opacity="0.64"/>
<line x1="1326" y1="1044" x2="1330" y2="1055" stroke="#9c9ebf" stroke-width="2.2" opacity="0.37"/>
<circle cx="754" cy="1411" r="2.8" fill="#7d81a8" opacity="0.25"/>
<circle cx="177" cy="1946" r="1.8" fill="#d9dae8" opacity="0.37"/>
<circle cx="1185" cy="709" r="1.1" fill="#7d81a8" opacity="0.33"/>
<circle cx="267" cy="1610" r="1.4" fill="#6c6f93" opacity="0.58"/>
<circle cx="932" cy="1044" r="1.2" fill="#3a3d58" opacity="0.30"/>
<circle cx="88" cy="1131" r="2.5" fill="#6c6f93" opacity="0.59"/>
<line x1="28" y1="286" x2="29" y2="298" stroke="#494d6b" stroke-width="2.0" opacity="0.37"/>
<circle cx="1324" cy="26" r="2.5" fill="#7d81a8" opacity="0.34"/>
<circle cx="1212" cy="201" r="1.6" fill="#494d6b" opacity="0.30"/>
<line x1="1256" y1="831" x2="1265" y2="821" stroke="#3a3d58" stroke-width="1.9" opacity="0.22"/>
<line x1="688" y1="1916" x2="698" y2="1911" stroke="#494d6b" stroke-width="1.1" opacity="0.50"/>
<line x1="709" y1="1766" x2="711" y2="1769" stroke="#9c9ebf" stroke-width="0.8" opacity="0.21"/>
<circle cx="1023" cy="1083" r="2.6" fill="#494d6b" opacity="0.63"/>
<circle cx="794" cy="1379" r="2.1" fill="#7d81a8" opacity="0.42"/>
<circle cx="940" cy="1988" r="1.6" fill="#7d81a8" opacity="0.31"/>
<circle cx="1455" cy="903" r="2.8" fill="#3a3d58" opacity="0.33"/>
<circle cx="798" cy="1716" r="1.6" fill="#7d81a8" opacity="0.64"/>
<circle cx="407" cy="816" r="2.3" fill="#7d81a8" opacity="0.22"/>
<line x1="1359" y1="1015" x2="1354" y2="1018" stroke="#7d81a8" stroke-width="1.0" opacity="0.49"/>
<circle cx="1200" cy="976" r="1.6" fill="#7d81a8" opacity="0.40"/>
<circle cx="734" cy="1868" r="0.7" fill="#d9dae8" opacity="0.67"/>
<circle cx="852" cy="79" r="1.5" fill="#494d6b" opacity="0.48"/>
<circle cx="1213" cy="948" r="1.3" fill="#d9dae8" opacity="0.31"/>
<circle cx="998" cy="667" r="2.0" fill="#d9dae8" opacity="0.22"/>
<line x1="1029" y1="339" x2="1022" y2="333" stroke="#7d81a8" stroke-width="1.7" opacity="0.25"/>
<circle cx="277" cy="553" r="1.9" fill="#d9dae8" opacity="0.67"/>
<circle cx="456" cy="1535" r="2.5" fill="#494d6b" opacity="0.67"/>
<circle cx="906" cy="1868" r="1.7" fill="#494d6b" opacity="0.33"/>
<circle cx="465" cy="574" r="2.8" fill="#9c9ebf" opacity="0.41"/>
<circle cx="349" cy="1013" r="2.3" fill="#6c6f93" opacity="0.20"/>
<line x1="406" y1="1366" x2="413" y2="1362" stroke="#d9dae8" stroke-width="2.0" opacity="0.26"/>
<line x1="1187" y1="1295" x2="1196" y2="1295" stroke="#494d6b" stroke-width="1.0" opacity="0.49"/>
<circle cx="801" cy="350" r="1.6" fill="#7d81a8" opacity="0.37"/>
<circle cx="588" cy="573" r="1.8" fill="#9c9ebf" opacity="0.24"/>
<circle cx="288" cy="1995" r="2.5" fill="#9c9ebf" opacity="0.32"/>
<line x1="145" y1="344" x2="147" y2="344" stroke="#494d6b" stroke-width="1.3" opacity="0.45"/>
<circle cx="730" cy="1438" r="1.5" fill="#7d81a8" opacity="0.48"/>
<circle cx="95" cy="477" r="1.3" fill="#9c9ebf" opacity="0.44"/>
<line x1="1394" y1="421" x2="1405" y2="415" stroke="#6c6f93" stroke-width="2.0" opacity="0.49"/>
<circle cx="1281" cy="1228" r="2.2" fill="#3a3d58" opacity="0.46"/>
<line x1="1079" y1="1304" x2="1085" y2="1313" stroke="#d9dae8" stroke-width="0.8" opacity="0.36"/>
<line x1="817" y1="74" x2="825" y2="64" stroke="#494d6b" stroke-width="0.7" opacity="0.62"/>
<circle cx="1467" cy="1393" r="2.8" fill="#7d81a8" opacity="0.67"/>
<line x1="248" y1="100" x2="252" y2="107" stroke="#7d81a8" stroke-width="1.2" opacity="0.47"/>
<line x1="326" y1="605" x2="315" y2="604" stroke="#494d6b" stroke-width="0.9" opacity="0.31"/>
<circle cx="1309" cy="1337" r="2.0" fill="#6c6f93" opacity="0.58"/>
<circle cx="1153" cy="366" r="2.5" fill="#7d81a8" opacity="0.21"/>
<circle cx="1468" cy="650" r="2.1" fill="#494d6b" opacity="0.57"/>
<line x1="359" y1="1486" x2="353" y2="1498" stroke="#9c9ebf" stroke-width="1.0" opacity="0.38"/>
<circle cx="951" cy="65" r="2.1" fill="#3a3d58" opacity="0.25"/>
<circle cx="873" cy="865" r="0.9" fill="#494d6b" opacity="0.55"/>
<line x1="199" y1="784" x2="203" y2="787" stroke="#9c9ebf" stroke-width="1.4" opacity="0.60"/>
<circle cx="556" cy="1208" r="1.1" fill="#494d6b" opacity="0.65"/>
<line x1="1154" y1="781" x2="1153" y2="776" stroke="#494d6b" stroke-width="2.0" opacity="0.62"/>
<circle cx="1287" cy="547" r="0.9" fill="#d9dae8" opacity="0.36"/>
<line x1="1483" y1="565" x2="1476" y2="553" stroke="#d9dae8" stroke-width="0.7" opacity="0.55"/>
<line x1="599" y1="276" x2="605" y2="274" stroke="#3a3d58" stroke-width="1.6" opacity="0.37"/>
<line x1="275" y1="1548" x2="268" y2="1542" stroke="#9c9ebf" stroke-width="2.0" opacity="0.65"/>
<line x1="891" y1="137" x2="899" y2="142" stroke="#d9dae8" stroke-width="1.7" opacity="0.61"/>
<line x1="895" y1="282" x2="884" y2="271" stroke="#9c9ebf" stroke-width="0.9" opacity="0.52"/>
<line x1="1040" y1="79" x2="1046" y2="72" stroke="#7d81a8" stroke-width="1.1" opacity="0.63"/>
<circle cx="82" cy="991" r="2.2" fill="#3a3d58" opacity="0.33"/>
<line x1="582" y1="358" x2="588" y2="353" stroke="#d9dae8" stroke-width="1.4" opacity="0.52"/>
<line x1="68" y1="1252" x2="64" y2="1247" stroke="#7d81a8" stroke-width="1.9" opacity="0.21"/>
<circle cx="1112" cy="945" r="1.3" fill="#3a3d58" opacity="0.35"/>
<circle cx="1417" cy="1530" r="2.1" fill="#7d81a8" opacity="0.56"/>
<circle cx="84" cy="1924" r="1.3" fill="#6c6f93" opacity="0.24"/>
<line x1="556" y1="554" x2="559" y2="547" stroke="#9c9ebf" stroke-width="1.3" opacity="0.58"/>
<circle cx="287" cy="164" r="2.8" fill="#d9dae8" opacity="0.55"/>
<circle cx="430" cy="859" r="2.8" fill="#6c6f93" opacity="0.42"/>
<circle cx="371" cy="1442" r="2.8" fill="#6c6f93" opacity="0.49"/>
<line x1="1043" y1="750" x2="1051" y2="755" stroke="#d9dae8" stroke-width="0.9" opacity="0.22"/>
<line x1="823" y1="1035" x2="831" y2="1045" stroke="#3a3d58" stroke-width="0.8" opacity="0.65"/>
<circle cx="250" cy="150" r="1.3" fill="#9c9ebf" opacity="0.38"/>
<line x1="1092" y1="263" x2="1101" y2="251" stroke="#3a3d58" stroke-width="0.8" opacity="0.31"/>
<circle cx="867" cy="1581" r="1.4" fill="#6c6f93" opacity="0.62"/>
<line x1="237" y1="1374" x2="235" y2="1364" stroke="#d9dae8" stroke-width="2.1" opacity="0.63"/>
<line x1="212" y1="1129" x2="206" y2="1119" stroke="#3a3d58" stroke-width="1.2" opacity="0.38"/>
<circle cx="871" cy="827" r="3.0" fill="#7d81a8" opacity="0.21"/>
<line x1="810" y1="1725" x2="821" y2="1729" stroke="#d9dae8" stroke-width="1.8" opacity="0.39"/>
<line x1="515" y1="222" x2="508" y2="216" stroke="#3a3d58" stroke-width="1.8" opacity="0.53"/>
<circle cx="1359" cy="903" r="1.1" fill="#3a3d58" opacity="0.50"/>
<circle cx="809" cy="277" r="1.7" fill="#6c6f93" opacity="0.28"/>
<circle cx="445" cy="1336" r="2.6" fill="#9c9ebf" opacity="0.50"/>
<circle cx="467" cy="508" r="1.8" fill="#6c6f93" opacity="0.37"/>
<line x1="383" y1="393" x2="374" y2="398" stroke="#d9dae8" stroke-width="2.1" opacity="0.44"/>
<circle cx="1287" cy="159" r="2.2" fill="#7d81a8" opacity="0.32"/>
<line x1="732" y1="1918" x2="734" y2="1907" stroke="#d9dae8" stroke-width="0.8" opacity="0.34"/>
<circle cx="806" cy="1790" r="2.0" fill="#494d6b" opacity="0.32"/>
<line x1="867" y1="1863" x2="877" y2="1868" stroke="#9c9ebf" stroke-width="1.3" opacity="0.54"/>
<circle cx="48" cy="149" r="1.0" fill="#494d6b" opacity="0.65"/>
<circle cx="1258" cy="1304" r="2.7" fill="#d9dae8" opacity="0.61"/>
<circle cx="317" cy="1641" r="2.6" fill="#7d81a8" opacity="0.24"/>
<line x1="835" y1="1076" x2="842" y2="1080" stroke="#7d81a8" stroke-width="2.2" opacity="0.46"/>
<circle cx="1169" cy="487" r="2.4" fill="#d9dae8" opacity="0.66"/>
<line x1="80" y1="1708" x2="81" y2="1702" stroke="#6c6f93" stroke-width="2.1" opacity="0.61"/>
<circle cx="182" cy="1573" r="1.9" fill="#494d6b" opacity="0.59"/>
<line x1="1241" y1="1691" x2="1234" y2="1700" stroke="#d9dae8" stroke-width="1.0" opacity="0.38"/>
<circle cx="50" cy="255" r="2.2" fill="#494d6b" opacity="0.38"/>
<line x1="1020" y1="323" x2="1026" y2="327" stroke="#6c6f93" stroke-width="1.7" opacity="0.21"/>
<circle cx="444" cy="1412" r="0.6" fill="#494d6b" opacity="0.56"/>
<circle cx="30" cy="193" r="2.9" fill="#d9dae8" opacity="0.52"/>
<circle cx="426" cy="1685" r="2.5" fill="#d9dae8" opacity="0.65"/>
<line x1="688" y1="1388" x2="700" y2="1399" stroke="#d9dae8" stroke-width="2.0" opacity="0.28"/>
<line x1="276" y1="1727" x2="286" y2="1737" stroke="#7d81a8" stroke-width="1.5" opacity="0.26"/>
<line x1="1215" y1="868" x2="1226" y2="859" stroke="#d9dae8" stroke-width="1.9" opacity="0.48"/>
<circle cx="644" cy="1498" r="1.2" fill="#7d81a8" opacity="0.29"/>
<line x1="25" y1="7" x2="19" y2="19" stroke="#3a3d58" stroke-width="0.8" opacity="0.34"/>
<circle cx="216" cy="339" r="1.0" fill="#d9dae8" opacity="0.27"/>
<line x1="1156" y1="1426" x2="1159" y2="1431" stroke="#d9dae8" stroke-width="1.5" opacity="0.35"/>
<line x1="559" y1="330" x2="564" y2="335" stroke="#494d6b" stroke-width="2.0" opacity="0.49"/>
<circle cx="1355" cy="1253" r="2.4" fill="#494d6b" opacity="0.40"/>
<circle cx="515" cy="1973" r="0.9" fill="#9c9ebf" opacity="0.34"/>
<line x1="583" y1="4" x2="583" y2="10" stroke="#494d6b" stroke-width="1.4" opacity="0.48"/>
<circle cx="518" cy="1052" r="0.8" fill="#7d81a8" opacity="0.35"/>
<line x1="35" y1="89" x2="43" y2="98" stroke="#6c6f93" stroke-width="2.0" opacity="0.47"/>
<circle cx="994" cy="711" r="1.9" fill="#6c6f93" opacity="0.59"/>
<circle cx="1176" cy="1364" r="1.6" fill="#3a3d58" opacity="0.26"/>
<line x1="457" y1="918" x2="466" y2="916" stroke="#3a3d58" stroke-width="1.3" opacity="0.47"/>
<line x1="1361" y1="205" x2="1361" y2="209" stroke="#494d6b" stroke-width="2.2" opacity="0.55"/>
<circle cx="1062" cy="857" r="1.2" fill="#7d81a8" opacity="0.40"/>
<line x1="630" y1="27" x2="619" y2="30" stroke="#7d81a8" stroke-width="1.5" opacity="0.30"/>
<line x1="570" y1="1245" x2="572" y2="1247" stroke="#7d81a8" stroke-width="0.7" opacity="0.60"/>
<circle cx="104" cy="1525" r="2.3" fill="#9c9ebf" opacity="0.39"/>
<circle cx="1177" cy="496" r="2.9" fill="#7d81a8" opacity="0.39"/>
<circle cx="545" cy="536" r="2.2" fill="#494d6b" opacity="0.23"/>
<line x1="576" y1="301" x2="579" y2="304" stroke="#494d6b" stroke-width="0.7" opacity="0.22"/>
<line x1="1307" y1="793" x2="1308" y2="788" stroke="#6c6f93" stroke-width="1.9" opacity="0.63"/>
<circle cx="1057" cy="1449" r="2.5" fill="#9c9ebf" opacity="0.44"/>
<circle cx="1327" cy="1596" r="1.6" fill="#7d81a8" opacity="0.26"/>
<circle cx="174" cy="517" r="2.5" fill="#d9dae8" opacity="0.67"/>
<line x1="44" y1="251" x2="41" y2="252" stroke="#6c6f93" stroke-width="2.0" opacity="0.41"/>
<circle cx="791" cy="1278" r="1.4" fill="#3a3d58" opacity="0.68"/>
<circle cx="1450" cy="1138" r="2.1" fill="#9c9ebf" opacity="0.54"/>
<line x1="459" y1="376" x2="467" y2="368" stroke="#3a3d58" stroke-width="0.6" opacity="0.41"/>
<line x1="980" y1="491" x2="987" y2="482" stroke="#d9dae8" stroke-width="1.8" opacity="0.60"/>
<circle cx="725" cy="1192" r="1.4" fill="#d9dae8" opacity="0.61"/>
<circle cx="140" cy="1601" r="1.8" fill="#3a3d58" opacity="0.26"/>
<line x1="891" y1="39" x2="889" y2="33" stroke="#9c9ebf" stroke-width="1.0" opacity="0.23"/>
<line x1="1106" y1="42" x2="1115" y2="31" stroke="#6c6f93" stroke-width="0.6" opacity="0.47"/>
<line x1="1184" y1="818" x2="1182" y2="819" stroke="#3a3d58" stroke-width="2.1" opacity="0.49"/>
<circle cx="1042" cy="738" r="2.1" fill="#d9dae8" opacity="0.30"/>
<circle cx="643" cy="1540" r="1.0" fill="#3a3d58" opacity="0.70"/>
<line x1="932" y1="1839" x2="928" y2="1833" stroke="#494d6b" stroke-width="0.7" opacity="0.38"/>
<line x1="1356" y1="1415" x2="1363" y2="1414" stroke="#494d6b" stroke-width="1.7" opacity="0.36"/>
<circle cx="367" cy="1410" r="2.9" fill="#7d81a8" opacity="0.28"/>
<line x1="1355" y1="165" x2="1355" y2="154" stroke="#9c9ebf" stroke-width="1.2" opacity="0.38"/>
<circle cx="1280" cy="1260" r="2.8" fill="#494d6b" opacity="0.23"/>
<circle cx="993" cy="1890" r="0.9" fill="#494d6b" opacity="0.30"/>
<circle cx="754" cy="568" r="1.8" fill="#3a3d58" opacity="0.24"/>
<line x1="294" y1="47" x2="304" y2="49" stroke="#3a3d58" stroke-width="2.0" opacity="0.50"/>
<circle cx="836" cy="1610" r="2.0" fill="#494d6b" opacity="0.33"/>
<line x1="566" y1="344" x2="572" y2="346" stroke="#d9dae8" stroke-width="2.2" opacity="0.30"/>
<line x1="966" y1="961" x2="962" y2="963" stroke="#d9dae8" stroke-width="1.8" opacity="0.31"/>
<line x1="927" y1="1154" x2="928" y2="1143" stroke="#494d6b" stroke-width="0.6" opacity="0.30"/>
<line x1="119" y1="314" x2="115" y2="324" stroke="#494d6b" stroke-width="1.6" opacity="0.37"/>
<line x1="503" y1="562" x2="496" y2="563" stroke="#9c9ebf" stroke-width="1.5" opacity="0.26"/>
<circle cx="308" cy="197" r="2.0" fill="#d9dae8" opacity="0.44"/>
<circle cx="1336" cy="795" r="2.1" fill="#3a3d58" opacity="0.44"/>
<line x1="443" y1="506" x2="443" y2="510" stroke="#d9dae8" stroke-width="1.4" opacity="0.35"/>
<line x1="174" y1="1176" x2="175" y2="1179" stroke="#9c9ebf" stroke-width="1.6" opacity="0.42"/>
<line x1="243" y1="1508" x2="244" y2="1497" stroke="#7d81a8" stroke-width="0.7" opacity="0.32"/>
<circle cx="1241" cy="1239" r="0.7" fill="#7d81a8" opacity="0.59"/>
<line x1="173" y1="970" x2="185" y2="960" stroke="#7d81a8" stroke-width="1.0" opacity="0.34"/>
<line x1="610" y1="1545" x2="619" y2="1548" stroke="#3a3d58" stroke-width="2.1" opacity="0.49"/>
<line x1="357" y1="416" x2="350" y2="417" stroke="#494d6b" stroke-width="1.6" opacity="0.25"/>
<circle cx="470" cy="1303" r="2.8" fill="#494d6b" opacity="0.40"/>
<circle cx="590" cy="766" r="2.0" fill="#9c9ebf" opacity="0.68"/>
<line x1="962" y1="1464" x2="971" y2="1453" stroke="#d9dae8" stroke-width="1.3" opacity="0.45"/>
<line x1="907" y1="1687" x2="896" y2="1685" stroke="#6c6f93" stroke-width="1.6" opacity="0.25"/>
<line x1="840" y1="1545" x2="832" y2="1557" stroke="#7d81a8" stroke-width="2.1" opacity="0.61"/>
<circle cx="1458" cy="1781" r="1.8" fill="#494d6b" opacity="0.32"/>
<line x1="673" y1="1806" x2="674" y2="1798" stroke="#494d6b" stroke-width="1.4" opacity="0.51"/>
<line x1="1443" y1="1177" x2="1437" y2="1179" stroke="#6c6f93" stroke-width="1.8" opacity="0.27"/>
<circle cx="354" cy="1968" r="1.8" fill="#3a3d58" opacity="0.60"/>
<circle cx="1049" cy="1901" r="2.0" fill="#9c9ebf" opacity="0.21"/>
<circle cx="604" cy="1958" r="1.1" fill="#494d6b" opacity="0.46"/>
<circle cx="1487" cy="1525" r="0.7" fill="#6c6f93" opacity="0.56"/>
<circle cx="874" cy="1060" r="1.2" fill="#d9dae8" opacity="0.65"/>
<circle cx="1011" cy="1007" r="1.2" fill="#6c6f93" opacity="0.54"/>
<circle cx="1064" cy="1959" r="2.5" fill="#3a3d58" opacity="0.46"/>
<line x1="887" y1="955" x2="886" y2="961" stroke="#3a3d58" stroke-width="1.5" opacity="0.45"/>
<circle cx="1376" cy="814" r="1.1" fill="#d9dae8" opacity="0.35"/>
<circle cx="1395" cy="843" r="1.4" fill="#d9dae8" opacity="0.23"/>
<line x1="941" y1="1017" x2="940" y2="1022" stroke="#9c9ebf" stroke-width="1.7" opacity="0.64"/>
<circle cx="1242" cy="454" r="2.4" fill="#9c9ebf" opacity="0.22"/>
<circle cx="1354" cy="582" r="1.4" fill="#6c6f93" opacity="0.57"/>
<circle cx="639" cy="264" r="1.0" fill="#d9dae8" opacity="0.68"/>
<circle cx="309" cy="1647" r="0.8" fill="#3a3d58" opacity="0.62"/>
<line x1="17" y1="1404" x2="6" y2="1395" stroke="#9c9ebf" stroke-width="1.9" opacity="0.33"/>
<circle cx="1017" cy="1856" r="2.6" fill="#9c9ebf" opacity="0.55"/>
<line x1="861" y1="1303" x2="850" y2="1310" stroke="#3a3d58" stroke-width="1.5" opacity="0.30"/>
<circle cx="256" cy="1551" r="0.8" fill="#6c6f93" opacity="0.61"/>
<line x1="205" y1="701" x2="217" y2="693" stroke="#494d6b" stroke-width="0.7" opacity="0.45"/>
<circle cx="620" cy="149" r="2.4" fill="#9c9ebf" opacity="0.44"/>
<line x1="35" y1="1679" x2="34" y2="1684" stroke="#9c9ebf" stroke-width="1.6" opacity="0.30"/>
<line x1="660" y1="1213" x2="663" y2="1201" stroke="#6c6f93" stroke-width="1.2" opacity="0.62"/>
<line x1="364" y1="1958" x2="376" y2="1959" stroke="#494d6b" stroke-width="1.2" opacity="0.54"/>
<line x1="505" y1="1012" x2="502" y2="1008" stroke="#9c9ebf" stroke-width="2.1" opacity="0.38"/>
<line x1="329" y1="802" x2="334" y2="813" stroke="#9c9ebf" stroke-width="1.2" opacity="0.50"/>
<circle cx="1392" cy="1718" r="2.9" fill="#494d6b" opacity="0.22"/>
<circle cx="520" cy="1378" r="1.6" fill="#9c9ebf" opacity="0.22"/>
<line x1="66" y1="757" x2="69" y2="758" stroke="#9c9ebf" stroke-width="1.2" opacity="0.63"/>
<circle cx="1055" cy="902" r="3.0" fill="#494d6b" opacity="0.51"/>
<line x1="1207" y1="1264" x2="1215" y2="1256" stroke="#9c9ebf" stroke-width="2.1" opacity="0.38"/>
<circle cx="997" cy="722" r="2.6" fill="#d9dae8" opacity="0.41"/>
<line x1="1303" y1="1589" x2="1308" y2="1583" stroke="#494d6b" stroke-width="0.7" opacity="0.54"/>
<line x1="914" y1="3" x2="905" y2="13" stroke="#d9dae8" stroke-width="2.0" opacity="0.46"/>
<circle cx="1094" cy="258" r="2.6" fill="#3a3d58" opacity="0.23"/>
<circle cx="1370" cy="492" r="0.7" fill="#494d6b" opacity="0.57"/>
<line x1="1281" y1="1108" x2="1272" y2="1097" stroke="#6c6f93" stroke-width="1.5" opacity="0.36"/>
<line x1="268" y1="1622" x2="271" y2="1624" stroke="#3a3d58" stroke-width="2.1" opacity="0.56"/>
<circle cx="1096" cy="1385" r="1.2" fill="#3a3d58" opacity="0.24"/>
<line x1="931" y1="1982" x2="919" y2="1984" stroke="#7d81a8" stroke-width="1.5" opacity="0.48"/>
<circle cx="975" cy="1164" r="1.7" fill="#494d6b" opacity="0.47"/>
<line x1="766" y1="635" x2="764" y2="638" stroke="#9c9ebf" stroke-width="1.2" opacity="0.23"/>
<line x1="995" y1="207" x2="997" y2="202" stroke="#3a3d58" stroke-width="1.1" opacity="0.25"/>
<circle cx="461" cy="232" r="2.6" fill="#7d81a8" opacity="0.45"/>
<line x1="1386" y1="1401" x2="1374" y2="1400" stroke="#494d6b" stroke-width="1.2" opacity="0.24"/>
<circle cx="316" cy="964" r="1.3" fill="#494d6b" opacity="0.46"/>
<line x1="284" y1="191" x2="282" y2="202" stroke="#7d81a8" stroke-width="1.9" opacity="0.48"/>
<circle cx="1364" cy="623" r="0.7" fill="#6c6f93" opacity="0.42"/>
<line x1="1254" y1="689" x2="1265" y2="695" stroke="#9c9ebf" stroke-width="1.1" opacity="0.22"/>
<line x1="125" y1="1729" x2="116" y2="1723" stroke="#d9dae8" stroke-width="2.0" opacity="0.58"/>
<circle cx="427" cy="817" r="0.8" fill="#494d6b" opacity="0.34"/>
<circle cx="1250" cy="1282" r="2.5" fill="#9c9ebf" opacity="0.64"/>
<line x1="538" y1="1748" x2="544" y2="1748" stroke="#d9dae8" stroke-width="1.4" opacity="0.52"/>
<line x1="1347" y1="381" x2="1350" y2="374" stroke="#d9dae8" stroke-width="0.6" opacity="0.49"/>
<line x1="1109" y1="611" x2="1100" y2="599" stroke="#7d81a8" stroke-width="1.5" opacity="0.33"/>
<line x1="491" y1="1507" x2="480" y2="1515" stroke="#d9dae8" stroke-width="2.0" opacity="0.38"/>
<circle cx="1434" cy="664" r="1.1" fill="#6c6f93" opacity="0.56"/>
<line x1="171" y1="1498" x2="170" y2="1499" stroke="#3a3d58" stroke-width="1.7" opacity="0.21"/>
<line x1="577" y1="1893" x2="568" y2="1900" stroke="#7d81a8" stroke-width="1.8" opacity="0.32"/>
<circle cx="1238" cy="718" r="1.2" fill="#3a3d58" opacity="0.55"/>
<line x1="1324" y1="438" x2="1314" y2="436" stroke="#494d6b" stroke-width="2.0" opacity="0.45"/>
<circle cx="947" cy="314" r="2.8" fill="#d9dae8" opacity="0.27"/>
<line x1="1155" y1="249" x2="1145" y2="247" stroke="#d9dae8" stroke-width="1.4" opacity="0.32"/>
<line x1="1430" y1="834" x2="1428" y2="825" stroke="#3a3d58" stroke-width="2.0" opacity="0.49"/>
<circle cx="1008" cy="636" r="1.4" fill="#d9dae8" opacity="0.36"/>
<line x1="974" y1="818" x2="964" y2="829" stroke="#9c9ebf" stroke-width="1.4" opacity="0.54"/>
<line x1="660" y1="971" x2="669" y2="969" stroke="#494d6b" stroke-width="1.1" opacity="0.35"/>
<line x1="117" y1="1921" x2="114" y2="1927" stroke="#7d81a8" stroke-width="0.9" opacity="0.47"/>
<circle cx="1409" cy="207" r="2.0" fill="#7d81a8" opacity="0.41"/>
<circle cx="982" cy="1685" r="2.8" fill="#d9dae8" opacity="0.44"/>
<circle cx="373" cy="49" r="2.1" fill="#494d6b" opacity="0.29"/>
<circle cx="1337" cy="1623" r="2.9" fill="#9c9ebf" opacity="0.37"/>
<circle cx="1249" cy="576" r="0.7" fill="#d9dae8" opacity="0.65"/>
</svg>