<svg xmlns="http://www.w3.org/2000/svg" width="1700" height="1700" viewBox="0 0 1700 1700">
<rect width="1700" height="1700" fill="#e9e8ec"/>
<rect x="195" y="-96" width="541" height="453" fill="#9b96a6" opacity="0.32" transform="rotate(-29 465 131)"/>
<rect x="626" y="1014" width="471" height="873" fill="#6e6a7c" opacity="0.35" transform="rotate(-21 862 1450)"/>
<rect x="-147" y="806" width="819" height="856" fill="#d8d5df" opacity="0.50" transform="rotate(-10 263 1234)"/>
<rect x="-25" y="421" width="513" height="561" fill="#9b96a6" opacity="0.26" transform="rotate(-23 231 702)"/>
<rect x="-300" y="-132" width="630" height="308" fill="#b9b4c2" opacity="0.49" transform="rotate(18 15 22)"/>
<rect x="-331" y="1010" width="1111" height="351" fill="#b9b4c2" opacity="0.42" transform="rotate(16 224 1185)"/>
<rect x="1036" y="1208" width="904" height="315" fill="#6e6a7c" opacity="0.33" transform="rotate(6 1488 1365)"/>
<path d="M 1469 1349 Q 1442 1604 1554 1598" stroke="#6e6a7c" stroke-width="8" stroke-linecap="round" fill="none" opacity="0.42"/>
<path d="M 1146 112 Q 1314 -76 1720 -277" stroke="#a9a5b6" stroke-width="11" stroke-linecap="round" fill="none" opacity="0.69"/>
<path d="M 78 427 Q -24 310 -329 196" stroke="#a9a5b6" stroke-width="13" stroke-linecap="round" fill="none" opacity="0.72"/>
<path d="M 135 419 Q 335 204 357 192" stroke="#d8d5df" stroke-width="23" stroke-linecap="round" fill="none" opacity="0.72"/>
<path d="M 1564 1620 Q 1162 1557 961 1212" stroke="#b9b4c2" stroke-width="24" stroke-linecap="round" fill="none" opacity="0.70"/>
<path d="M 953 1498 Q 764 1430 423 1126" stroke="#a9a5b6" stroke-width="44" stroke-linecap="round" fill="none" opacity="0.52"/>
<path d="M 1261 1477 Q 1108 1442 809 1294" stroke="#d8d5df" stroke-width="20" stroke-linecap="round" fill="none" opacity="0.77"/>
<path d="M 570 1509 Q 621 1392 873 1496" stroke="#9b96a6" stroke-width="21" stroke-linecap="round" fill="none" opacity="0.54"/>
<path d="M 1341 1532 Q 1287 1418 1194 1182" stroke="#d8d5df" stroke-width="16" stroke-linecap="round" fill="none" opacity="0.66"/>
<path d="M 1669 1206 Q 1426 1460 1088 1455" stroke="#a9a5b6" stroke-width="7" stroke-linecap="round" fill="none" opacity="0.76"/>
<circle cx="1141" cy="1532" r="83" fill="#9b96a6" opacity="0.40"/>
<circle cx="554" cy="1303" r="135" fill="#9b96a6" opacity="0.38"/>
<circle cx="1201" cy="372" r="78" fill="#4c4956" opacity="0.36"/>
<line x1="958" y1="738" x2="967" y2="750" stroke="#4c4956" stroke-width="2.1" opacity="0.36"/>
<circle cx="1138" cy="1136" r="1.1" fill="#4c4956" opacity="0.32"/>
<circle cx="1561" cy="178" r="1.5" fill="#6e6a7c" opacity="0.70"/>
<line x1="1685" y1="427" x2="1674" y2="437" stroke="#4c4956" stroke-width="1.7" opacity="0.30"/>
<line x1="1224" y1="461" x2="1232" y2="455" stroke="#d8d5df" stroke-width="1.0" opacity="0.50"/>
<circle cx="530" cy="1519" r="2.2" fill="#4c4956" opacity="0.24"/>
<line x1="1491" y1="621" x2="1500" y2="626" stroke="#9b96a6" stroke-width="1.8" opacity="0.33"/>
<circle cx="632" cy="216" r="2.4" fill="#d8d5df" opacity="0.43"/>
<line x1="579" y1="1691" x2="591" y2="1685" stroke="#4c4956" stroke-width="1.4" opacity="0.25"/>
<circle cx="830" cy="1690" r="2.7" fill="#9b96a6" opacity="0.62"/>
<line x1="279" y1="1668" x2="277" y2="1656" stroke="#b9b4c2" stroke-width="0.6" opacity="0.42"/>
<line x1="1503" y1="1094" x2="1502" y2="1083" stroke="#4c4956" stroke-width="1.8" opacity="0.58"/>
<line x1="1532" y1="519" x2="1538" y2="522" stroke="#9b96a6" stroke-width="1.0" opacity="0.63"/>
<line x1="47" y1="1467" x2="37" y2="1478" stroke="#a9a5b6" stroke-width="2.2" opacity="0.48"/>
<circle cx="1153" cy="55" r="1.2" fill="#b9b4c2" opacity="0.50"/>
<circle cx="1076" cy="100" r="1.9" fill="#4c4956" opacity="0.49"/>
<line x1="470" y1="275" x2="476" y2="275" stroke="#6e6a7c" stroke-width="1.3" opacity="0.58"/>
<circle cx="715" cy="919" r="1.2" fill="#a9a5b6" opacity="0.23"/>
<line x1="995" y1="474" x2="995" y2="471" stroke="#9b96a6" stroke-width="1.8" opacity="0.26"/>
<line x1="1426" y1="607" x2="1436" y2="599" stroke="#a9a5b6" stroke-width="1.4" opacity="0.42"/>
<circle cx="647" cy="1670" r="2.5" fill="#9b96a6" opacity="0.45"/>
<line x1="1355" y1="1564" x2="1352" y2="1568" stroke="#4c4956" stroke-width="1.6" opacity="0.41"/>
<circle cx="1541" cy="1145" r="1.5" fill="#a9a5b6" opacity="0.41"/>
<line x1="1667" y1="144" x2="1657" y2="147" stroke="#d8d5df" stroke-width="0.9" opacity="0.40"/>
<line x1="560" y1="85" x2="554" y2="79" stroke="#d8d5df" stroke-width="1.6" opacity="0.41"/>
<line x1="1455" y1="82" x2="1462" y2="73" stroke="#d8d5df" stroke-width="1.7" opacity="0.35"/>
<line x1="1275" y1="1497" x2="1281" y2="1508" stroke="#a9a5b6" stroke-width="1.4" opacity="0.57"/>
<circle cx="1597" cy="236" r="1.1" fill="#a9a5b6" opacity="0.67"/>
<line x1="1461" y1="419" x2="1460" y2="423" stroke="#d8d5df" stroke-width="1.5" opacity="0.28"/>
<line x1="1531" y1="326" x2="1524" y2="318" stroke="#6e6a7c" stroke-width="1.4" opacity="0.47"/>
<line x1="890" y1="529" x2="881" y2="536" stroke="#b9b4c2" stroke-width="1.4" opacity="0.30"/>
<line x1="1645" y1="267" x2="1652" y2="278" stroke="#6e6a7c" stroke-width="1.7" opacity="0.48"/>
<line x1="1236" y1="162" x2="1241" y2="164" stroke="#b9b4c2" stroke-width="1.7" opacity="0.58"/>
<line x1="1334" y1="460" x2="1339" y2="471" stroke="#6e6a7c" stroke-width="2.0" opacity="0.26"/>
<line x1="250" y1="1099" x2="242" y2="1096" stroke="#b9b4c2" stroke-width="2.1" opacity="0.65"/>
<line x1="1196" y1="162" x2="1198" y2="166" stroke="#a9a5b6" stroke-width="0.6" opacity="0.60"/>
<line x1="660" y1="953" x2="668" y2="955" stroke="#9b96a6" stroke-width="0.9" opacity="0.44"/>
<line x1="1121" y1="466" x2="1115" y2="475" stroke="#6e6a7c" stroke-width="1.2" opacity="0.53"/>
<line x1="498" y1="72" x2="495" y2="66" stroke="#a9a5b6" stroke-width="0.7" opacity="0.53"/>
<circle cx="820" cy="1004" r="2.2" fill="#a9a5b6" opacity="0.56"/>
<circle cx="574" cy="366" r="2.9" fill="#a9a5b6" opacity="0.27"/>
<line x1="1568" y1="4" x2="1575" y2="-3" stroke="#9b96a6" stroke-width="1.2" opacity="0.30"/>
<circle cx="506" cy="165" r="1.0" fill="#d8d5df" opacity="0.68"/>
<circle cx="1076" cy="1145" r="1.0" fill="#9b96a6" opacity="0.47"/>
<line x1="682" y1="1459" x2="678" y2="1454" stroke="#9b96a6" stroke-width="2.0" opacity="0.27"/>
<line x1="980" y1="716" x2="977" y2="723" stroke="#d8d5df" stroke-width="1.6" opacity="0.57"/>
<circle cx="761" cy="1101" r="0.8" fill="#9b96a6" opacity="0.68"/>
<circle cx="906" cy="479" r="2.1" fill="#6e6a7c" opacity="0.27"/>
<circle cx="1666" cy="251" r="1.0" fill="#a9a5b6" opacity="0.39"/>
<circle cx="1322" cy="1176" r="0.9" fill="#d8d5df" opacity="0.43"/>
<circle cx="710" cy="1308" r="2.3" fill="#4c4956" opacity="0.67"/>
<line x1="1272" y1="679" x2="1272" y2="673" stroke="#9b96a6" stroke-width="1.6" opacity="0.60"/>
<line x1="1136" y1="302" x2="1125" y2="297" stroke="#6e6a7c" stroke-width="0.8" opacity="0.63"/>
<line x1="452" y1="61" x2="461" y2="69" stroke="#4c4956" stroke-width="0.7" opacity="0.24"/>
<line x1="329" y1="1651" x2="332" y2="1655" stroke="#d8d5df" stroke-width="2.2" opacity="0.54"/>
<line x1="999" y1="10" x2="991" y2="16" stroke="#d8d5df" stroke-width="0.7" opacity="0.35"/>
<circle cx="1014" cy="32" r="2.8" fill="#9b96a6" opacity="0.40"/>
<line x1="88" y1="1204" x2="80" y2="1214" stroke="#6e6a7c" stroke-width="0.8" opacity="0.30"/>
<line x1="120" y1="1626" x2="125" y2="1616" stroke="#6e6a7c" stroke-width="2.1" opacity="0.20"/>
<line x1="426" y1="1633" x2="432" y2="1629" stroke="#d8d5df" stroke-width="1.6" opacity="0.35"/>
<line x1="1592" y1="336" x2="1584" y2="326" stroke="#a9a5b6" stroke-width="2.2" opacity="0.42"/>
<line x1="208" y1="932" x2="199" y2="943" stroke="#b9b4c2" stroke-width="1.3" opacity="0.22"/>
<line x1="354" y1="291" x2="361" y2="284" stroke="#b9b4c2" stroke-width="1.3" opacity="0.29"/>
<line x1="133" y1="756" x2="129" y2="745" stroke="#a9a5b6" stroke-width="0.7" opacity="0.45"/>
<circle cx="815" cy="1645" r="2.9" fill="#d8d5df" opacity="0.25"/>
<line x1="1369" y1="708" x2="1372" y2="697" stroke="#6e6a7c" stroke-width="1.4" opacity="0.60"/>
<line x1="29" y1="1372" x2="34" y2="1382" stroke="#6e6a7c" stroke-width="1.2" opacity="0.26"/>
<circle cx="704" cy="1491" r="0.9" fill="#b9b4c2" opacity="0.30"/>
<line x1="603" y1="925" x2="615" y2="924" stroke="#d8d5df" stroke-width="0.9" opacity="0.27"/>
<line x1="1510" y1="1198" x2="1506" y2="1194" stroke="#9b96a6" stroke-width="1.2" opacity="0.58"/>
<line x1="1213" y1="308" x2="1203" y2="304" stroke="#9b96a6" stroke-width="1.1" opacity="0.33"/>
<line x1="1530" y1="1134" x2="1521" y2="1129" stroke="#a9a5b6" stroke-width="2.0" opacity="0.35"/>
<circle cx="600" cy="359" r="1.6" fill="#b9b4c2" opacity="0.51"/>
<line x1="1431" y1="697" x2="1431" y2="707" stroke="#4c4956" stroke-width="1.4" opacity="0.27"/>
<line x1="328" y1="78" x2="320" y2="72" stroke="#b9b4c2" stroke-width="1.4" opacity="0.29"/>
<line x1="644" y1="1207" x2="640" y2="1196" stroke="#6e6a7c" stroke-width="1.0" opacity="0.54"/>
<circle cx="335" cy="656" r="2.6" fill="#6e6a7c" opacity="0.43"/>
<line x1="1137" y1="1696" x2="1140" y2="1705" stroke="#9b96a6" stroke-width="2.0" opacity="0.48"/>
<circle cx="1526" cy="1698" r="1.2" fill="#a9a5b6" opacity="0.32"/>
<circle cx="1218" cy="1314" r="2.2" fill="#a9a5b6" opacity="0.44"/>
<line x1="1321" y1="594" x2="1324" y2="584" stroke="#d8d5df" stroke-width="1.9" opacity="0.51"/>
<circle cx="1482" cy="1182" r="2.2" fill="#6e6a7c" opacity="0.33"/>
<line x1="667" y1="1467" x2="673" y2="1457" stroke="#b9b4c2" stroke-width="0.9" opacity="0.57"/>
<line x1="735" y1="608" x2="746" y2="619" stroke="#4c4956" stroke-width="2.2" opacity="0.41"/>
<line x1="846" y1="710" x2="851" y2="705" stroke="#9b96a6" stroke-width="1.7" opacity="0.40"/>
<line x1="840" y1="303" x2="834" y2="300" stroke="#6e6a7c" stroke-width="1.1" opacity="0.41"/>
<line x1="1571" y1="421" x2="1575" y2="418" stroke="#b9b4c2" stroke-width="0.9" opacity="0.60"/>
<line x1="1653" y1="1449" x2="1646" y2="1449" stroke="#b9b4c2" stroke-width="2.1" opacity="0.27"/>
<circle cx="700" cy="913" r="0.9" fill="#6e6a7c" opacity="0.31"/>
<circle cx="253" cy="432" r="1.6" fill="#a9a5b6" opacity="0.30"/>
<circle cx="791" cy="13" r="1.0" fill="#d8d5df" opacity="0.25"/>
<circle cx="641" cy="1233" r="2.6" fill="#4c4956" opacity="0.40"/>
<circle cx="356" cy="1530" r="0.9" fill="#b9b4c2" opacity="0.44"/>
<line x1="1327" y1="1380" x2="1338" y2="1373" stroke="#b9b4c2" stroke-width="2.0" opacity="0.32"/>
<circle cx="1140" cy="46" r="2.3" fill="#6e6a7c" opacity="0.51"/>
<circle cx="1237" cy="1146" r="1.5" fill="#6e6a7c" opacity="0.64"/>
<circle cx="702" cy="937" r="1.6" fill="#a9a5b6" opacity="0.53"/>
<circle cx="1206" cy="503" r="0.9" fill="#a9a5b6" opacity="0.27"/>
<line x1="1328" y1="1682" x2="1339" y2="1678" stroke="#9b96a6" stroke-width="1.7" opacity="0.46"/>
<circle cx="802" cy="1339" r="2.5" fill="#b9b4c2" opacity="0.60"/>
<line x1="114" y1="827" x2="120" y2="819" stroke="#9b96a6" stroke-width="1.3" opacity="0.45"/>
<line x1="819" y1="1516" x2="829" y2="1510" stroke="#6e6a7c" stroke-width="0.7" opacity="0.58"/>
<line x1="1577" y1="106" x2="1584" y2="104" stroke="#a9a5b6" stroke-width="1.3" opacity="0.64"/>
<line x1="1126" y1="1678" x2="1128" y2="1680" stroke="#b9b4c2" stroke-width="2.1" opacity="0.32"/>
<circle cx="1416" cy="720" r="1.4" fill="#6e6a7c" opacity="0.53"/>
<line x1="1033" y1="1605" x2="1033" y2="1614" stroke="#6e6a7c" stroke-width="1.8" opacity="0.43"/>
<line x1="1688" y1="392" x2="1698" y2="387" stroke="#4c4956" stroke-width="1.3" opacity="0.39"/>
<line x1="483" y1="992" x2="488" y2="986" stroke="#6e6a7c" stroke-width="0.7" opacity="0.33"/>
<line x1="1420" y1="1472" x2="1416" y2="1463" stroke="#4c4956" stroke-width="1.0" opacity="0.33"/>
<circle cx="1598" cy="1081" r="2.8" fill="#9b96a6" opacity="0.50"/>
<line x1="838" y1="247" x2="838" y2="249" stroke="#b9b4c2" stroke-width="1.0" opacity="0.28"/>
<line x1="1134" y1="226" x2="1134" y2="236" stroke="#b9b4c2" stroke-width="0.7" opacity="0.38"/>
<line x1="1230" y1="1017" x2="1234" y2="1013" stroke="#9b96a6" stroke-width="0.7" opacity="0.30"/>
<circle cx="1015" cy="53" r="1.4" fill="#4c4956" opacity="0.30"/>
<line x1="505" y1="1115" x2="510" y2="1108" stroke="#9b96a6" stroke-width="0.8" opacity="0.51"/>
<line x1="464" y1="942" x2="474" y2="952" stroke="#9b96a6" stroke-width="1.6" opacity="0.56"/>
<line x1="1597" y1="1019" x2="1601" y2="1023" stroke="#a9a5b6" stroke-width="2.2" opacity="0.25"/>
<circle cx="128" cy="484" r="0.7" fill="#b9b4c2" opacity="0.48"/>
<line x1="25" y1="1259" x2="37" y2="1251" stroke="#b9b4c2" stroke-width="1.4" opacity="0.55"/>
<line x1="513" y1="582" x2="502" y2="584" stroke="#4c4956" stroke-width="1.4" opacity="0.41"/>
<circle cx="186" cy="972" r="0.9" fill="#a9a5b6" opacity="0.44"/>
<circle cx="733" cy="784" r="0.9" fill="#a9a5b6" opacity="0.27"/>
<circle cx="1688" cy="1036" r="1.9" fill="#b9b4c2" opacity="0.40"/>
<line x1="913" y1="1561" x2="908" y2="1569" stroke="#d8d5df" stroke-width="0.9" opacity="0.45"/>
<circle cx="1330" cy="658" r="2.1" fill="#d8d5df" opacity="0.45"/>
<circle cx="63" cy="644" r="0.7" fill="#6e6a7c" opacity="0.62"/>
<line x1="373" y1="1669" x2="374" y2="1675" stroke="#6e6a7c" stroke-width="1.1" opacity="0.28"/>
<line x1="1419" y1="398" x2="1416" y2="397" stroke="#a9a5b6" stroke-width="1.8" opacity="0.30"/>
<circle cx="845" cy="972" r="1.6" fill="#6e6a7c" opacity="0.55"/>
<line x1="799" y1="1582" x2="806" y2="1592" stroke="#6e6a7c" stroke-width="0.9" opacity="0.43"/>
<circle cx="397" cy="94" r="2.2" fill="#9b96a6" opacity="0.51"/>
<line x1="956" y1="716" x2="952" y2="727" stroke="#6e6a7c" stroke-width="2.1" opacity="0.32"/>
<circle cx="423" cy="217" r="2.9" fill="#b9b4c2" opacity="0.44"/>
<circle cx="1669" cy="1685" r="2.4" fill="#6e6a7c" opacity="0.21"/>
<circle cx="991" cy="1375" r="1.0" fill="#9b96a6" opacity="0.54"/>
<circle cx="865" cy="221" r="2.9" fill="#d8d5df" opacity="0.50"/>
<line x1="1302" y1="1303" x2="1307" y2="1306" stroke="#4c4956" stroke-width="1.9" opacity="0.24"/>
<line x1="1085" y1="314" x2="1073" y2="322" stroke="#9b96a6" stroke-width="1.3" opacity="0.27"/>
<line x1="1017" y1="1147" x2="1015" y2="1137" stroke="#4c4956" stroke-width="1.0" opacity="0.47"/>
<circle cx="11" cy="1192" r="2.3" fill="#4c4956" opacity="0.47"/>
<circle cx="1272" cy="1017" r="2.3" fill="#b9b4c2" opacity="0.33"/>
<line x1="1049" y1="725" x2="1042" y2="720" stroke="#6e6a7c" stroke-width="2.1" opacity="0.47"/>
<line x1="1450" y1="521" x2="1455" y2="529" stroke="#b9b4c2" stroke-width="0.7" opacity="0.58"/>
<line x1="1451" y1="633" x2="1441" y2="641" stroke="#4c4956" stroke-width="1.3" opacity="0.21"/>
<line x1="711" y1="511" x2="713" y2="523" stroke="#a9a5b6" stroke-width="1.1" opacity="0.62"/>
<circle cx="1022" cy="898" r="1.7" fill="#9b96a6" opacity="0.34"/>
<line x1="1299" y1="1009" x2="1301" y2="1001" stroke="#6e6a7c" stroke-width="1.4" opacity="0.54"/>
<circle cx="25" cy="79" r="2.0" fill="#6e6a7c" opacity="0.36"/>
<circle cx="1139" cy="1695" r="0.6" fill="#d8d5df" opacity="0.44"/>
<line x1="1288" y1="817" x2="1296" y2="812" stroke="#a9a5b6" stroke-width="0.6" opacity="0.61"/>
<line x1="192" y1="1614" x2="185" y2="1614" stroke="#6e6a7c" stroke-width="1.7" opacity="0.43"/>
<line x1="1203" y1="1076" x2="1213" y2="1087" stroke="#9b96a6" stroke-width="1.1" opacity="0.54"/>
<line x1="1659" y1="728" x2="1663" y2="730" stroke="#b9b4c2" stroke-width="0.8" opacity="0.45"/>
<line x1="1457" y1="40" x2="1446" y2="38" stroke="#6e6a7c" stroke-width="0.8" opacity="0.27"/>
<line x1="1661" y1="442" x2="1665" y2="439" stroke="#b9b4c2" stroke-width="2.0" opacity="0.60"/>
<circle cx="1097" cy="100" r="0.6" fill="#d8d5df" opacity="0.62"/>
<line x1="180" y1="228" x2="190" y2="223" stroke="#a9a5b6" stroke-width="1.6" opacity="0.59"/>
<line x1="571" y1="429" x2="580" y2="431" stroke="#a9a5b6" stroke-width="1.7" opacity="0.57"/>
<line x1="133" y1="1110" x2="129" y2="1108" stroke="#9b96a6" stroke-width="1.7" opacity="0.61"/>
<line x1="1443" y1="1485" x2="1455" y2="1494" stroke="#a9a5b6" stroke-width="1.7" opacity="0.55"/>
<line x1="518" y1="1255" x2="522" y2="1258" stroke="#b9b4c2" stroke-width="1.5" opacity="0.55"/>
<circle cx="1224" cy="987" r="2.1" fill="#4c4956" opacity="0.34"/>
<line x1="1126" y1="1348" x2="1127" y2="1353" stroke="#d8d5df" stroke-width="1.1" opacity="0.23"/>
<line x1="349" y1="1167" x2="357" y2="1159" stroke="#d8d5df" stroke-width="0.7" opacity="0.52"/>
<line x1="471" y1="299" x2="467" y2="308" stroke="#a9a5b6" stroke-width="0.9" opacity="0.42"/>
<circle cx="1494" cy="676" r="2.5" fill="#b9b4c2" opacity="0.56"/>
<line x1="1213" y1="654" x2="1225" y2="643" stroke="#4c4956" stroke-width="1.1" opacity="0.46"/>
<line x1="812" y1="37" x2="816" y2="40" stroke="#6e6a7c" stroke-width="1.7" opacity="0.28"/>
<circle cx="913" cy="791" r="2.0" fill="#b9b4c2" opacity="0.41"/>
<circle cx="1119" cy="794" r="1.1" fill="#b9b4c2" opacity="0.64"/>
<line x1="1434" y1="805" x2="1433" y2="802" stroke="#9b96a6" stroke-width="1.9" opacity="0.30"/>
<line x1="587" y1="1290" x2="589" y2="1284" stroke="#d8d5df" stroke-width="0.7" opacity="0.45"/>
<circle cx="472" cy="993" r="2.1" fill="#6e6a7c" opacity="0.42"/>
<line x1="873" y1="1052" x2="869" y2="1063" stroke="#b9b4c2" stroke-width="2.0" opacity="0.46"/>
<circle cx="978" cy="1631" r="1.5" fill="#6e6a7c" opacity="0.24"/>
<line x1="715" y1="1281" x2="715" y2="1275" stroke="#b9b4c2" stroke-width="1.1" opacity="0.22"/>
<line x1="1671" y1="157" x2="1674" y2="160" stroke="#6e6a7c" stroke-width="1.7" opacity="0.62"/>
<circle cx="497" cy="806" r="0.9" fill="#a9a5b6" opacity="0.25"/>
<circle cx="1345" cy="1480" r="2.9" fill="#a9a5b6" opacity="0.22"/>
<line x1="704" y1="984" x2="709" y2="974" stroke="#b9b4c2" stroke-width="2.0" opacity="0.61"/>
<circle cx="1538" cy="397" r="2.8" fill="#9b96a6" opacity="0.35"/>
<line x1="1393" y1="1619" x2="1394" y2="1627" stroke="#a9a5b6" stroke-width="1.4" opacity="0.63"/>
<line x1="398" y1="23" x2="399" y2="14" stroke="#9b96a6" stroke-width="1.1" opacity="0.47"/>
<circle cx="795" cy="295" r="1.6" fill="#d8d5df" opacity="0.39"/>
<circle cx="337" cy="1563" r="2.4" fill="#6e6a7c" opacity="0.59"/>
<circle cx="1245" cy="763" r="2.3" fill="#b9b4c2" opacity="0.22"/>
<circle cx="1148" cy="880" r="1.1" fill="#a9a5b6" opacity="0.59"/>
<circle cx="954" cy="650" r="1.4" fill="#4c4956" opacity="0.24"/>
<line x1="1330" y1="1507" x2="1318" y2="1510" stroke="#6e6a7c" stroke-width="1.4" opacity="0.63"/>
<circle cx="184" cy="1192" r="1.6" fill="#4c4956" opacity="0.49"/>
<line x1="1381" y1="588" x2="1391" y2="594" stroke="#b9b4c2" stroke-width="2.1" opacity="0.37"/>
<line x1="1349" y1="769" x2="1345" y2="771" stroke="#6e6a7c" stroke-width="1.9" opacity="0.54"/>
<line x1="1282" y1="996" x2="1273" y2="998" stroke="#a9a5b6" stroke-width="0.6" opacity="0.50"/>
<line x1="1590" y1="401" x2="1602" y2="409" stroke="#6e6a7c" stroke-width="1.6" opacity="0.25"/>
<circle cx="1583" cy="1153" r="1.8" fill="#6e6a7c" opacity="0.34"/>
<line x1="1560" y1="606" x2="1551" y2="606" stroke="#d8d5df" stroke-width="1.2" opacity="0.46"/>
<line x1="1253" y1="1619" x2="1255" y2="1620" stroke="#4c4956" stroke-width="1.7" opacity="0.56"/>
<line x1="1343" y1="90" x2="1353" y2="97" stroke="#4c4956" stroke-width="1.3" opacity="0.44"/>
<line x1="883" y1="1124" x2="893" y2="1128" stroke="#9b96a6" stroke-width="1.1" opacity="0.58"/>
<circle cx="332" cy="1664" r="2.2" fill="#b9b4c2" opacity="0.64"/>
<circle cx="1465" cy="434" r="2.6" fill="#d8d5df" opacity="0.44"/>
<circle cx="1445" cy="1697" r="1.3" fill="#6e6a7c" opacity="0.23"/>
<circle cx="752" cy="922" r="1.4" fill="#9b96a6" opacity="0.43"/>
<circle cx="1525" cy="393" r="2.8" fill="#a9a5b6" opacity="0.40"/>
<line x1="127" y1="55" x2="116" y2="60" stroke="#b9b4c2" stroke-width="1.2" opacity="0.31"/>
<line x1="973" y1="248" x2="961" y2="237" stroke="#9b96a6" stroke-width="1.5" opacity="0.37"/>
<line x1="725" y1="1032" x2="721" y2="1034" stroke="#d8d5df" stroke-width="1.7" opacity="0.55"/>
<line x1="441" y1="375" x2="444" y2="379" stroke="#a9a5b6" stroke-width="1.8" opacity="0.64"/>
<line x1="420" y1="1157" x2="420" y2="1155" stroke="#9b96a6" stroke-width="1.4" opacity="0.26"/>
<line x1="1299" y1="45" x2="1310" y2="48" stroke="#d8d5df" stroke-width="2.0" opacity="0.32"/>
<line x1="1449" y1="1119" x2="1458" y2="1118" stroke="#6e6a7c" stroke-width="1.6" opacity="0.45"/>
<line x1="838" y1="1561" x2="835" y2="1570" stroke="#d8d5df" stroke-width="0.9" opacity="0.43"/>
<line x1="1182" y1="397" x2="1189" y2="404" stroke="#b9b4c2" stroke-width="2.1" opacity="0.42"/>
<line x1="676" y1="1396" x2="684" y2="1387" stroke="#d8d5df" stroke-width="0.6" opacity="0.24"/>
<circle cx="306" cy="1624" r="2.4" fill="#4c4956" opacity="0.34"/>
<line x1="1266" y1="1061" x2="1273" y2="1053" stroke="#4c4956" stroke-width="1.2" opacity="0.58"/>
<circle cx="398" cy="1187" r="2.5" fill="#6e6a7c" opacity="0.40"/>
<line x1="743" y1="902" x2="752" y2="893" stroke="#d8d5df" stroke-width="2.0" opacity="0.46"/>
<circle cx="32" cy="98" r="1.3" fill="#b9b4c2" opacity="0.53"/>
<line x1="1063" y1="877" x2="1058" y2="878" stroke="#d8d5df" stroke-width="2.1" opacity="0.31"/>
<circle cx="1497" cy="63" r="1.2" fill="#9b96a6" opacity="0.32"/>
<circle cx="1407" cy="112" r="1.1" fill="#d8d5df" opacity="0.66"/>
<circle cx="308" cy="410" r="1.9" fill="#b9b4c2" opacity="0.67"/>
<circle cx="1513" cy="564" r="1.4" fill="#6e6a7c" opacity="0.49"/>
<line x1="608" y1="1440" x2="607" y2="1429" stroke="#b9b4c2" stroke-width="1.1" opacity="0.55"/>
<circle cx="754" cy="1507" r="1.9" fill="#a9a5b6" opacity="0.61"/>
<circle cx="376" cy="769" r="1.3" fill="#d8d5df" opacity="0.24"/>
<circle cx="710" cy="262" r="0.7" fill="#a9a5b6" opacity="0.40"/>
<line x1="360" y1="310" x2="363" y2="313" stroke="#9b96a6" stroke-width="1.9" opacity="0.54"/>
<line x1="1482" y1="1243" x2="1477" y2="1236" stroke="#9b96a6" stroke-width="0.9" opacity="0.64"/>
<circle cx="479" cy="1638" r="1.1" fill="#b9b4c2" opacity="0.68"/>
<line x1="592" y1="37" x2="596" y2="26" stroke="#d8d5df" stroke-width="0.9" opacity="0.46"/>
<circle cx="231" cy="331" r="2.4" fill="#6e6a7c" opacity="0.57"/>
<line x1="1005" y1="809" x2="1004" y2="815" stroke="#a9a5b6" stroke-width="2.1" opacity="0.57"/>
<circle cx="725" cy="1582" r="2.3" fill="#6e6a7c" opacity="0.23"/>
<line x1="1550" y1="211" x2="1544" y2="208" stroke="#9b96a6" stroke-width="0.7" opacity="0.23"/>
<circle cx="450" cy="488" r="2.4" fill="#d8d5df" opacity="0.37"/>
<line x1="1556" y1="998" x2="1547" y2="986" stroke="#b9b4c2" stroke-width="1.1" opacity="0.43"/>
<circle cx="293" cy="1127" r="1.4" fill="#d8d5df" opacity="0.35"/>
<line x1="1600" y1="347" x2="1608" y2="355" stroke="#b9b4c2" stroke-width="1.0" opacity="0.47"/>
<line x1="1173" y1="514" x2="1180" y2="522" stroke="#9b96a6" stroke-width="2.0" opacity="0.34"/>
<circle cx="135" cy="1092" r="2.0" fill="#a9a5b6" opacity="0.36"/>
<line x1="1369" y1="1506" x2="1374" y2="1509" stroke="#d8d5df" stroke-width="0.7" opacity="0.61"/>
<line x1="1544" y1="492" x2="1541" y2="500" stroke="#d8d5df" stroke-width="1.2" opacity="0.47"/>
<circle cx="698" cy="1624" r="2.8" fill="#d8d5df" opacity="0.22"/>
<line x1="307" y1="1384" x2="300" y2="1372" stroke="#d8d5df" stroke-width="0.7" opacity="0.26"/>
<circle cx="320" cy="1426" r="1.4" fill="#6e6a7c" opacity="0.23"/>
<circle cx="1594" cy="358" r="1.0" fill="#6e6a7c" opacity="0.25"/>
<circle cx="870" cy="1628" r="1.2" fill="#b9b4c2" opacity="0.57"/>
<circle cx="1615" cy="1534" r="1.4" fill="#4c4956" opacity="0.22"/>
<line x1="290" y1="683" x2="290" y2="690" stroke="#d8d5df" stroke-width="1.1" opacity="0.58"/>
<circle cx="458" cy="428" r="1.3" fill="#a9a5b6" opacity="0.66"/>
<circle cx="682" cy="1430" r="1.1" fill="#4c4956" opacity="0.26"/>
<line x1="1168" y1="571" x2="1176" y2="580" stroke="#d8d5df" stroke-width="1.5" opacity="0.49"/>
<line x1="1347" y1="384" x2="1355" y2="381" stroke="#d8d5df" stroke-width="1.5" opacity="0.36"/>
<line x1="937" y1="1102" x2="947" y2="1093" stroke="#9b96a6" stroke-width="1.5" opacity="0.21"/>
<line x1="1259" y1="1426" x2="1266" y2="1419" stroke="#4c4956" stroke-width="1.4" opacity="0.59"/>
<circle cx="1049" cy="1260" r="2.8" fill="#b9b4c2" opacity="0.62"/>
<circle cx="60" cy="108" r="2.0" fill="#6e6a7c" opacity="0.39"/>
<circle cx="1338" cy="583" r="0.9" fill="#b9b4c2" opacity="0.51"/>
<line x1="83" y1="1251" x2="72" y2="1239" stroke="#6e6a7c" stroke-width="1.8" opacity="0.51"/>
<line x1="452" y1="188" x2="457" y2="188" stroke="#a9a5b6" stroke-width="1.3" opacity="0.27"/>
<circle cx="598" cy="791" r="1.7" fill="#d8d5df" opacity="0.52"/>
<line x1="1114" y1="1139" x2="1115" y2="1131" stroke="#6e6a7c" stroke-width="0.8" opacity="0.30"/>
<line x1="1403" y1="207" x2="1397" y2="208" stroke="#d8d5df" stroke-width="1.4" opacity="0.28"/>
<line x1="1670" y1="972" x2="1681" y2="981" stroke="#a9a5b6" stroke-width="1.6" opacity="0.30"/>
<line x1="336" y1="522" x2="343" y2="522" stroke="#b9b4c2" stroke-width="1.1" opacity="0.43"/>
<line x1="773" y1="1585" x2="785" y2="1591" stroke="#9b96a6" stroke-width="2.0" opacity="0.35"/>
<circle cx="1382" cy="898" r="2.3" fill="#6e6a7c" opacity="0.34"/>
<line x1="123" y1="643" x2="132" y2="648" stroke="#b9b4c2" stroke-width="1.6" opacity="0.49"/>
<line x1="786" y1="975" x2="791" y2="986" stroke="#d8d5df" stroke-width="1.1" opacity="0.24"/>
<circle cx="1542" cy="786" r="1.0" fill="#4c4956" opacity="0.41"/>
<line x1="610" y1="1670" x2="602" y2="1676" stroke="#a9a5b6" stroke-width="1.5" opacity="0.56"/>
<circle cx="1181" cy="1550" r="2.8" fill="#b9b4c2" opacity="0.31"/>
<circle cx="571" cy="1083" r="1.6" fill="#9b96a6" opacity="0.25"/>
<line x1="761" y1="1114" x2="770" y2="1116" stroke="#a9a5b6" stroke-width="2.1" opacity="0.61"/>
<circle cx="1617" cy="588" r="1.4" fill="#6e6a7c" opacity="0.31"/>
<line x1="84" y1="1081" x2="81" y2="1082" stroke="#d8d5df" stroke-width="1.9" opacity="0.22"/>
<circle cx="364" cy="466" r="1.9" fill="#6e6a7c" opacity="0.22"/>
<line x1="1297" y1="887" x2="1309" y2="876" stroke="#9b96a6" stroke-width="2.1" opacity="0.36"/>
<circle cx="866" cy="829" r="2.9" fill="#b9b4c2" opacity="0.61"/>
<line x1="877" y1="155" x2="878" y2="160" stroke="#4c4956" stroke-width="1.2" opacity="0.38"/>
<circle cx="175" cy="672" r="1.4" fill="#9b96a6" opacity="0.50"/>
<line x1="1188" y1="56" x2="1200" y2="59" stroke="#d8d5df" stroke-width="1.1" opacity="0.48"/>
<line x1="1373" y1="64" x2="1380" y2="60" stroke="#a9a5b6" stroke-width="0.9" opacity="0.30"/>
<circle cx="609" cy="211" r="0.7" fill="#b9b4c2" opacity="0.32"/>
<circle cx="1366" cy="1251" r="1.8" fill="#b9b4c2" opacity="0.29"/>
<line x1="642" y1="808" x2="646" y2="796" stroke="#9b96a6" stroke-width="1.4" opacity="0.64"/>
<line x1="1607" y1="82" x2="1607" y2="89" stroke="#a9a5b6" stroke-width="1.6" opacity="0.40"/>
<line x1="567" y1="1532" x2="558" y2="1527" stroke="#9b96a6" stroke-width="1.6" opacity="0.37"/>
<circle cx="1240" cy="38" r="2.7" fill="#b9b4c2" opacity="0.63"/>
<line x1="978" y1="224" x2="970" y2="212" stroke="#a9a5b6" stroke-width="2.2" opacity="0.40"/>
<circle cx="1206" cy="628" r="1.8" fill="#a9a5b6" opacity="0.30"/>
<circle cx="1652" cy="1623" r="0.7" fill="#a9a5b6" opacity="0.49"/>
<line x1="1176" y1="1027" x2="1183" y2="1030" stroke="#9b96a6" stroke-width="0.7" opacity="0.27"/>
<line x1="1122" y1="1009" x2="1120" y2="999" stroke="#a9a5b6" stroke-width="1.4" opacity="0.22"/>
<circle cx="1056" cy="421" r="0.8" fill="#9b96a6" opacity="0.43"/>
<line x1="481" y1="375" x2="483" y2="366" stroke="#6e6a7c" stroke-width="1.7" opacity="0.48"/>
<line x1="919" y1="1447" x2="914" y2="1456" stroke="#d8d5df" stroke-width="0.9" opacity="0.35"/>
<circle cx="885" cy="703" r="1.9" fill="#4c4956" opacity="0.70"/>
<line x1="783" y1="622" x2="792" y2="610" stroke="#d8d5df" stroke-width="2.0" opacity="0.29"/>
<circle cx="1271" cy="717" r="0.7" fill="#a9a5b6" opacity="0.44"/>
<circle cx="1498" cy="267" r="2.1" fill="#4c4956" opacity="0.55"/>
<line x1="447" y1="837" x2="439" y2="838" stroke="#4c4956" stroke-width="2.2" opacity="0.25"/>
<circle cx="623" cy="712" r="0.6" fill="#6e6a7c" opacity="0.23"/>
<line x1="1551" y1="756" x2="1540" y2="757" stroke="#6e6a7c" stroke-width="1.5" opacity="0.33"/>
<circle cx="239" cy="464" r="0.6" fill="#d8d5df" opacity="0.58"/>
<circle cx="1" cy="1546" r="0.8" fill="#a9a5b6" opacity="0.23"/>
<line x1="1548" y1="510" x2="1543" y2="519" stroke="#9b96a6" stroke-width="1.3" opacity="0.26"/>
<circle cx="1644" cy="1311" r="2.3" fill="#6e6a7c" opacity="0.42"/>
<circle cx="631" cy="1339" r="1.2" fill="#4c4956" opacity="0.21"/>
<line x1="906" y1="1204" x2="902" y2="1210" stroke="#d8d5df" stroke-width="1.8" opacity="0.51"/>
<circle cx="774" cy="149" r="2.0" fill="#4c4956" opacity="0.31"/>
<circle cx="259" cy="726" r="1.9" fill="#a9a5b6" opacity="0.54"/>
<circle cx="578" cy="498" r="1.8" fill="#d8d5df" opacity="0.52"/>
<circle cx="792" cy="569" r="3.0" fill="#a9a5b6" opacity="0.43"/>
<line x1="225" y1="1174" x2="234" y2="1167" stroke="#a9a5b6" stroke-width="1.7" opacity="0.47"/>
<line x1="739" y1="1145" x2="731" y2="1140" stroke="#b9b4c2" stroke-width="0.8" opacity="0.55"/>
<circle cx="1186" cy="730" r="1.1" fill="#a9a5b6" opacity="0.39"/>
<circle cx="881" cy="1677" r="2.6" fill="#d8d5df" opacity="0.68"/>
<circle cx="1406" cy="1426" r="1.4" fill="#9b96a6" opacity="0.23"/>
<line x1="52" y1="16" x2="57" y2="7" stroke="#d8d5df" stroke-width="2.1" opacity="0.61"/>
<line x1="435" y1="1292" x2="429" y2="1292" stroke="#4c4956" stroke-width="1.3" opacity="0.24"/>
<circle cx="965" cy="126" r="2.0" fill="#d8d5df" opacity="0.28"/>
<circle cx="1109" cy="1410" r="1.9" fill="#4c4956" opacity="0.38"/>
<circle cx="1473" cy="374" r="1.1" fill="#d8d5df" opacity="0.40"/>
<circle cx="1338" cy="751" r="1.2" fill="#a9a5b6" opacity="0.62"/>
<circle cx="222" cy="1265" r="0.7" fill="#a9a5b6" opacity="0.54"/>
<circle cx="319" cy="679" r="2.2" fill="#9b96a6" opacity="0.32"/>
<circle cx="1429" cy="559" r="1.6" fill="#6e6a7c" opacity="0.54"/>
<circle cx="1197" cy="701" r="2.2" fill="#d8d5df" opacity="0.70"/>
<circle cx="357" cy="1368" r="2.4" fill="#b9b4c2" opacity="0.28"/>
<line x1="601" y1="901" x2="595" y2="901" stroke="#a9a5b6" stroke-width="0.7" opacity="0.54"/>
<line x1="556" y1="1240" x2="558" y2="1235" stroke="#6e6a7c" stroke-width="1.9" opacity="0.32"/>
<line x1="1106" y1="798" x2="1106" y2="800" stroke="#9b96a6" stroke-width="1.9" opacity="0.24"/>
<circle cx="382" cy="1386" r="0.9" fill="#4c4956" opacity="0.60"/>
<circle cx="225" cy="1017" r="0.8" fill="#9b96a6" opacity="0.22"/>
<line x1="283" y1="283" x2="272" y2="289" stroke="#a9a5b6" stroke-width="1.7" opacity="0.44"/>
<line x1="76" y1="120" x2="66" y2="130" stroke="#4c4956" stroke-width="0.6" opacity="0.56"/>
<circle cx="1388" cy="1189" r="2.4" fill="#d8d5df" opacity="0.49"/>
<line x1="1676" y1="684" x2="1678" y2="676" stroke="#9b96a6" stroke-width="0.7" opacity="0.48"/>
<line x1="1535" y1="803" x2="1541" y2="804" stroke="#d8d5df" stroke-width="2.2" opacity="0.47"/>
<circle cx="652" cy="675" r="2.3" fill="#b9b4c2" opacity="0.35"/>
<circle cx="446" cy="447" r="0.8" fill="#9b96a6" opacity="0.67"/>
<line x1="297" y1="1394" x2="303" y2="1403" stroke="#4c4956" stroke-width="1.7" opacity="0.61"/>
<line x1="612" y1="1255" x2="605" y2="1267" stroke="#d8d5df" stroke-width="2.1" opacity="0.46"/>
<circle cx="1623" cy="328" r="1.8" fill="#b9b4c2" opacity="0.28"/>
<circle cx="1103" cy="1337" r="2.6" fill="#b9b4c2" opacity="0.58"/>
<circle cx="908" cy="770" r="2.2" fill="#b9b4c2" opacity="0.40"/>
<line x1="601" y1="373" x2="606" y2="363" stroke="#b9b4c2" stroke-width="1.7" opacity="0.54"/>
<circle cx="1321" cy="66" r="0.8" fill="#6e6a7c" opacity="0.68"/>
<line x1="1299" y1="1154" x2="1290" y2="1149" stroke="#a9a5b6" stroke-width="1.9" opacity="0.40"/>
<circle cx="372" cy="1690" r="1.0" fill="#6e6a7c" opacity="0.52"/>
<line x1="1175" y1="108" x2="1173" y2="107" stroke="#6e6a7c" stroke-width="0.7" opacity="0.43"/>
<circle cx="735" cy="1525" r="2.9" fill="#6e6a7c" opacity="0.31"/>
<circle cx="1295" cy="468" r="1.7" fill="#b9b4c2" opacity="0.54"/>
<circle cx="226" cy="818" r="1.0" fill="#9b96a6" opacity="0.49"/>
<line x1="235" y1="783" x2="232" y2="783" stroke="#9b96a6" stroke-width="0.8" opacity="0.44"/>
<line x1="606" y1="1303" x2="606" y2="1299" stroke="#a9a5b6" stroke-width="1.0" opacity="0.62"/>
<circle cx="638" cy="731" r="2.9" fill="#a9a5b6" opacity="0.24"/>
<line x1="1231" y1="1388" x2="1238" y2="1378" stroke="#9b96a6" stroke-width="1.9" opacity="0.24"/>
<circle cx="1106" cy="1562" r="1.4" fill="#6e6a7c" opacity="0.39"/>
<line x1="332" y1="1014" x2="339" y2="1010" stroke="#9b96a6" stroke-width="0.8" opacity="0.54"/>
<line x1="1480" y1="801" x2="1471" y2="802" stroke="#4c4956" stroke-width="2.1" opacity="0.38"/>
<line x1="499" y1="160" x2="490" y2="153" stroke="#6e6a7c" stroke-width="0.6" opacity="0.53"/>
<line x1="1439" y1="571" x2="1449" y2="571" stroke="#9b96a6" stroke-width="1.8" opacity="0.22"/>
<circle cx="1327" cy="119" r="2.5" fill="#6e6a7c" opacity="0.32"/>
<line x1="1502" y1="458" x2="1496" y2="465" stroke="#9b96a6" stroke-width="1.1" opacity="0.57"/>
<line x1="1513" y1="1271" x2="1515" y2="1271" stroke="#4c4956" stroke-width="1.5" opacity="0.55"/>
<circle cx="1507" cy="238" r="2.1" fill="#a9a5b6" opacity="0.57"/>
<line x1="142" y1="863" x2="138" y2="872" stroke="#4c4956" stroke-width="1.7" opacity="0.53"/>
<line x1="674" y1="918" x2="675" y2="921" stroke="#b9b4c2" stroke-width="1.7" opacity="0.33"/>
<line x1="884" y1="1617" x2="877" y2="1625" stroke="#6e6a7c" stroke-width="1.8" opacity="0.38"/>
<circle cx="67" cy="455" r="1.3" fill="#a9a5b6" opacity="0.60"/>
<line x1="23" y1="713" x2="34" y2="723" stroke="#b9b4c2" stroke-width="1.1" opacity="0.43"/>
<circle cx="156" cy="213" r="1.7" fill="#a9a5b6" opacity="0.53"/>
<line x1="846" y1="943" x2="851" y2="951" stroke="#a9a5b6" stroke-width="2.0" opacity="0.23"/>
<line x1="118" y1="20" x2="124" y2="13" stroke="#a9a5b6" stroke-width="0.8" opacity="0.52"/>
<line x1="1299" y1="1406" x2="1304" y2="1415" stroke="#9b96a6" stroke-width="1.8" opacity="0.56"/>
<line x1="177" y1="42" x2="182" y2="37" stroke="#b9b4c2" stroke-width="2.1" opacity="0.26"/>
<circle cx="1587" cy="933" r="1.1" fill="#a9a5b6" opacity="0.49"/>
<line x1="863" y1="843" x2="867" y2="851" stroke="#9b96a6" stroke-width="2.2" opacity="0.54"/>
<line x1="643" y1="768" x2="652" y2="758" stroke="#9b96a6" stroke-width="0.6" opacity="0.55"/>
<circle cx="508" cy="1585" r="1.7" fill="#a9a5b6" opacity="0.46"/>
<circle cx="938" cy="513" r="0.7" fill="#9b96a6" opacity="0.53"/>
<circle cx="1470" cy="848" r="2.2" fill="#a9a5b6" opacity="0.59"/>
<circle cx="743" cy="151" r="2.2" fill="#4c4956" opacity="0.52"/>
<line x1="319" y1="194" x2="311" y2="194" stroke="#a9a5b6" stroke-width="0.6" opacity="0.48"/>
<line x1="1349" y1="1154" x2="1354" y2="1165" stroke="#a9a5b6" stroke-width="1.8" opacity="0.43"/>
<line x1="174" y1="1604" x2="173" y2="1595" stroke="#a9a5b6" stroke-width="1.7" opacity="0.63"/>
<line x1="1563" y1="368" x2="1569" y2="356" stroke="#b9b4c2" stroke-width="1.5" opacity="0.36"/>
<circle cx="740" cy="1325" r="0.9" fill="#a9a5b6" opacity="0.24"/>
<line x1="1319" y1="644" x2="1309" y2="648" stroke="#b9b4c2" stroke-width="2.1" opacity="0.29"/>
<circle cx="386" cy="1526" r="2.9" fill="#9b96a6" opacity="0.55"/>
<line x1="106" y1="1466" x2="110" y2="1474" stroke="#9b96a6" stroke-width="0.7" opacity="0.53"/>
<line x1="687" y1="1406" x2="690" y2="1408" stroke="#9b96a6" stroke-width="1.1" opacity="0.35"/>
<circle cx="449" cy="956" r="1.2" fill="#a9a5b6" opacity="0.29"/>
<line x1="1648" y1="545" x2="1647" y2="551" stroke="#6e6a7c" stroke-width="0.9" opacity="0.53"/>
<line x1="967" y1="421" x2="956" y2="419" stroke="#d8d5df" stroke-width="1.7" opacity="0.49"/>
<line x1="196" y1="1240" x2="196" y2="1242" stroke="#a9a5b6" stroke-width="1.5" opacity="0.23"/>
<circle cx="611" cy="740" r="2.7" fill="#6e6a7c" opacity="0.63"/>
<line x1="812" y1="84" x2="814" y2="89" stroke="#d8d5df" stroke-width="1.7" opacity="0.49"/>
<circle cx="1281" cy="636" r="0.8" fill="#a9a5b6" opacity="0.34"/>
<line x1="1097" y1="1031" x2="1092" y2="1031" stroke="#9b96a6" stroke-width="2.0" opacity="0.55"/>
<circle cx="1447" cy="1354" r="1.7" fill="#9b96a6" opacity="0.35"/>
<line x1="1455" y1="581" x2="1447" y2="585" stroke="#4c4956" stroke-width="0.9" opacity="0.45"/>
<line x1="1156" y1="226" x2="1154" y2="222" stroke="#d8d5df" stroke-width="1.1" opacity="0.39"/>
<line x1="374" y1="2" x2="368" y2="4" stroke="#b9b4c2" stroke-width="1.7" opacity="0.60"/>
<circle cx="1652" cy="616" r="1.9" fill="#b9b4c2" opacity="0.38"/>
<line x1="1416" y1="1472" x2="1406" y2="1469" stroke="#d8d5df" stroke-width="0.9" opacity="0.39"/>
<circle cx="1232" cy="449" r="1.9" fill="#4c4956" opacity="0.27"/>
<circle cx="963" cy="554" r="1.8" fill="#b9b4c2" opacity="0.44"/>
<circle cx="1323" cy="527" r="0.9" fill="#d8d5df" opacity="0.54"/>
<circle cx="1496" cy="470" r="1.5" fill="#4c4956" opacity="0.43"/>
<line x1="547" y1="460" x2="535" y2="450" stroke="#4c4956" stroke-width="1.7" opacity="0.26"/>
<line x1="31" y1="729" x2="37" y2="734" stroke="#6e6a7c" stroke-width="1.9" opacity="0.42"/>
<circle cx="431" cy="1299" r="2.3" fill="#b9b4c2" opacity="0.21"/>
<circle cx="1083" cy="7" r="2.4" fill="#a9a5b6" opacity="0.59"/>
<circle cx="622" cy="836" r="2.9" fill="#b9b4c2" opacity="0.58"/>
<circle cx="1004" cy="1254" r="0.8" fill="#a9a5b6" opacity="0.21"/>
<line x1="1524" y1="684" x2="1533" y2="686" stroke="#b9b4c2" stroke-width="2.1" opacity="0.29"/>
<circle cx="1318" cy="1346" r="1.8" fill="#6e6a7c" opacity="0.69"/>
<circle cx="5" cy="681" r="0.8" fill="#4c4956" opacity="0.39"/>
<line x1="111" y1="1441" x2="111" y2="1448" stroke="#4c4956" stroke-width="2.0" opacity="0.50"/>
<line x1="963" y1="1597" x2="957" y2="1594" stroke="#b9b4c2" stroke-width="0.9" opacity="0.37"/>
<circle cx="1423" cy="431" r="1.0" fill="#b9b4c2" opacity="0.35"/>
<line x1="936" y1="553" x2="928" y2="543" stroke="#4c4956" stroke-width="0.6" opacity="0.29"/>
<line x1="711" y1="1516" x2="708" y2="1526" stroke="#6e6a7c" stroke-width="0.8" opacity="0.51"/>
<circle cx="77" cy="1635" r="1.3" fill="#6e6a7c" opacity="0.67"/>
<line x1="1323" y1="652" x2="1333" y2="652" stroke="#b9b4c2" stroke-width="0.7" opacity="0.46"/>
<line x1="1563" y1="223" x2="1564" y2="224" stroke="#9b96a6" stroke-width="1.7" opacity="0.34"/>
<circle cx="672" cy="488" r="1.5" fill="#9b96a6" opacity="0.63"/>
<line x1="181" y1="493" x2="178" y2="495" stroke="#d8d5df" stroke-width="1.8" opacity="0.43"/>
<circle cx="1019" cy="514" r="1.3" fill="#b9b4c2" opacity="0.39"/>
<line x1="1605" y1="616" x2="1598" y2="615" stroke="#b9b4c2" stroke-width="1.0" opacity="0.29"/>
<line x1="1091" y1="425" x2="1095" y2="423" stroke="#b9b4c2" stroke-width="1.7" opacity="0.26"/>
<circle cx="1210" cy="1680" r="1.7" fill="#6e6a7c" opacity="0.46"/>
<circle cx="1217" cy="362" r="1.3" fill="#6e6a7c" opacity="0.45"/>
<line x1="253" y1="1402" x2="242" y2="1393" stroke="#6e6a7c" stroke-width="1.3" opacity="0.37"/>
<line x1="750" y1="1558" x2="741" y2="1568" stroke="#9b96a6" stroke-width="1.4" opacity="0.31"/>
<line x1="80" y1="772" x2="86" y2="779" stroke="#6e6a7c" stroke-width="0.8" opacity="0.52"/>
<line x1="1635" y1="249" x2="1631" y2="246" stroke="#4c4956" stroke-width="0.9" opacity="0.54"/>
<line x1="1104" y1="895" x2="1100" y2="890" stroke="#b9b4c2" stroke-width="0.7" opacity="0.53"/>
<line x1="120" y1="474" x2="132" y2="471" stroke="#9b96a6" stroke-width="1.6" opacity="0.41"/>
<circle cx="880" cy="228" r="0.9" fill="#d8d5df" opacity="0.41"/>
<circle cx="19" cy="445" r="1.4" fill="#b9b4c2" opacity="0.29"/>
<circle cx="71" cy="759" r="1.3" fill="#9b96a6" opacity="0.50"/>
<circle cx="1567" cy="23" r="1.4" fill="#a9a5b6" opacity="0.52"/>
<line x1="466" y1="1355" x2="455" y2="1365" stroke="#9b96a6" stroke-width="2.1" opacity="0.57"/>
<circle cx="392" cy="31" r="1.4" fill="#a9a5b6" opacity="0.48"/>
</svg>