<svg xmlns="http://www.w3.org/2000/svg" width="1320" height="1980" viewBox="0 0 1320 1980">
<rect width="1320" height="1980" fill="#f9f4e6"/>
<rect x="171" y="-259" width="336" height="858" fill="#e6cf9e" opacity="0.33" transform="rotate(12 339 170)"/>
<rect x="-80" y="405" width="678" height="1049" fill="#c2a878" opacity="0.40" transform="rotate(-29 259 930)"/>
<rect x="-262" y="230" width="808" height="402" fill="#a89f68" opacity="0.32" transform="rotate(-18 143 431)"/>
<rect x="343" y="1574" width="296" height="506" fill="#e9dcbe" opacity="0.37" transform="rotate(10 491 1827)"/>
<rect x="203" y="1428" width="585" height="514" fill="#a89f68" opacity="0.27" transform="rotate(-5 495 1685)"/>
<rect x="325" y="-397" width="751" height="827" fill="#d4b483" opacity="0.36" transform="rotate(-11 701 16)"/>
<rect x="173" y="421" width="324" height="401" fill="#e9dcbe" opacity="0.29" transform="rotate(-22 334 621)"/>
<path d="M 375 656 Q 610 559 618 729" stroke="#c2a878" stroke-width="29" stroke-linecap="round" fill="none" opacity="0.50"/>
<path d="M 306 1344 Q 169 1381 257 1305" stroke="#e9dcbe" stroke-width="12" stroke-linecap="round" fill="none" opacity="0.70"/>
<path d="M 1261 432 Q 1262 600 1457 472" stroke="#a89f68" stroke-width="27" stroke-linecap="round" fill="none" opacity="0.76"/>
<path d="M 803 1222 Q 635 1427 607 1521" stroke="#d4b483" stroke-width="36" stroke-linecap="round" fill="none" opacity="0.64"/>
<path d="M 669 973 Q 721 957 820 801" stroke="#e6cf9e" stroke-width="15" stroke-linecap="round" fill="none" opacity="0.70"/>
<path d="M 230 469 Q 175 223 129 224" stroke="#c2a878" stroke-width="13" stroke-linecap="round" fill="none" opacity="0.48"/>
<path d="M 633 1449 Q 552 1350 196 1034" stroke="#e9dcbe" stroke-width="30" stroke-linecap="round" fill="none" opacity="0.34"/>
<path d="M 590 359 Q 871 419 927 713" stroke="#c2a878" stroke-width="29" stroke-linecap="round" fill="none" opacity="0.72"/>
<path d="M 141 334 Q 71 228 -160 15" stroke="#b49d5e" stroke-width="40" stroke-linecap="round" fill="none" opacity="0.69"/>
<path d="M 261 997 Q 444 950 577 824" stroke="#d4b483" stroke-width="28" stroke-linecap="round" fill="none" opacity="0.71"/>
<circle cx="535" cy="689" r="163" fill="#a89f68" opacity="0.55"/>
<circle cx="694" cy="784" r="158" fill="#a89f68" opacity="0.61"/>
<circle cx="720" cy="437" r="128" fill="#e9dcbe" opacity="0.39"/>
<circle cx="1185" cy="1604" r="2.5" fill="#c2a878" opacity="0.68"/>
<line x1="117" y1="986" x2="109" y2="988" stroke="#e6cf9e" stroke-width="2.1" opacity="0.50"/>
<circle cx="1236" cy="1939" r="0.9" fill="#d4b483" opacity="0.21"/>
<circle cx="956" cy="1825" r="2.3" fill="#c2a878" opacity="0.57"/>
<circle cx="478" cy="1369" r="0.7" fill="#d4b483" opacity="0.32"/>
<circle cx="978" cy="175" r="2.7" fill="#e9dcbe" opacity="0.51"/>
<line x1="1314" y1="1851" x2="1313" y2="1841" stroke="#d4b483" stroke-width="1.3" opacity="0.31"/>
<line x1="1181" y1="1262" x2="1191" y2="1272" stroke="#a89f68" stroke-width="2.2" opacity="0.48"/>
<line x1="149" y1="616" x2="155" y2="623" stroke="#c2a878" stroke-width="0.6" opacity="0.38"/>
<line x1="277" y1="1489" x2="265" y2="1483" stroke="#c2a878" stroke-width="2.1" opacity="0.38"/>
<line x1="390" y1="749" x2="379" y2="755" stroke="#b49d5e" stroke-width="0.8" opacity="0.51"/>
<line x1="837" y1="142" x2="835" y2="151" stroke="#a89f68" stroke-width="0.9" opacity="0.59"/>
<circle cx="738" cy="177" r="1.2" fill="#a89f68" opacity="0.55"/>
<line x1="1045" y1="267" x2="1034" y2="262" stroke="#c2a878" stroke-width="2.2" opacity="0.36"/>
<line x1="1084" y1="1816" x2="1093" y2="1814" stroke="#e6cf9e" stroke-width="2.2" opacity="0.21"/>
<circle cx="477" cy="1901" r="0.8" fill="#e6cf9e" opacity="0.28"/>
<line x1="1108" y1="697" x2="1097" y2="704" stroke="#e9dcbe" stroke-width="1.7" opacity="0.35"/>
<circle cx="737" cy="791" r="1.3" fill="#a89f68" opacity="0.59"/>
<line x1="1224" y1="189" x2="1218" y2="200" stroke="#b49d5e" stroke-width="0.7" opacity="0.32"/>
<circle cx="1238" cy="616" r="1.9" fill="#e9dcbe" opacity="0.51"/>
<circle cx="65" cy="1526" r="2.1" fill="#e6cf9e" opacity="0.22"/>
<line x1="1020" y1="1486" x2="1026" y2="1481" stroke="#c2a878" stroke-width="1.4" opacity="0.41"/>
<circle cx="142" cy="991" r="2.9" fill="#c2a878" opacity="0.52"/>
<line x1="1087" y1="182" x2="1080" y2="174" stroke="#d4b483" stroke-width="0.6" opacity="0.37"/>
<circle cx="867" cy="1255" r="2.9" fill="#b49d5e" opacity="0.42"/>
<line x1="1221" y1="185" x2="1212" y2="179" stroke="#e9dcbe" stroke-width="1.5" opacity="0.32"/>
<circle cx="185" cy="1022" r="2.7" fill="#a89f68" opacity="0.25"/>
<circle cx="28" cy="1498" r="2.0" fill="#e6cf9e" opacity="0.40"/>
<line x1="790" y1="1806" x2="797" y2="1804" stroke="#e9dcbe" stroke-width="1.3" opacity="0.45"/>
<line x1="182" y1="1516" x2="187" y2="1525" stroke="#e9dcbe" stroke-width="1.5" opacity="0.48"/>
<line x1="899" y1="1309" x2="895" y2="1301" stroke="#e9dcbe" stroke-width="0.6" opacity="0.46"/>
<circle cx="612" cy="1980" r="2.3" fill="#d4b483" opacity="0.36"/>
<line x1="652" y1="390" x2="644" y2="398" stroke="#c2a878" stroke-width="2.0" opacity="0.64"/>
<circle cx="617" cy="1002" r="2.1" fill="#b49d5e" opacity="0.45"/>
<circle cx="555" cy="1766" r="0.8" fill="#c2a878" opacity="0.55"/>
<circle cx="830" cy="1326" r="2.5" fill="#e9dcbe" opacity="0.48"/>
<line x1="732" y1="1606" x2="732" y2="1611" stroke="#e6cf9e" stroke-width="2.2" opacity="0.22"/>
<line x1="720" y1="502" x2="728" y2="491" stroke="#e6cf9e" stroke-width="1.7" opacity="0.54"/>
<circle cx="946" cy="1313" r="2.7" fill="#a89f68" opacity="0.36"/>
<circle cx="920" cy="1144" r="2.8" fill="#b49d5e" opacity="0.61"/>
<line x1="609" y1="1384" x2="617" y2="1376" stroke="#e9dcbe" stroke-width="2.1" opacity="0.32"/>
<line x1="347" y1="759" x2="336" y2="768" stroke="#a89f68" stroke-width="1.8" opacity="0.53"/>
<circle cx="675" cy="211" r="1.9" fill="#d4b483" opacity="0.54"/>
<line x1="832" y1="508" x2="821" y2="500" stroke="#a89f68" stroke-width="0.7" opacity="0.48"/>
<circle cx="750" cy="77" r="2.7" fill="#e9dcbe" opacity="0.42"/>
<circle cx="836" cy="1356" r="1.1" fill="#e9dcbe" opacity="0.69"/>
<line x1="532" y1="1400" x2="543" y2="1399" stroke="#a89f68" stroke-width="2.0" opacity="0.35"/>
<circle cx="784" cy="303" r="0.9" fill="#a89f68" opacity="0.36"/>
<circle cx="789" cy="1438" r="1.6" fill="#d4b483" opacity="0.28"/>
<circle cx="922" cy="773" r="1.0" fill="#e9dcbe" opacity="0.38"/>
<line x1="872" y1="240" x2="881" y2="236" stroke="#b49d5e" stroke-width="1.5" opacity="0.29"/>
<circle cx="178" cy="1672" r="1.5" fill="#e9dcbe" opacity="0.30"/>
<line x1="491" y1="1739" x2="481" y2="1745" stroke="#d4b483" stroke-width="1.8" opacity="0.27"/>
<line x1="97" y1="993" x2="87" y2="984" stroke="#e9dcbe" stroke-width="1.1" opacity="0.55"/>
<circle cx="997" cy="1354" r="1.1" fill="#e6cf9e" opacity="0.25"/>
<circle cx="43" cy="348" r="0.8" fill="#e9dcbe" opacity="0.32"/>
<circle cx="361" cy="419" r="1.5" fill="#a89f68" opacity="0.21"/>
<circle cx="754" cy="424" r="1.9" fill="#b49d5e" opacity="0.62"/>
<circle cx="31" cy="1965" r="1.0" fill="#c2a878" opacity="0.44"/>
<circle cx="681" cy="552" r="1.7" fill="#e9dcbe" opacity="0.56"/>
<line x1="1024" y1="1910" x2="1022" y2="1915" stroke="#a89f68" stroke-width="1.1" opacity="0.26"/>
<circle cx="287" cy="1547" r="2.8" fill="#a89f68" opacity="0.66"/>
<circle cx="525" cy="1853" r="1.4" fill="#d4b483" opacity="0.32"/>
<circle cx="1177" cy="1075" r="1.0" fill="#e6cf9e" opacity="0.28"/>
<circle cx="687" cy="1347" r="2.4" fill="#e6cf9e" opacity="0.26"/>
<line x1="770" y1="1631" x2="766" y2="1628" stroke="#e6cf9e" stroke-width="1.2" opacity="0.51"/>
<circle cx="1030" cy="1082" r="1.2" fill="#c2a878" opacity="0.64"/>
<circle cx="37" cy="452" r="0.9" fill="#c2a878" opacity="0.56"/>
<circle cx="1120" cy="610" r="0.7" fill="#e9dcbe" opacity="0.60"/>
<circle cx="1207" cy="711" r="2.3" fill="#a89f68" opacity="0.42"/>
<line x1="289" y1="565" x2="286" y2="557" stroke="#e6cf9e" stroke-width="1.0" opacity="0.28"/>
<line x1="590" y1="1484" x2="583" y2="1493" stroke="#e6cf9e" stroke-width="1.0" opacity="0.53"/>
<line x1="840" y1="1838" x2="840" y2="1841" stroke="#b49d5e" stroke-width="1.1" opacity="0.64"/>
<circle cx="343" cy="564" r="0.8" fill="#e6cf9e" opacity="0.39"/>
<line x1="943" y1="821" x2="937" y2="828" stroke="#d4b483" stroke-width="1.2" opacity="0.32"/>
<line x1="1303" y1="86" x2="1300" y2="75" stroke="#b49d5e" stroke-width="1.0" opacity="0.42"/>
<line x1="57" y1="1439" x2="46" y2="1436" stroke="#e9dcbe" stroke-width="1.6" opacity="0.50"/>
<line x1="589" y1="316" x2="583" y2="306" stroke="#d4b483" stroke-width="1.2" opacity="0.62"/>
<line x1="452" y1="756" x2="459" y2="756" stroke="#e9dcbe" stroke-width="2.0" opacity="0.45"/>
<circle cx="320" cy="1706" r="1.2" fill="#e9dcbe" opacity="0.29"/>
<line x1="163" y1="1747" x2="154" y2="1756" stroke="#b49d5e" stroke-width="1.9" opacity="0.36"/>
<circle cx="830" cy="328" r="0.6" fill="#a89f68" opacity="0.26"/>
<line x1="1103" y1="1416" x2="1103" y2="1417" stroke="#c2a878" stroke-width="2.1" opacity="0.38"/>
<circle cx="625" cy="1216" r="2.5" fill="#c2a878" opacity="0.37"/>
<circle cx="454" cy="1767" r="2.6" fill="#e6cf9e" opacity="0.63"/>
<circle cx="439" cy="1018" r="1.5" fill="#c2a878" opacity="0.39"/>
<line x1="275" y1="1275" x2="264" y2="1287" stroke="#d4b483" stroke-width="2.1" opacity="0.25"/>
<line x1="1054" y1="423" x2="1064" y2="419" stroke="#e9dcbe" stroke-width="1.9" opacity="0.52"/>
<line x1="225" y1="312" x2="221" y2="320" stroke="#a89f68" stroke-width="1.7" opacity="0.32"/>
<line x1="190" y1="1687" x2="180" y2="1683" stroke="#c2a878" stroke-width="0.9" opacity="0.44"/>
<line x1="529" y1="1669" x2="540" y2="1659" stroke="#b49d5e" stroke-width="1.9" opacity="0.45"/>
<line x1="74" y1="567" x2="72" y2="565" stroke="#e9dcbe" stroke-width="2.0" opacity="0.23"/>
<line x1="719" y1="890" x2="728" y2="885" stroke="#c2a878" stroke-width="0.8" opacity="0.35"/>
<line x1="1077" y1="546" x2="1081" y2="547" stroke="#a89f68" stroke-width="1.3" opacity="0.44"/>
<circle cx="1116" cy="20" r="2.0" fill="#c2a878" opacity="0.51"/>
<circle cx="991" cy="1472" r="2.7" fill="#b49d5e" opacity="0.53"/>
<line x1="1063" y1="1033" x2="1065" y2="1032" stroke="#b49d5e" stroke-width="1.0" opacity="0.21"/>
<line x1="179" y1="392" x2="171" y2="382" stroke="#a89f68" stroke-width="1.3" opacity="0.53"/>
<circle cx="1189" cy="447" r="2.9" fill="#e9dcbe" opacity="0.66"/>
<line x1="769" y1="1671" x2="768" y2="1660" stroke="#e9dcbe" stroke-width="0.9" opacity="0.31"/>
<circle cx="1195" cy="568" r="2.2" fill="#e6cf9e" opacity="0.69"/>
<circle cx="881" cy="571" r="0.9" fill="#e9dcbe" opacity="0.48"/>
<line x1="500" y1="629" x2="494" y2="637" stroke="#c2a878" stroke-width="1.8" opacity="0.34"/>
<line x1="406" y1="481" x2="413" y2="488" stroke="#b49d5e" stroke-width="1.0" opacity="0.50"/>
<circle cx="1202" cy="517" r="1.9" fill="#e9dcbe" opacity="0.44"/>
<line x1="274" y1="1830" x2="286" y2="1830" stroke="#b49d5e" stroke-width="1.9" opacity="0.45"/>
<circle cx="9" cy="1714" r="2.4" fill="#c2a878" opacity="0.56"/>
<line x1="528" y1="1042" x2="538" y2="1031" stroke="#e9dcbe" stroke-width="1.8" opacity="0.44"/>
<line x1="274" y1="1623" x2="269" y2="1625" stroke="#b49d5e" stroke-width="1.6" opacity="0.22"/>
<line x1="679" y1="98" x2="673" y2="88" stroke="#d4b483" stroke-width="2.0" opacity="0.44"/>
<circle cx="700" cy="1747" r="1.2" fill="#e9dcbe" opacity="0.60"/>
<line x1="643" y1="1026" x2="641" y2="1029" stroke="#c2a878" stroke-width="1.2" opacity="0.58"/>
<circle cx="225" cy="751" r="1.0" fill="#e9dcbe" opacity="0.26"/>
<circle cx="178" cy="534" r="3.0" fill="#b49d5e" opacity="0.45"/>
<circle cx="745" cy="1775" r="2.6" fill="#e6cf9e" opacity="0.45"/>
<line x1="913" y1="1617" x2="915" y2="1614" stroke="#e6cf9e" stroke-width="1.5" opacity="0.27"/>
<line x1="931" y1="308" x2="933" y2="298" stroke="#a89f68" stroke-width="1.7" opacity="0.27"/>
<line x1="504" y1="726" x2="507" y2="731" stroke="#e9dcbe" stroke-width="1.3" opacity="0.49"/>
<circle cx="696" cy="1806" r="1.6" fill="#d4b483" opacity="0.44"/>
<circle cx="1082" cy="1267" r="1.1" fill="#e6cf9e" opacity="0.48"/>
<line x1="785" y1="172" x2="777" y2="167" stroke="#c2a878" stroke-width="0.9" opacity="0.30"/>
<circle cx="300" cy="1802" r="1.1" fill="#e9dcbe" opacity="0.26"/>
<circle cx="961" cy="291" r="2.1" fill="#d4b483" opacity="0.36"/>
<circle cx="304" cy="143" r="2.2" fill="#c2a878" opacity="0.34"/>
<circle cx="114" cy="616" r="3.0" fill="#c2a878" opacity="0.50"/>
<line x1="353" y1="1881" x2="341" y2="1887" stroke="#a89f68" stroke-width="1.1" opacity="0.43"/>
<circle cx="517" cy="1733" r="1.7" fill="#c2a878" opacity="0.30"/>
<circle cx="174" cy="1451" r="1.1" fill="#e9dcbe" opacity="0.33"/>
<line x1="127" y1="728" x2="130" y2="722" stroke="#c2a878" stroke-width="1.1" opacity="0.37"/>
<circle cx="1032" cy="611" r="2.8" fill="#d4b483" opacity="0.55"/>
<circle cx="548" cy="691" r="1.8" fill="#a89f68" opacity="0.68"/>
<line x1="801" y1="497" x2="793" y2="495" stroke="#a89f68" stroke-width="1.8" opacity="0.30"/>
<circle cx="1098" cy="830" r="2.6" fill="#c2a878" opacity="0.62"/>
<circle cx="710" cy="1345" r="2.2" fill="#c2a878" opacity="0.30"/>
<circle cx="182" cy="864" r="1.6" fill="#e9dcbe" opacity="0.52"/>
<circle cx="920" cy="1405" r="2.7" fill="#e9dcbe" opacity="0.32"/>
<line x1="471" y1="1468" x2="466" y2="1471" stroke="#e6cf9e" stroke-width="1.1" opacity="0.28"/>
<circle cx="658" cy="942" r="1.5" fill="#a89f68" opacity="0.28"/>
<line x1="737" y1="809" x2="729" y2="809" stroke="#e9dcbe" stroke-width="0.8" opacity="0.54"/>
<circle cx="1037" cy="1797" r="1.7" fill="#d4b483" opacity="0.54"/>
<circle cx="523" cy="1847" r="1.4" fill="#a89f68" opacity="0.67"/>
<circle cx="240" cy="475" r="2.0" fill="#c2a878" opacity="0.70"/>
<circle cx="1260" cy="29" r="1.0" fill="#c2a878" opacity="0.53"/>
<line x1="630" y1="1345" x2="634" y2="1353" stroke="#e6cf9e" stroke-width="1.1" opacity="0.58"/>
<circle cx="1089" cy="1621" r="1.1" fill="#d4b483" opacity="0.64"/>
<circle cx="681" cy="1124" r="1.9" fill="#a89f68" opacity="0.37"/>
<line x1="1240" y1="1807" x2="1248" y2="1803" stroke="#e9dcbe" stroke-width="0.6" opacity="0.23"/>
<line x1="97" y1="1210" x2="92" y2="1209" stroke="#a89f68" stroke-width="1.1" opacity="0.56"/>
<line x1="1033" y1="1744" x2="1029" y2="1754" stroke="#c2a878" stroke-width="0.9" opacity="0.36"/>
<line x1="1010" y1="1785" x2="1005" y2="1783" stroke="#e6cf9e" stroke-width="1.3" opacity="0.34"/>
<circle cx="945" cy="1486" r="1.8" fill="#c2a878" opacity="0.42"/>
<circle cx="585" cy="23" r="0.8" fill="#a89f68" opacity="0.52"/>
<circle cx="20" cy="1243" r="0.9" fill="#a89f68" opacity="0.66"/>
<circle cx="43" cy="156" r="2.4" fill="#d4b483" opacity="0.59"/>
<circle cx="895" cy="792" r="1.4" fill="#d4b483" opacity="0.42"/>
<line x1="255" y1="215" x2="260" y2="209" stroke="#e6cf9e" stroke-width="1.9" opacity="0.48"/>
<line x1="1273" y1="1351" x2="1284" y2="1349" stroke="#b49d5e" stroke-width="2.1" opacity="0.36"/>
<line x1="487" y1="316" x2="484" y2="307" stroke="#d4b483" stroke-width="1.6" opacity="0.47"/>
<line x1="941" y1="1398" x2="930" y2="1407" stroke="#c2a878" stroke-width="1.3" opacity="0.63"/>
<line x1="927" y1="1799" x2="921" y2="1809" stroke="#b49d5e" stroke-width="1.0" opacity="0.53"/>
<line x1="329" y1="518" x2="334" y2="519" stroke="#d4b483" stroke-width="1.3" opacity="0.54"/>
<line x1="121" y1="429" x2="127" y2="432" stroke="#e6cf9e" stroke-width="1.5" opacity="0.43"/>
<circle cx="300" cy="1570" r="1.6" fill="#a89f68" opacity="0.22"/>
<circle cx="50" cy="426" r="2.4" fill="#a89f68" opacity="0.37"/>
<circle cx="1192" cy="666" r="2.9" fill="#b49d5e" opacity="0.37"/>
<line x1="290" y1="1379" x2="296" y2="1389" stroke="#b49d5e" stroke-width="0.6" opacity="0.45"/>
<line x1="215" y1="1840" x2="207" y2="1829" stroke="#e9dcbe" stroke-width="0.7" opacity="0.23"/>
<circle cx="925" cy="609" r="1.3" fill="#e9dcbe" opacity="0.58"/>
<line x1="263" y1="1142" x2="263" y2="1152" stroke="#a89f68" stroke-width="2.2" opacity="0.34"/>
<line x1="754" y1="1718" x2="751" y2="1728" stroke="#b49d5e" stroke-width="1.1" opacity="0.43"/>
<line x1="403" y1="580" x2="403" y2="589" stroke="#b49d5e" stroke-width="1.9" opacity="0.45"/>
<line x1="656" y1="1829" x2="652" y2="1840" stroke="#b49d5e" stroke-width="2.0" opacity="0.39"/>
<line x1="1251" y1="422" x2="1258" y2="418" stroke="#d4b483" stroke-width="1.0" opacity="0.39"/>
<circle cx="952" cy="460" r="1.0" fill="#d4b483" opacity="0.35"/>
<line x1="785" y1="101" x2="785" y2="95" stroke="#a89f68" stroke-width="1.9" opacity="0.29"/>
<line x1="569" y1="1276" x2="562" y2="1269" stroke="#e6cf9e" stroke-width="1.4" opacity="0.33"/>
<line x1="1108" y1="636" x2="1106" y2="645" stroke="#a89f68" stroke-width="0.9" opacity="0.56"/>
<line x1="510" y1="1676" x2="502" y2="1678" stroke="#a89f68" stroke-width="1.8" opacity="0.44"/>
<line x1="448" y1="1214" x2="460" y2="1213" stroke="#c2a878" stroke-width="1.6" opacity="0.47"/>
<circle cx="284" cy="1329" r="0.8" fill="#e9dcbe" opacity="0.61"/>
<line x1="538" y1="827" x2="546" y2="821" stroke="#e9dcbe" stroke-width="1.4" opacity="0.26"/>
<circle cx="343" cy="970" r="2.5" fill="#c2a878" opacity="0.63"/>
<circle cx="1157" cy="313" r="2.2" fill="#e6cf9e" opacity="0.42"/>
<circle cx="390" cy="1351" r="1.6" fill="#e6cf9e" opacity="0.68"/>
<line x1="486" y1="43" x2="478" y2="41" stroke="#e9dcbe" stroke-width="1.5" opacity="0.62"/>
<circle cx="543" cy="1139" r="2.1" fill="#a89f68" opacity="0.63"/>
<circle cx="69" cy="1410" r="1.3" fill="#e9dcbe" opacity="0.60"/>
<circle cx="898" cy="600" r="1.5" fill="#a89f68" opacity="0.23"/>
<line x1="411" y1="432" x2="421" y2="421" stroke="#e6cf9e" stroke-width="2.1" opacity="0.58"/>
<line x1="1235" y1="832" x2="1240" y2="843" stroke="#e6cf9e" stroke-width="1.8" opacity="0.41"/>
<line x1="1283" y1="1239" x2="1292" y2="1245" stroke="#e6cf9e" stroke-width="1.5" opacity="0.26"/>
<line x1="489" y1="1874" x2="491" y2="1863" stroke="#d4b483" stroke-width="1.8" opacity="0.31"/>
<circle cx="157" cy="382" r="0.7" fill="#a89f68" opacity="0.43"/>
<circle cx="892" cy="107" r="1.2" fill="#c2a878" opacity="0.50"/>
<circle cx="1250" cy="90" r="2.2" fill="#e9dcbe" opacity="0.66"/>
<circle cx="914" cy="1499" r="2.9" fill="#b49d5e" opacity="0.63"/>
<line x1="514" y1="1181" x2="514" y2="1177" stroke="#e9dcbe" stroke-width="1.3" opacity="0.22"/>
<circle cx="749" cy="167" r="1.6" fill="#e9dcbe" opacity="0.65"/>
<circle cx="458" cy="652" r="1.5" fill="#b49d5e" opacity="0.28"/>
<line x1="1269" y1="266" x2="1272" y2="261" stroke="#e9dcbe" stroke-width="0.7" opacity="0.49"/>
<circle cx="1284" cy="1899" r="2.5" fill="#d4b483" opacity="0.43"/>
<line x1="934" y1="1245" x2="922" y2="1254" stroke="#e9dcbe" stroke-width="2.1" opacity="0.32"/>
<circle cx="477" cy="359" r="2.9" fill="#c2a878" opacity="0.26"/>
<line x1="1040" y1="1913" x2="1033" y2="1917" stroke="#a89f68" stroke-width="0.9" opacity="0.21"/>
<circle cx="23" cy="128" r="0.9" fill="#c2a878" opacity="0.40"/>
<line x1="546" y1="1894" x2="550" y2="1896" stroke="#a89f68" stroke-width="1.1" opacity="0.30"/>
<circle cx="476" cy="92" r="3.0" fill="#b49d5e" opacity="0.66"/>
<circle cx="238" cy="181" r="2.1" fill="#a89f68" opacity="0.49"/>
<line x1="378" y1="1143" x2="377" y2="1144" stroke="#e9dcbe" stroke-width="1.6" opacity="0.61"/>
<circle cx="33" cy="753" r="2.1" fill="#b49d5e" opacity="0.33"/>
<circle cx="680" cy="1277" r="2.5" fill="#e6cf9e" opacity="0.33"/>
<circle cx="988" cy="1340" r="1.5" fill="#e6cf9e" opacity="0.60"/>
<line x1="29" y1="1944" x2="37" y2="1947" stroke="#d4b483" stroke-width="1.7" opacity="0.24"/>
<circle cx="1271" cy="184" r="1.3" fill="#e6cf9e" opacity="0.26"/>
<line x1="474" y1="63" x2="464" y2="67" stroke="#e6cf9e" stroke-width="1.3" opacity="0.35"/>
<circle cx="308" cy="1949" r="2.3" fill="#d4b483" opacity="0.59"/>
<line x1="816" y1="1075" x2="816" y2="1073" stroke="#c2a878" stroke-width="1.4" opacity="0.42"/>
<circle cx="1034" cy="1934" r="2.0" fill="#b49d5e" opacity="0.52"/>
<line x1="294" y1="1717" x2="292" y2="1722" stroke="#e6cf9e" stroke-width="0.6" opacity="0.40"/>
<line x1="426" y1="797" x2="437" y2="794" stroke="#e9dcbe" stroke-width="2.0" opacity="0.55"/>
<line x1="1132" y1="1505" x2="1128" y2="1493" stroke="#d4b483" stroke-width="2.0" opacity="0.34"/>
<line x1="982" y1="171" x2="989" y2="174" stroke="#b49d5e" stroke-width="1.0" opacity="0.61"/>
<line x1="1120" y1="699" x2="1118" y2="711" stroke="#e9dcbe" stroke-width="2.2" opacity="0.38"/>
<circle cx="536" cy="1518" r="1.1" fill="#d4b483" opacity="0.54"/>
<line x1="1244" y1="600" x2="1238" y2="597" stroke="#a89f68" stroke-width="1.6" opacity="0.42"/>
<circle cx="843" cy="1534" r="2.8" fill="#a89f68" opacity="0.56"/>
<line x1="340" y1="225" x2="335" y2="216" stroke="#e9dcbe" stroke-width="1.0" opacity="0.50"/>
<line x1="677" y1="1383" x2="685" y2="1376" stroke="#e6cf9e" stroke-width="1.8" opacity="0.27"/>
<circle cx="927" cy="903" r="2.5" fill="#b49d5e" opacity="0.26"/>
<circle cx="203" cy="295" r="2.3" fill="#a89f68" opacity="0.70"/>
<line x1="932" y1="1971" x2="925" y2="1962" stroke="#b49d5e" stroke-width="1.0" opacity="0.60"/>
<circle cx="646" cy="791" r="1.9" fill="#e6cf9e" opacity="0.61"/>
<line x1="391" y1="1758" x2="393" y2="1761" stroke="#e6cf9e" stroke-width="1.7" opacity="0.52"/>
<line x1="467" y1="755" x2="470" y2="759" stroke="#c2a878" stroke-width="2.1" opacity="0.43"/>
<circle cx="322" cy="639" r="1.0" fill="#a89f68" opacity="0.32"/>
<line x1="592" y1="525" x2="589" y2="532" stroke="#e9dcbe" stroke-width="1.6" opacity="0.35"/>
<circle cx="1191" cy="736" r="2.1" fill="#e6cf9e" opacity="0.30"/>
<line x1="668" y1="348" x2="659" y2="346" stroke="#e9dcbe" stroke-width="1.6" opacity="0.26"/>
<circle cx="1162" cy="71" r="1.1" fill="#d4b483" opacity="0.33"/>
<circle cx="1155" cy="1859" r="3.0" fill="#a89f68" opacity="0.26"/>
<circle cx="1297" cy="219" r="2.6" fill="#b49d5e" opacity="0.34"/>
<line x1="615" y1="147" x2="613" y2="143" stroke="#e6cf9e" stroke-width="1.0" opacity="0.35"/>
<circle cx="1170" cy="786" r="1.9" fill="#d4b483" opacity="0.39"/>
<circle cx="181" cy="602" r="1.7" fill="#b49d5e" opacity="0.43"/>
<line x1="982" y1="1392" x2="974" y2="1402" stroke="#c2a878" stroke-width="2.2" opacity="0.23"/>
<circle cx="233" cy="1055" r="1.6" fill="#e9dcbe" opacity="0.30"/>
<line x1="1246" y1="1330" x2="1251" y2="1335" stroke="#e6cf9e" stroke-width="1.2" opacity="0.30"/>
<circle cx="1188" cy="1230" r="1.4" fill="#e6cf9e" opacity="0.46"/>
<line x1="839" y1="1204" x2="844" y2="1205" stroke="#a89f68" stroke-width="1.0" opacity="0.58"/>
<line x1="1103" y1="340" x2="1112" y2="340" stroke="#e6cf9e" stroke-width="1.1" opacity="0.53"/>
<circle cx="1216" cy="1052" r="0.7" fill="#c2a878" opacity="0.38"/>
<line x1="666" y1="14" x2="661" y2="9" stroke="#e9dcbe" stroke-width="0.8" opacity="0.32"/>
<line x1="797" y1="1707" x2="795" y2="1710" stroke="#e9dcbe" stroke-width="2.1" opacity="0.35"/>
<line x1="990" y1="889" x2="985" y2="896" stroke="#e9dcbe" stroke-width="1.1" opacity="0.52"/>
<line x1="790" y1="145" x2="786" y2="134" stroke="#e6cf9e" stroke-width="1.1" opacity="0.50"/>
<line x1="520" y1="1829" x2="518" y2="1826" stroke="#d4b483" stroke-width="1.3" opacity="0.49"/>
<line x1="1109" y1="739" x2="1102" y2="750" stroke="#b49d5e" stroke-width="1.2" opacity="0.51"/>
<line x1="1032" y1="1660" x2="1039" y2="1662" stroke="#e9dcbe" stroke-width="0.7" opacity="0.51"/>
<circle cx="919" cy="405" r="1.8" fill="#a89f68" opacity="0.25"/>
<circle cx="200" cy="1764" r="2.5" fill="#a89f68" opacity="0.35"/>
<line x1="134" y1="1871" x2="128" y2="1863" stroke="#d4b483" stroke-width="0.8" opacity="0.53"/>
<circle cx="698" cy="661" r="0.6" fill="#e9dcbe" opacity="0.32"/>
<circle cx="446" cy="1386" r="1.2" fill="#a89f68" opacity="0.39"/>
<circle cx="1049" cy="1510" r="1.3" fill="#a89f68" opacity="0.56"/>
<line x1="1296" y1="164" x2="1305" y2="153" stroke="#e9dcbe" stroke-width="1.7" opacity="0.51"/>
<circle cx="667" cy="191" r="2.0" fill="#e9dcbe" opacity="0.41"/>
<circle cx="1071" cy="438" r="1.8" fill="#b49d5e" opacity="0.34"/>
<line x1="65" y1="48" x2="65" y2="57" stroke="#e6cf9e" stroke-width="1.4" opacity="0.33"/>
<circle cx="851" cy="1033" r="1.1" fill="#a89f68" opacity="0.22"/>
<circle cx="955" cy="1190" r="1.6" fill="#c2a878" opacity="0.52"/>
<circle cx="22" cy="1020" r="2.7" fill="#e6cf9e" opacity="0.23"/>
<circle cx="81" cy="247" r="0.7" fill="#a89f68" opacity="0.68"/>
<circle cx="1177" cy="1606" r="1.4" fill="#a89f68" opacity="0.62"/>
<circle cx="1235" cy="356" r="2.1" fill="#b49d5e" opacity="0.65"/>
<line x1="525" y1="598" x2="513" y2="587" stroke="#e6cf9e" stroke-width="0.6" opacity="0.51"/>
<line x1="705" y1="121" x2="704" y2="111" stroke="#d4b483" stroke-width="0.9" opacity="0.50"/>
<line x1="952" y1="643" x2="956" y2="651" stroke="#d4b483" stroke-width="1.9" opacity="0.30"/>
<line x1="243" y1="446" x2="250" y2="434" stroke="#c2a878" stroke-width="1.6" opacity="0.29"/>
<line x1="1298" y1="436" x2="1297" y2="425" stroke="#d4b483" stroke-width="0.8" opacity="0.38"/>
<circle cx="981" cy="1122" r="2.6" fill="#e9dcbe" opacity="0.30"/>
<line x1="1205" y1="1187" x2="1214" y2="1179" stroke="#e6cf9e" stroke-width="1.8" opacity="0.21"/>
<circle cx="955" cy="520" r="2.0" fill="#c2a878" opacity="0.34"/>
<circle cx="1154" cy="577" r="2.3" fill="#a89f68" opacity="0.64"/>
<circle cx="92" cy="1360" r="1.9" fill="#e9dcbe" opacity="0.67"/>
<circle cx="864" cy="256" r="1.6" fill="#b49d5e" opacity="0.70"/>
<line x1="658" y1="1651" x2="666" y2="1650" stroke="#b49d5e" stroke-width="2.1" opacity="0.47"/>
<circle cx="301" cy="412" r="1.6" fill="#b49d5e" opacity="0.58"/>
<circle cx="1164" cy="363" r="1.0" fill="#d4b483" opacity="0.27"/>
<circle cx="1146" cy="1564" r="2.2" fill="#d4b483" opacity="0.25"/>
<circle cx="806" cy="223" r="1.8" fill="#e6cf9e" opacity="0.36"/>
<line x1="23" y1="808" x2="18" y2="819" stroke="#d4b483" stroke-width="1.2" opacity="0.63"/>
<circle cx="1143" cy="888" r="1.6" fill="#b49d5e" opacity="0.32"/>
<circle cx="708" cy="983" r="1.5" fill="#a89f68" opacity="0.52"/>
<line x1="754" y1="606" x2="748" y2="607" stroke="#c2a878" stroke-width="1.0" opacity="0.27"/>
<line x1="22" y1="592" x2="24" y2="585" stroke="#a89f68" stroke-width="1.4" opacity="0.59"/>
<circle cx="736" cy="1647" r="1.1" fill="#c2a878" opacity="0.21"/>
<line x1="484" y1="1323" x2="485" y2="1333" stroke="#d4b483" stroke-width="1.9" opacity="0.38"/>
<circle cx="1108" cy="1462" r="0.9" fill="#e9dcbe" opacity="0.30"/>
<line x1="910" y1="1735" x2="901" y2="1737" stroke="#e9dcbe" stroke-width="1.7" opacity="0.53"/>
<circle cx="739" cy="891" r="1.1" fill="#c2a878" opacity="0.47"/>
<line x1="477" y1="1035" x2="479" y2="1032" stroke="#c2a878" stroke-width="1.3" opacity="0.43"/>
<line x1="891" y1="1277" x2="888" y2="1271" stroke="#a89f68" stroke-width="1.7" opacity="0.48"/>
<circle cx="51" cy="759" r="1.3" fill="#d4b483" opacity="0.30"/>
<line x1="434" y1="162" x2="428" y2="155" stroke="#e9dcbe" stroke-width="0.6" opacity="0.46"/>
<line x1="298" y1="1792" x2="287" y2="1803" stroke="#c2a878" stroke-width="2.1" opacity="0.27"/>
<circle cx="1265" cy="1461" r="2.8" fill="#c2a878" opacity="0.46"/>
<line x1="341" y1="388" x2="338" y2="385" stroke="#e9dcbe" stroke-width="1.3" opacity="0.23"/>
<circle cx="219" cy="1617" r="2.8" fill="#c2a878" opacity="0.24"/>
<circle cx="1286" cy="1731" r="0.6" fill="#d4b483" opacity="0.24"/>
<line x1="800" y1="1700" x2="802" y2="1692" stroke="#e9dcbe" stroke-width="0.7" opacity="0.56"/>
<circle cx="1111" cy="811" r="1.4" fill="#d4b483" opacity="0.28"/>
<line x1="84" y1="1150" x2="74" y2="1143" stroke="#e6cf9e" stroke-width="2.1" opacity="0.49"/>
<circle cx="1236" cy="56" r="2.4" fill="#c2a878" opacity="0.55"/>
<line x1="359" y1="667" x2="361" y2="678" stroke="#e6cf9e" stroke-width="2.2" opacity="0.45"/>
<line x1="527" y1="563" x2="518" y2="562" stroke="#e6cf9e" stroke-width="0.6" opacity="0.37"/>
<circle cx="1003" cy="1887" r="2.1" fill="#e6cf9e" opacity="0.44"/>
<line x1="112" y1="622" x2="116" y2="624" stroke="#d4b483" stroke-width="0.6" opacity="0.30"/>
<circle cx="1247" cy="159" r="0.9" fill="#e6cf9e" opacity="0.40"/>
<circle cx="347" cy="703" r="2.1" fill="#c2a878" opacity="0.23"/>
<line x1="288" y1="89" x2="293" y2="100" stroke="#e6cf9e" stroke-width="0.9" opacity="0.56"/>
<line x1="601" y1="875" x2="609" y2="878" stroke="#e9dcbe" stroke-width="0.7" opacity="0.24"/>
<circle cx="93" cy="1280" r="0.7" fill="#c2a878" opacity="0.21"/>
<circle cx="775" cy="1500" r="2.4" fill="#e6cf9e" opacity="0.41"/>
<circle cx="863" cy="1297" r="2.3" fill="#b49d5e" opacity="0.59"/>
<line x1="731" y1="99" x2="719" y2="111" stroke="#e9dcbe" stroke-width="1.1" opacity="0.31"/>
<line x1="811" y1="259" x2="810" y2="270" stroke="#c2a878" stroke-width="2.1" opacity="0.23"/>
<circle cx="106" cy="472" r="2.3" fill="#e9dcbe" opacity="0.36"/>
<line x1="222" y1="724" x2="226" y2="736" stroke="#d4b483" stroke-width="0.9" opacity="0.24"/>
<line x1="756" y1="887" x2="761" y2="899" stroke="#a89f68" stroke-width="1.8" opacity="0.37"/>
<circle cx="1268" cy="1331" r="1.4" fill="#e6cf9e" opacity="0.21"/>
<circle cx="1032" cy="667" r="2.3" fill="#d4b483" opacity="0.39"/>
<line x1="582" y1="898" x2="587" y2="909" stroke="#c2a878" stroke-width="1.5" opacity="0.34"/>
<circle cx="541" cy="586" r="1.4" fill="#d4b483" opacity="0.22"/>
<circle cx="44" cy="1615" r="2.6" fill="#e9dcbe" opacity="0.39"/>
<line x1="264" y1="1552" x2="263" y2="1552" stroke="#a89f68" stroke-width="0.7" opacity="0.63"/>
<line x1="388" y1="1390" x2="389" y2="1391" stroke="#e9dcbe" stroke-width="1.4" opacity="0.47"/>
<line x1="265" y1="326" x2="269" y2="325" stroke="#b49d5e" stroke-width="2.0" opacity="0.58"/>
<line x1="71" y1="896" x2="81" y2="896" stroke="#e6cf9e" stroke-width="1.1" opacity="0.63"/>
<line x1="1195" y1="1978" x2="1196" y2="1988" stroke="#e6cf9e" stroke-width="1.9" opacity="0.43"/>
<circle cx="124" cy="363" r="1.2" fill="#a89f68" opacity="0.20"/>
<circle cx="1226" cy="707" r="2.3" fill="#d4b483" opacity="0.67"/>
<line x1="1297" y1="563" x2="1293" y2="556" stroke="#c2a878" stroke-width="1.9" opacity="0.21"/>
<circle cx="1218" cy="745" r="1.0" fill="#b49d5e" opacity="0.27"/>
<circle cx="1031" cy="1186" r="1.2" fill="#e6cf9e" opacity="0.49"/>
<line x1="1268" y1="231" x2="1272" y2="238" stroke="#d4b483" stroke-width="0.7" opacity="0.29"/>
<line x1="231" y1="410" x2="230" y2="419" stroke="#a89f68" stroke-width="0.7" opacity="0.49"/>
<line x1="1098" y1="1495" x2="1106" y2="1500" stroke="#a89f68" stroke-width="1.6" opacity="0.57"/>
<circle cx="1141" cy="792" r="2.2" fill="#b49d5e" opacity="0.63"/>
<line x1="156" y1="1899" x2="153" y2="1888" stroke="#c2a878" stroke-width="1.6" opacity="0.63"/>
<line x1="1108" y1="75" x2="1104" y2="71" stroke="#a89f68" stroke-width="1.1" opacity="0.50"/>
<line x1="227" y1="129" x2="237" y2="119" stroke="#c2a878" stroke-width="1.6" opacity="0.42"/>
<line x1="1251" y1="997" x2="1249" y2="987" stroke="#e9dcbe" stroke-width="0.9" opacity="0.59"/>
<line x1="244" y1="1463" x2="249" y2="1461" stroke="#a89f68" stroke-width="1.9" opacity="0.41"/>
<circle cx="174" cy="1212" r="1.0" fill="#a89f68" opacity="0.46"/>
<line x1="989" y1="1425" x2="978" y2="1420" stroke="#e6cf9e" stroke-width="2.1" opacity="0.44"/>
<line x1="204" y1="117" x2="206" y2="121" stroke="#d4b483" stroke-width="1.6" opacity="0.27"/>
<line x1="547" y1="1321" x2="541" y2="1315" stroke="#e9dcbe" stroke-width="0.8" opacity="0.55"/>
<line x1="95" y1="1624" x2="92" y2="1615" stroke="#d4b483" stroke-width="0.9" opacity="0.52"/>
<circle cx="913" cy="1541" r="1.2" fill="#d4b483" opacity="0.38"/>
<line x1="329" y1="385" x2="323" y2="381" stroke="#d4b483" stroke-width="1.8" opacity="0.61"/>
<line x1="737" y1="1462" x2="733" y2="1461" stroke="#d4b483" stroke-width="2.1" opacity="0.24"/>
<line x1="1120" y1="514" x2="1115" y2="518" stroke="#a89f68" stroke-width="1.0" opacity="0.62"/>
<line x1="408" y1="883" x2="408" y2="886" stroke="#e9dcbe" stroke-width="0.9" opacity="0.33"/>
<line x1="1104" y1="247" x2="1096" y2="255" stroke="#b49d5e" stroke-width="1.2" opacity="0.46"/>
<circle cx="796" cy="1386" r="2.1" fill="#e6cf9e" opacity="0.34"/>
<line x1="317" y1="245" x2="320" y2="244" stroke="#c2a878" stroke-width="1.8" opacity="0.33"/>
<line x1="1106" y1="1859" x2="1097" y2="1859" stroke="#d4b483" stroke-width="1.4" opacity="0.54"/>
<circle cx="377" cy="429" r="1.8" fill="#b49d5e" opacity="0.70"/>
<circle cx="388" cy="1693" r="1.3" fill="#a89f68" opacity="0.28"/>
<circle cx="528" cy="1699" r="2.5" fill="#e6cf9e" opacity="0.29"/>
<circle cx="330" cy="336" r="2.0" fill="#b49d5e" opacity="0.30"/>
<circle cx="155" cy="1384" r="0.9" fill="#a89f68" opacity="0.53"/>
<circle cx="525" cy="1620" r="1.0" fill="#a89f68" opacity="0.22"/>
<circle cx="1270" cy="415" r="0.9" fill="#e6cf9e" opacity="0.49"/>
<circle cx="301" cy="538" r="0.6" fill="#d4b483" opacity="0.24"/>
<circle cx="520" cy="908" r="1.8" fill="#a89f68" opacity="0.54"/>
<circle cx="117" cy="1713" r="1.1" fill="#e9dcbe" opacity="0.63"/>
<circle cx="668" cy="1152" r="2.4" fill="#b49d5e" opacity="0.21"/>
<line x1="351" y1="1886" x2="347" y2="1875" stroke="#b49d5e" stroke-width="1.5" opacity="0.37"/>
<circle cx="804" cy="360" r="2.4" fill="#e9dcbe" opacity="0.63"/>
<line x1="982" y1="154" x2="991" y2="150" stroke="#c2a878" stroke-width="0.9" opacity="0.47"/>
<circle cx="635" cy="1718" r="2.3" fill="#b49d5e" opacity="0.27"/>
<circle cx="765" cy="1127" r="2.1" fill="#b49d5e" opacity="0.68"/>
<circle cx="746" cy="8" r="1.5" fill="#d4b483" opacity="0.22"/>
<line x1="926" y1="136" x2="921" y2="134" stroke="#d4b483" stroke-width="1.7" opacity="0.21"/>
<circle cx="983" cy="115" r="2.9" fill="#e9dcbe" opacity="0.44"/>
<circle cx="1080" cy="876" r="0.9" fill="#a89f68" opacity="0.27"/>
<line x1="1077" y1="1247" x2="1080" y2="1241" stroke="#e6cf9e" stroke-width="1.1" opacity="0.23"/>
<circle cx="1135" cy="1849" r="1.3" fill="#a89f68" opacity="0.26"/>
<line x1="399" y1="1190" x2="407" y2="1181" stroke="#e6cf9e" stroke-width="0.8" opacity="0.32"/>
<circle cx="530" cy="607" r="1.4" fill="#c2a878" opacity="0.25"/>
<line x1="380" y1="1162" x2="371" y2="1150" stroke="#a89f68" stroke-width="1.5" opacity="0.47"/>
<line x1="540" y1="1595" x2="539" y2="1596" stroke="#e6cf9e" stroke-width="1.4" opacity="0.30"/>
<line x1="637" y1="1081" x2="630" y2="1074" stroke="#e9dcbe" stroke-width="1.2" opacity="0.35"/>
<circle cx="887" cy="601" r="2.4" fill="#b49d5e" opacity="0.59"/>
<line x1="111" y1="826" x2="111" y2="817" stroke="#d4b483" stroke-width="1.3" opacity="0.23"/>
<circle cx="298" cy="96" r="2.2" fill="#d4b483" opacity="0.36"/>
<line x1="603" y1="740" x2="600" y2="743" stroke="#a89f68" stroke-width="1.4" opacity="0.35"/>
<circle cx="620" cy="932" r="0.9" fill="#e9dcbe" opacity="0.42"/>
<circle cx="579" cy="1531" r="1.0" fill="#b49d5e" opacity="0.36"/>
<line x1="589" y1="787" x2="577" y2="793" stroke="#c2a878" stroke-width="1.7" opacity="0.34"/>
<line x1="272" y1="1469" x2="280" y2="1464" stroke="#c2a878" stroke-width="1.6" opacity="0.47"/>
<circle cx="368" cy="807" r="2.5" fill="#b49d5e" opacity="0.21"/>
<circle cx="1204" cy="293" r="1.7" fill="#d4b483" opacity="0.64"/>
<line x1="535" y1="1270" x2="527" y2="1277" stroke="#e9dcbe" stroke-width="1.4" opacity="0.26"/>
<circle cx="1236" cy="1933" r="2.2" fill="#d4b483" opacity="0.35"/>
<line x1="774" y1="818" x2="768" y2="827" stroke="#e6cf9e" stroke-width="2.1" opacity="0.35"/>
<circle cx="195" cy="66" r="2.3" fill="#d4b483" opacity="0.61"/>
<line x1="1149" y1="1464" x2="1156" y2="1471" stroke="#d4b483" stroke-width="2.0" opacity="0.51"/>
<line x1="291" y1="68" x2="291" y2="62" stroke="#c2a878" stroke-width="1.0" opacity="0.29"/>
<line x1="793" y1="388" x2="794" y2="377" stroke="#e6cf9e" stroke-width="1.9" opacity="0.60"/>
<circle cx="64" cy="1203" r="1.1" fill="#e6cf9e" opacity="0.70"/>
<circle cx="54" cy="929" r="0.7" fill="#d4b483" opacity="0.35"/>
<line x1="1072" y1="339" x2="1061" y2="327" stroke="#e9dcbe" stroke-width="1.2" opacity="0.60"/>
<circle cx="344" cy="983" r="3.0" fill="#e9dcbe" opacity="0.58"/>
<line x1="244" y1="1844" x2="250" y2="1841" stroke="#e9dcbe" stroke-width="0.9" opacity="0.43"/>
<line x1="1025" y1="168" x2="1030" y2="161" stroke="#c2a878" stroke-width="1.6" opacity="0.56"/>
<line x1="533" y1="860" x2="529" y2="869" stroke="#a89f68" stroke-width="1.4" opacity="0.49"/>
<line x1="728" y1="1143" x2="730" y2="1142" stroke="#b49d5e" stroke-width="0.8" opacity="0.58"/>
<line x1="1082" y1="668" x2="1090" y2="669" stroke="#d4b483" stroke-width="2.2" opacity="0.36"/>
<circle cx="841" cy="66" r="2.9" fill="#e9dcbe" opacity="0.48"/>
<line x1="907" y1="1573" x2="902" y2="1568" stroke="#e9dcbe" stroke-width="1.2" opacity="0.41"/>
<line x1="199" y1="84" x2="200" y2="88" stroke="#d4b483" stroke-width="0.9" opacity="0.60"/>
<line x1="230" y1="1635" x2="235" y2="1642" stroke="#e6cf9e" stroke-width="1.3" opacity="0.61"/>
<circle cx="264" cy="854" r="0.8" fill="#e6cf9e" opacity="0.23"/>
<circle cx="129" cy="237" r="1.7" fill="#c2a878" opacity="0.29"/>
<line x1="59" y1="809" x2="67" y2="808" stroke="#a89f68" stroke-width="1.5" opacity="0.36"/>
<line x1="1135" y1="1214" x2="1135" y2="1217" stroke="#a89f68" stroke-width="2.1" opacity="0.26"/>
<line x1="1297" y1="1552" x2="1294" y2="1555" stroke="#d4b483" stroke-width="1.9" opacity="0.63"/>
<circle cx="813" cy="1159" r="2.8" fill="#e6cf9e" opacity="0.53"/>
<circle cx="320" cy="875" r="0.6" fill="#b49d5e" opacity="0.36"/>
<line x1="1312" y1="1805" x2="1308" y2="1807" stroke="#e6cf9e" stroke-width="0.9" opacity="0.39"/>
<line x1="1269" y1="1119" x2="1278" y2="1124" stroke="#a89f68" stroke-width="1.5" opacity="0.28"/>
<circle cx="62" cy="1319" r="2.9" fill="#e6cf9e" opacity="0.40"/>
<circle cx="803" cy="1524" r="2.6" fill="#e9dcbe" opacity="0.52"/>
<circle cx="264" cy="148" r="0.9" fill="#c2a878" opacity="0.48"/>
<line x1="839" y1="545" x2="833" y2="552" stroke="#d4b483" stroke-width="0.8" opacity="0.49"/>
<circle cx="48" cy="374" r="2.8" fill="#a89f68" opacity="0.35"/>
<line x1="696" y1="1044" x2="684" y2="1037" stroke="#a89f68" stroke-width="0.7" opacity="0.35"/>
<circle cx="868" cy="1775" r="1.7" fill="#b49d5e" opacity="0.62"/>
<line x1="226" y1="1232" x2="219" y2="1223" stroke="#e9dcbe" stroke-width="1.8" opacity="0.24"/>
<line x1="617" y1="1778" x2="611" y2="1790" stroke="#e9dcbe" stroke-width="1.0" opacity="0.48"/>
<circle cx="627" cy="293" r="0.7" fill="#a89f68" opacity="0.57"/>
<line x1="48" y1="1441" x2="40" y2="1448" stroke="#e6cf9e" stroke-width="1.2" opacity="0.53"/>
<circle cx="722" cy="649" r="2.3" fill="#d4b483" opacity="0.41"/>
<line x1="1116" y1="63" x2="1117" y2="62" stroke="#d4b483" stroke-width="2.1" opacity="0.38"/>
<circle cx="84" cy="1849" r="1.4" fill="#d4b483" opacity="0.47"/>
<line x1="1016" y1="1230" x2="1014" y2="1231" stroke="#e6cf9e" stroke-width="2.0" opacity="0.55"/>
<circle cx="428" cy="1951" r="1.6" fill="#c2a878" opacity="0.37"/>
<circle cx="270" cy="1306" r="2.8" fill="#c2a878" opacity="0.60"/>
</svg>