<svg xmlns="http://www.w3.org/2000/svg" width="1600" height="1600" viewBox="0 0 1600 1600">
<rect width="1600" height="1600" fill="#fbf3d4"/>
<rect x="167" y="581" width="494" height="853" fill="#dd9633" opacity="0.60" transform="rotate(12 414 1008)"/>
<rect x="560" y="511" width="1097" height="648" fill="#f7b32b" opacity="0.27" transform="rotate(-22 1109 835)"/>
<rect x="307" y="-172" width="915" height="390" fill="#a8c256" opacity="0.38" transform="rotate(-30 765 23)"/>
<rect x="847" y="1052" width="702" height="916" fill="#e4cc37" opacity="0.64" transform="rotate(-11 1198 1510)"/>
<rect x="210" y="705" width="329" height="366" fill="#f7b32b" opacity="0.45" transform="rotate(-18 375 888)"/>
<rect x="-320" y="-239" width="856" height="949" fill="#e4cc37" opacity="0.51" transform="rotate(-18 108 236)"/>
<rect x="532" y="885" width="891" height="321" fill="#f7b32b" opacity="0.64" transform="rotate(1 977 1045)"/>
<path d="M 654 776 Q 923 1020 1152 1078" stroke="#a8c256" stroke-width="21" stroke-linecap="round" fill="none" opacity="0.69"/>
<path d="M 104 880 Q -115 1041 -106 1130" stroke="#dd9633" stroke-width="10" stroke-linecap="round" fill="none" opacity="0.38"/>
<path d="M 530 1375 Q 595 1292 799 1446" stroke="#dd9633" stroke-width="10" stroke-linecap="round" fill="none" opacity="0.46"/>
<path d="M 640 1197 Q 653 1203 463 1413" stroke="#a8c256" stroke-width="27" stroke-linecap="round" fill="none" opacity="0.31"/>
<path d="M 246 87 Q -40 176 -313 460" stroke="#e4cc37" stroke-width="33" stroke-linecap="round" fill="none" opacity="0.58"/>
<path d="M 799 1465 Q 616 1701 393 1682" stroke="#dd9633" stroke-width="17" stroke-linecap="round" fill="none" opacity="0.71"/>
<path d="M 1406 1492 Q 1564 1209 1764 1106" stroke="#f7b32b" stroke-width="39" stroke-linecap="round" fill="none" opacity="0.44"/>
<path d="M 690 81 Q 572 -31 558 -74" stroke="#dd9633" stroke-width="19" stroke-linecap="round" fill="none" opacity="0.56"/>
<path d="M 1338 66 Q 1290 -235 1178 -238" stroke="#f7b32b" stroke-width="17" stroke-linecap="round" fill="none" opacity="0.57"/>
<path d="M 1070 1433 Q 874 1190 976 1198" stroke="#dd9633" stroke-width="36" stroke-linecap="round" fill="none" opacity="0.60"/>
<circle cx="852" cy="750" r="174" fill="#e4cc37" opacity="0.74"/>
<circle cx="216" cy="1296" r="75" fill="#e4cc37" opacity="0.48"/>
<circle cx="835" cy="1371" r="172" fill="#a8c256" opacity="0.77"/>
<circle cx="564" cy="196" r="2.0" fill="#f7b32b" opacity="0.67"/>
<circle cx="1569" cy="1564" r="0.7" fill="#a8c256" opacity="0.54"/>
<line x1="836" y1="1482" x2="839" y2="1482" stroke="#e4cc37" stroke-width="0.6" opacity="0.37"/>
<circle cx="1290" cy="165" r="1.3" fill="#dd9633" opacity="0.57"/>
<line x1="650" y1="348" x2="644" y2="349" stroke="#dd9633" stroke-width="0.8" opacity="0.62"/>
<line x1="156" y1="173" x2="154" y2="163" stroke="#a8c256" stroke-width="0.8" opacity="0.64"/>
<line x1="974" y1="526" x2="974" y2="528" stroke="#f7b32b" stroke-width="1.5" opacity="0.31"/>
<line x1="99" y1="101" x2="90" y2="97" stroke="#dd9633" stroke-width="0.9" opacity="0.22"/>
<circle cx="162" cy="827" r="1.9" fill="#dd9633" opacity="0.65"/>
<line x1="1153" y1="452" x2="1156" y2="452" stroke="#f7b32b" stroke-width="0.8" opacity="0.53"/>
<circle cx="1018" cy="33" r="0.9" fill="#dd9633" opacity="0.60"/>
<circle cx="487" cy="1403" r="1.3" fill="#e4cc37" opacity="0.53"/>
<circle cx="893" cy="1020" r="2.3" fill="#dd9633" opacity="0.61"/>
<line x1="1217" y1="1367" x2="1208" y2="1371" stroke="#f7b32b" stroke-width="1.9" opacity="0.60"/>
<line x1="499" y1="624" x2="496" y2="617" stroke="#a8c256" stroke-width="0.9" opacity="0.33"/>
<circle cx="1369" cy="686" r="0.6" fill="#e4cc37" opacity="0.57"/>
<circle cx="1365" cy="287" r="2.3" fill="#dd9633" opacity="0.57"/>
<circle cx="529" cy="88" r="1.2" fill="#dd9633" opacity="0.23"/>
<line x1="590" y1="733" x2="597" y2="730" stroke="#a8c256" stroke-width="1.0" opacity="0.53"/>
<circle cx="1430" cy="1184" r="1.2" fill="#a8c256" opacity="0.52"/>
<line x1="802" y1="63" x2="796" y2="57" stroke="#dd9633" stroke-width="1.4" opacity="0.56"/>
<circle cx="1164" cy="971" r="0.9" fill="#e4cc37" opacity="0.21"/>
<circle cx="1294" cy="644" r="1.4" fill="#e4cc37" opacity="0.61"/>
<line x1="530" y1="290" x2="522" y2="280" stroke="#a8c256" stroke-width="1.5" opacity="0.39"/>
<line x1="1519" y1="261" x2="1524" y2="270" stroke="#f7b32b" stroke-width="1.3" opacity="0.45"/>
<circle cx="1522" cy="821" r="1.3" fill="#e4cc37" opacity="0.56"/>
<circle cx="1250" cy="1593" r="1.1" fill="#f7b32b" opacity="0.21"/>
<circle cx="1063" cy="482" r="2.1" fill="#f7b32b" opacity="0.33"/>
<line x1="1089" y1="927" x2="1089" y2="927" stroke="#f7b32b" stroke-width="1.4" opacity="0.65"/>
<circle cx="633" cy="1541" r="1.1" fill="#dd9633" opacity="0.27"/>
<circle cx="757" cy="1216" r="0.8" fill="#a8c256" opacity="0.33"/>
<circle cx="159" cy="88" r="1.3" fill="#f7b32b" opacity="0.52"/>
<circle cx="139" cy="1520" r="1.2" fill="#e4cc37" opacity="0.48"/>
<line x1="84" y1="1368" x2="92" y2="1363" stroke="#f7b32b" stroke-width="2.2" opacity="0.32"/>
<line x1="1151" y1="822" x2="1145" y2="811" stroke="#f7b32b" stroke-width="0.7" opacity="0.59"/>
<line x1="944" y1="1344" x2="939" y2="1342" stroke="#dd9633" stroke-width="1.9" opacity="0.26"/>
<line x1="1046" y1="909" x2="1050" y2="913" stroke="#f7b32b" stroke-width="1.4" opacity="0.32"/>
<circle cx="350" cy="49" r="1.9" fill="#a8c256" opacity="0.69"/>
<circle cx="108" cy="1067" r="1.4" fill="#a8c256" opacity="0.47"/>
<circle cx="1342" cy="1171" r="0.9" fill="#a8c256" opacity="0.45"/>
<circle cx="1180" cy="1367" r="1.0" fill="#e4cc37" opacity="0.58"/>
<line x1="713" y1="1417" x2="706" y2="1428" stroke="#dd9633" stroke-width="1.3" opacity="0.32"/>
<line x1="1320" y1="689" x2="1317" y2="678" stroke="#f7b32b" stroke-width="0.9" opacity="0.20"/>
<circle cx="1217" cy="122" r="2.7" fill="#a8c256" opacity="0.26"/>
<line x1="636" y1="719" x2="630" y2="720" stroke="#a8c256" stroke-width="0.8" opacity="0.29"/>
<line x1="632" y1="439" x2="630" y2="446" stroke="#a8c256" stroke-width="0.7" opacity="0.38"/>
<line x1="449" y1="16" x2="452" y2="13" stroke="#a8c256" stroke-width="2.0" opacity="0.30"/>
<line x1="679" y1="385" x2="673" y2="381" stroke="#e4cc37" stroke-width="1.7" opacity="0.42"/>
<circle cx="1065" cy="597" r="2.0" fill="#dd9633" opacity="0.66"/>
<circle cx="589" cy="679" r="2.9" fill="#e4cc37" opacity="0.59"/>
<circle cx="648" cy="1587" r="2.3" fill="#f7b32b" opacity="0.52"/>
<circle cx="925" cy="845" r="1.8" fill="#e4cc37" opacity="0.50"/>
<circle cx="1018" cy="747" r="0.8" fill="#f7b32b" opacity="0.40"/>
<circle cx="407" cy="98" r="0.8" fill="#f7b32b" opacity="0.34"/>
<line x1="984" y1="1379" x2="975" y2="1369" stroke="#e4cc37" stroke-width="1.7" opacity="0.35"/>
<line x1="489" y1="1097" x2="479" y2="1094" stroke="#a8c256" stroke-width="1.6" opacity="0.29"/>
<line x1="988" y1="983" x2="976" y2="979" stroke="#a8c256" stroke-width="0.7" opacity="0.47"/>
<line x1="309" y1="28" x2="299" y2="32" stroke="#e4cc37" stroke-width="0.9" opacity="0.32"/>
<circle cx="1416" cy="315" r="0.8" fill="#f7b32b" opacity="0.55"/>
<circle cx="188" cy="316" r="1.2" fill="#dd9633" opacity="0.22"/>
<circle cx="1083" cy="324" r="0.7" fill="#a8c256" opacity="0.44"/>
<line x1="1002" y1="1325" x2="1013" y2="1325" stroke="#dd9633" stroke-width="1.1" opacity="0.40"/>
<circle cx="317" cy="1294" r="2.9" fill="#e4cc37" opacity="0.63"/>
<line x1="142" y1="585" x2="145" y2="596" stroke="#a8c256" stroke-width="1.1" opacity="0.33"/>
<line x1="1066" y1="661" x2="1055" y2="669" stroke="#dd9633" stroke-width="0.6" opacity="0.53"/>
<circle cx="1446" cy="409" r="2.6" fill="#a8c256" opacity="0.29"/>
<line x1="229" y1="672" x2="225" y2="672" stroke="#e4cc37" stroke-width="0.8" opacity="0.50"/>
<circle cx="976" cy="926" r="2.3" fill="#e4cc37" opacity="0.51"/>
<line x1="779" y1="1532" x2="773" y2="1540" stroke="#e4cc37" stroke-width="2.1" opacity="0.52"/>
<circle cx="1405" cy="1258" r="1.0" fill="#dd9633" opacity="0.67"/>
<circle cx="72" cy="563" r="1.0" fill="#f7b32b" opacity="0.48"/>
<circle cx="644" cy="1293" r="1.6" fill="#e4cc37" opacity="0.38"/>
<circle cx="1113" cy="372" r="1.7" fill="#a8c256" opacity="0.39"/>
<circle cx="822" cy="963" r="1.9" fill="#dd9633" opacity="0.41"/>
<circle cx="225" cy="791" r="0.8" fill="#e4cc37" opacity="0.46"/>
<circle cx="690" cy="773" r="1.3" fill="#f7b32b" opacity="0.56"/>
<circle cx="1366" cy="21" r="1.3" fill="#dd9633" opacity="0.66"/>
<circle cx="138" cy="720" r="2.7" fill="#f7b32b" opacity="0.55"/>
<circle cx="1066" cy="1258" r="0.7" fill="#e4cc37" opacity="0.37"/>
<line x1="1492" y1="1097" x2="1503" y2="1101" stroke="#e4cc37" stroke-width="0.9" opacity="0.32"/>
<line x1="1014" y1="1090" x2="1025" y2="1093" stroke="#a8c256" stroke-width="2.1" opacity="0.48"/>
<line x1="1131" y1="1001" x2="1125" y2="1000" stroke="#a8c256" stroke-width="2.0" opacity="0.59"/>
<line x1="1519" y1="779" x2="1512" y2="778" stroke="#dd9633" stroke-width="1.8" opacity="0.48"/>
<line x1="492" y1="610" x2="498" y2="610" stroke="#e4cc37" stroke-width="2.1" opacity="0.25"/>
<line x1="991" y1="391" x2="987" y2="393" stroke="#e4cc37" stroke-width="0.9" opacity="0.63"/>
<line x1="276" y1="107" x2="283" y2="96" stroke="#dd9633" stroke-width="1.7" opacity="0.55"/>
<line x1="114" y1="1114" x2="115" y2="1111" stroke="#e4cc37" stroke-width="0.8" opacity="0.24"/>
<circle cx="676" cy="312" r="1.5" fill="#e4cc37" opacity="0.43"/>
<circle cx="982" cy="44" r="2.4" fill="#f7b32b" opacity="0.56"/>
<circle cx="649" cy="32" r="1.5" fill="#dd9633" opacity="0.32"/>
<circle cx="321" cy="1414" r="2.1" fill="#dd9633" opacity="0.44"/>
<circle cx="1280" cy="195" r="1.1" fill="#dd9633" opacity="0.39"/>
<line x1="461" y1="376" x2="453" y2="380" stroke="#e4cc37" stroke-width="0.8" opacity="0.32"/>
<circle cx="768" cy="428" r="2.4" fill="#f7b32b" opacity="0.25"/>
<circle cx="309" cy="1177" r="0.7" fill="#f7b32b" opacity="0.28"/>
<line x1="607" y1="1378" x2="596" y2="1388" stroke="#f7b32b" stroke-width="2.2" opacity="0.40"/>
<line x1="1405" y1="232" x2="1416" y2="238" stroke="#e4cc37" stroke-width="0.9" opacity="0.59"/>
<circle cx="1465" cy="1013" r="1.6" fill="#f7b32b" opacity="0.37"/>
<line x1="1436" y1="837" x2="1445" y2="845" stroke="#f7b32b" stroke-width="0.7" opacity="0.57"/>
<circle cx="22" cy="411" r="0.9" fill="#dd9633" opacity="0.41"/>
<line x1="1596" y1="67" x2="1590" y2="65" stroke="#a8c256" stroke-width="1.3" opacity="0.23"/>
<line x1="1368" y1="659" x2="1357" y2="664" stroke="#dd9633" stroke-width="2.2" opacity="0.24"/>
<line x1="719" y1="45" x2="717" y2="47" stroke="#f7b32b" stroke-width="1.9" opacity="0.60"/>
<circle cx="195" cy="573" r="1.4" fill="#a8c256" opacity="0.22"/>
<line x1="1033" y1="81" x2="1044" y2="82" stroke="#a8c256" stroke-width="1.7" opacity="0.23"/>
<line x1="656" y1="1014" x2="650" y2="1010" stroke="#a8c256" stroke-width="2.1" opacity="0.56"/>
<line x1="192" y1="166" x2="189" y2="175" stroke="#dd9633" stroke-width="1.6" opacity="0.23"/>
<line x1="767" y1="1223" x2="757" y2="1227" stroke="#dd9633" stroke-width="1.1" opacity="0.22"/>
<circle cx="572" cy="1250" r="2.5" fill="#a8c256" opacity="0.68"/>
<circle cx="1486" cy="789" r="2.4" fill="#a8c256" opacity="0.40"/>
<line x1="21" y1="551" x2="11" y2="549" stroke="#a8c256" stroke-width="1.3" opacity="0.50"/>
<circle cx="134" cy="1501" r="2.7" fill="#dd9633" opacity="0.54"/>
<line x1="1504" y1="331" x2="1503" y2="319" stroke="#dd9633" stroke-width="1.2" opacity="0.26"/>
<line x1="45" y1="1090" x2="44" y2="1078" stroke="#f7b32b" stroke-width="1.3" opacity="0.52"/>
<circle cx="1180" cy="291" r="0.9" fill="#a8c256" opacity="0.27"/>
<line x1="1589" y1="932" x2="1590" y2="922" stroke="#dd9633" stroke-width="2.2" opacity="0.21"/>
<line x1="434" y1="1141" x2="438" y2="1149" stroke="#f7b32b" stroke-width="1.1" opacity="0.65"/>
<line x1="1006" y1="468" x2="997" y2="457" stroke="#dd9633" stroke-width="1.2" opacity="0.30"/>
<circle cx="498" cy="1353" r="2.3" fill="#e4cc37" opacity="0.57"/>
<circle cx="1113" cy="939" r="2.7" fill="#e4cc37" opacity="0.57"/>
<line x1="162" y1="470" x2="162" y2="469" stroke="#f7b32b" stroke-width="2.1" opacity="0.27"/>
<line x1="1256" y1="1443" x2="1264" y2="1435" stroke="#f7b32b" stroke-width="2.2" opacity="0.59"/>
<circle cx="999" cy="891" r="0.8" fill="#f7b32b" opacity="0.56"/>
<line x1="902" y1="1231" x2="891" y2="1228" stroke="#f7b32b" stroke-width="0.7" opacity="0.27"/>
<line x1="357" y1="724" x2="364" y2="718" stroke="#a8c256" stroke-width="1.1" opacity="0.24"/>
<line x1="57" y1="300" x2="57" y2="297" stroke="#dd9633" stroke-width="1.2" opacity="0.57"/>
<circle cx="1233" cy="1387" r="0.7" fill="#e4cc37" opacity="0.25"/>
<circle cx="155" cy="1550" r="0.7" fill="#f7b32b" opacity="0.28"/>
<line x1="338" y1="957" x2="337" y2="949" stroke="#f7b32b" stroke-width="1.6" opacity="0.50"/>
<line x1="468" y1="37" x2="462" y2="33" stroke="#f7b32b" stroke-width="1.9" opacity="0.22"/>
<line x1="317" y1="979" x2="322" y2="967" stroke="#e4cc37" stroke-width="2.0" opacity="0.61"/>
<circle cx="1594" cy="591" r="1.6" fill="#a8c256" opacity="0.64"/>
<line x1="480" y1="1214" x2="483" y2="1220" stroke="#e4cc37" stroke-width="1.2" opacity="0.23"/>
<circle cx="1026" cy="701" r="2.3" fill="#a8c256" opacity="0.30"/>
<line x1="1010" y1="1013" x2="1001" y2="1019" stroke="#dd9633" stroke-width="2.1" opacity="0.43"/>
<circle cx="1416" cy="1473" r="2.7" fill="#e4cc37" opacity="0.43"/>
<circle cx="968" cy="51" r="1.7" fill="#f7b32b" opacity="0.59"/>
<circle cx="1363" cy="59" r="1.3" fill="#e4cc37" opacity="0.46"/>
<circle cx="913" cy="793" r="2.8" fill="#e4cc37" opacity="0.55"/>
<circle cx="1033" cy="1345" r="2.2" fill="#a8c256" opacity="0.61"/>
<line x1="1443" y1="777" x2="1438" y2="769" stroke="#dd9633" stroke-width="1.6" opacity="0.40"/>
<line x1="23" y1="1400" x2="26" y2="1398" stroke="#dd9633" stroke-width="1.6" opacity="0.46"/>
<line x1="1307" y1="106" x2="1308" y2="113" stroke="#f7b32b" stroke-width="1.1" opacity="0.33"/>
<line x1="1416" y1="1060" x2="1408" y2="1053" stroke="#a8c256" stroke-width="0.7" opacity="0.21"/>
<line x1="1229" y1="1107" x2="1230" y2="1100" stroke="#e4cc37" stroke-width="2.1" opacity="0.61"/>
<circle cx="433" cy="296" r="1.0" fill="#dd9633" opacity="0.70"/>
<line x1="819" y1="72" x2="814" y2="70" stroke="#dd9633" stroke-width="0.8" opacity="0.42"/>
<line x1="206" y1="1414" x2="197" y2="1418" stroke="#a8c256" stroke-width="1.0" opacity="0.51"/>
<line x1="859" y1="1095" x2="865" y2="1087" stroke="#a8c256" stroke-width="1.4" opacity="0.55"/>
<circle cx="1169" cy="1" r="1.4" fill="#a8c256" opacity="0.43"/>
<circle cx="620" cy="168" r="1.2" fill="#f7b32b" opacity="0.33"/>
<line x1="416" y1="390" x2="420" y2="384" stroke="#e4cc37" stroke-width="2.1" opacity="0.34"/>
<circle cx="220" cy="420" r="0.6" fill="#f7b32b" opacity="0.38"/>
<circle cx="1094" cy="12" r="0.9" fill="#dd9633" opacity="0.67"/>
<line x1="32" y1="530" x2="40" y2="524" stroke="#dd9633" stroke-width="2.0" opacity="0.42"/>
<line x1="539" y1="23" x2="545" y2="18" stroke="#dd9633" stroke-width="1.7" opacity="0.46"/>
<line x1="1135" y1="1280" x2="1135" y2="1276" stroke="#a8c256" stroke-width="2.2" opacity="0.38"/>
<line x1="1516" y1="1025" x2="1512" y2="1023" stroke="#a8c256" stroke-width="0.7" opacity="0.23"/>
<line x1="716" y1="81" x2="712" y2="88" stroke="#a8c256" stroke-width="1.9" opacity="0.22"/>
<circle cx="1419" cy="280" r="1.3" fill="#dd9633" opacity="0.63"/>
<circle cx="1287" cy="164" r="2.8" fill="#f7b32b" opacity="0.30"/>
<line x1="92" y1="917" x2="97" y2="907" stroke="#f7b32b" stroke-width="1.7" opacity="0.34"/>
<circle cx="1287" cy="792" r="1.0" fill="#f7b32b" opacity="0.61"/>
<circle cx="99" cy="971" r="2.5" fill="#f7b32b" opacity="0.27"/>
<line x1="1158" y1="938" x2="1169" y2="927" stroke="#dd9633" stroke-width="2.0" opacity="0.64"/>
<line x1="81" y1="1368" x2="70" y2="1379" stroke="#dd9633" stroke-width="1.3" opacity="0.30"/>
<line x1="1142" y1="638" x2="1134" y2="646" stroke="#f7b32b" stroke-width="1.2" opacity="0.27"/>
<line x1="214" y1="1313" x2="217" y2="1303" stroke="#a8c256" stroke-width="1.6" opacity="0.42"/>
<circle cx="1348" cy="187" r="2.2" fill="#f7b32b" opacity="0.35"/>
<line x1="29" y1="1273" x2="24" y2="1262" stroke="#dd9633" stroke-width="1.4" opacity="0.22"/>
<circle cx="667" cy="995" r="0.9" fill="#f7b32b" opacity="0.57"/>
<line x1="411" y1="890" x2="421" y2="892" stroke="#dd9633" stroke-width="1.1" opacity="0.39"/>
<line x1="419" y1="753" x2="411" y2="748" stroke="#dd9633" stroke-width="1.9" opacity="0.53"/>
<line x1="1570" y1="433" x2="1561" y2="432" stroke="#e4cc37" stroke-width="1.2" opacity="0.27"/>
<line x1="41" y1="1487" x2="51" y2="1494" stroke="#a8c256" stroke-width="1.7" opacity="0.44"/>
<circle cx="221" cy="1008" r="0.8" fill="#e4cc37" opacity="0.60"/>
<circle cx="177" cy="390" r="1.9" fill="#a8c256" opacity="0.54"/>
<line x1="474" y1="148" x2="468" y2="143" stroke="#dd9633" stroke-width="0.6" opacity="0.34"/>
<circle cx="686" cy="101" r="1.6" fill="#dd9633" opacity="0.64"/>
<circle cx="1295" cy="976" r="1.7" fill="#e4cc37" opacity="0.53"/>
<circle cx="1414" cy="871" r="1.4" fill="#f7b32b" opacity="0.55"/>
<circle cx="1515" cy="687" r="2.9" fill="#f7b32b" opacity="0.67"/>
<circle cx="18" cy="567" r="2.7" fill="#dd9633" opacity="0.29"/>
<circle cx="519" cy="1095" r="1.4" fill="#e4cc37" opacity="0.51"/>
<circle cx="466" cy="536" r="1.8" fill="#e4cc37" opacity="0.39"/>
<circle cx="489" cy="1438" r="2.4" fill="#e4cc37" opacity="0.27"/>
<circle cx="193" cy="1141" r="1.7" fill="#f7b32b" opacity="0.32"/>
<line x1="192" y1="324" x2="189" y2="316" stroke="#f7b32b" stroke-width="1.5" opacity="0.42"/>
<line x1="916" y1="706" x2="928" y2="703" stroke="#f7b32b" stroke-width="1.9" opacity="0.43"/>
<circle cx="511" cy="1239" r="1.6" fill="#e4cc37" opacity="0.53"/>
<line x1="354" y1="1484" x2="363" y2="1491" stroke="#dd9633" stroke-width="1.7" opacity="0.21"/>
<line x1="900" y1="1185" x2="892" y2="1196" stroke="#f7b32b" stroke-width="1.2" opacity="0.50"/>
<circle cx="293" cy="1222" r="2.2" fill="#a8c256" opacity="0.36"/>
<line x1="556" y1="609" x2="553" y2="610" stroke="#f7b32b" stroke-width="2.2" opacity="0.33"/>
<circle cx="355" cy="33" r="0.8" fill="#f7b32b" opacity="0.58"/>
<circle cx="639" cy="890" r="2.6" fill="#f7b32b" opacity="0.49"/>
<circle cx="1339" cy="1322" r="1.7" fill="#e4cc37" opacity="0.39"/>
<line x1="660" y1="523" x2="654" y2="518" stroke="#f7b32b" stroke-width="1.9" opacity="0.64"/>
<circle cx="1011" cy="967" r="1.7" fill="#dd9633" opacity="0.53"/>
<circle cx="292" cy="1038" r="1.6" fill="#f7b32b" opacity="0.23"/>
<circle cx="1403" cy="722" r="2.6" fill="#dd9633" opacity="0.50"/>
<line x1="819" y1="1113" x2="819" y2="1108" stroke="#e4cc37" stroke-width="1.2" opacity="0.56"/>
<line x1="1209" y1="328" x2="1213" y2="333" stroke="#dd9633" stroke-width="1.7" opacity="0.55"/>
<circle cx="939" cy="430" r="1.3" fill="#f7b32b" opacity="0.64"/>
<circle cx="1046" cy="771" r="2.4" fill="#dd9633" opacity="0.48"/>
<circle cx="231" cy="170" r="1.7" fill="#a8c256" opacity="0.50"/>
<circle cx="160" cy="223" r="2.6" fill="#dd9633" opacity="0.25"/>
<line x1="1344" y1="254" x2="1350" y2="262" stroke="#e4cc37" stroke-width="0.6" opacity="0.26"/>
<line x1="1194" y1="467" x2="1204" y2="477" stroke="#dd9633" stroke-width="1.3" opacity="0.21"/>
<line x1="1067" y1="1340" x2="1071" y2="1336" stroke="#a8c256" stroke-width="1.8" opacity="0.44"/>
<circle cx="917" cy="1207" r="1.7" fill="#f7b32b" opacity="0.20"/>
<circle cx="1104" cy="553" r="2.5" fill="#e4cc37" opacity="0.57"/>
<line x1="912" y1="1354" x2="916" y2="1353" stroke="#dd9633" stroke-width="0.8" opacity="0.36"/>
<circle cx="1308" cy="1198" r="0.7" fill="#f7b32b" opacity="0.26"/>
<line x1="559" y1="340" x2="554" y2="342" stroke="#a8c256" stroke-width="1.6" opacity="0.56"/>
<line x1="401" y1="666" x2="393" y2="676" stroke="#a8c256" stroke-width="1.2" opacity="0.48"/>
<circle cx="467" cy="735" r="2.0" fill="#f7b32b" opacity="0.33"/>
<circle cx="500" cy="160" r="1.5" fill="#f7b32b" opacity="0.32"/>
<line x1="979" y1="1442" x2="975" y2="1432" stroke="#a8c256" stroke-width="2.0" opacity="0.23"/>
<circle cx="15" cy="1240" r="2.4" fill="#e4cc37" opacity="0.25"/>
<line x1="56" y1="289" x2="59" y2="290" stroke="#f7b32b" stroke-width="1.4" opacity="0.32"/>
<circle cx="293" cy="1173" r="1.5" fill="#a8c256" opacity="0.41"/>
<line x1="1467" y1="1158" x2="1457" y2="1156" stroke="#f7b32b" stroke-width="2.1" opacity="0.25"/>
<circle cx="799" cy="394" r="2.3" fill="#dd9633" opacity="0.49"/>
<circle cx="435" cy="1561" r="1.9" fill="#dd9633" opacity="0.44"/>
<circle cx="1277" cy="565" r="1.8" fill="#a8c256" opacity="0.21"/>
<circle cx="679" cy="1228" r="1.6" fill="#e4cc37" opacity="0.70"/>
<line x1="1041" y1="421" x2="1050" y2="413" stroke="#dd9633" stroke-width="1.9" opacity="0.63"/>
<line x1="1440" y1="28" x2="1452" y2="22" stroke="#a8c256" stroke-width="1.0" opacity="0.34"/>
<line x1="1371" y1="1374" x2="1364" y2="1369" stroke="#e4cc37" stroke-width="1.0" opacity="0.24"/>
<circle cx="944" cy="188" r="1.2" fill="#dd9633" opacity="0.43"/>
<line x1="489" y1="945" x2="497" y2="950" stroke="#dd9633" stroke-width="2.0" opacity="0.34"/>
<circle cx="1289" cy="385" r="2.2" fill="#e4cc37" opacity="0.61"/>
<circle cx="186" cy="1302" r="2.8" fill="#f7b32b" opacity="0.24"/>
<line x1="1119" y1="79" x2="1129" y2="73" stroke="#a8c256" stroke-width="1.9" opacity="0.41"/>
<circle cx="1577" cy="1475" r="1.4" fill="#f7b32b" opacity="0.36"/>
<line x1="512" y1="344" x2="509" y2="352" stroke="#dd9633" stroke-width="1.9" opacity="0.33"/>
<line x1="1219" y1="81" x2="1213" y2="80" stroke="#e4cc37" stroke-width="0.7" opacity="0.37"/>
<circle cx="1551" cy="560" r="1.7" fill="#dd9633" opacity="0.69"/>
<line x1="38" y1="1505" x2="38" y2="1514" stroke="#dd9633" stroke-width="1.9" opacity="0.52"/>
<circle cx="247" cy="1167" r="1.4" fill="#a8c256" opacity="0.42"/>
<circle cx="1264" cy="704" r="1.2" fill="#dd9633" opacity="0.53"/>
<circle cx="844" cy="733" r="2.0" fill="#f7b32b" opacity="0.53"/>
<line x1="1020" y1="1224" x2="1018" y2="1214" stroke="#dd9633" stroke-width="2.1" opacity="0.24"/>
<circle cx="1520" cy="210" r="1.5" fill="#e4cc37" opacity="0.66"/>
<line x1="924" y1="1126" x2="913" y2="1117" stroke="#a8c256" stroke-width="1.7" opacity="0.36"/>
<line x1="1481" y1="392" x2="1479" y2="392" stroke="#a8c256" stroke-width="1.8" opacity="0.51"/>
<circle cx="940" cy="201" r="1.7" fill="#f7b32b" opacity="0.53"/>
<line x1="1242" y1="1290" x2="1233" y2="1294" stroke="#a8c256" stroke-width="1.8" opacity="0.34"/>
<line x1="970" y1="283" x2="971" y2="275" stroke="#f7b32b" stroke-width="0.8" opacity="0.52"/>
<circle cx="1432" cy="980" r="1.1" fill="#a8c256" opacity="0.57"/>
<circle cx="54" cy="982" r="0.7" fill="#e4cc37" opacity="0.45"/>
<line x1="1301" y1="974" x2="1300" y2="968" stroke="#e4cc37" stroke-width="1.7" opacity="0.50"/>
<circle cx="335" cy="863" r="2.3" fill="#dd9633" opacity="0.39"/>
<line x1="834" y1="1557" x2="842" y2="1564" stroke="#f7b32b" stroke-width="0.6" opacity="0.50"/>
<line x1="652" y1="1529" x2="656" y2="1540" stroke="#dd9633" stroke-width="1.6" opacity="0.52"/>
<circle cx="755" cy="1525" r="1.5" fill="#f7b32b" opacity="0.57"/>
<line x1="1005" y1="58" x2="1000" y2="57" stroke="#a8c256" stroke-width="1.9" opacity="0.20"/>
<circle cx="1011" cy="323" r="0.7" fill="#e4cc37" opacity="0.58"/>
<circle cx="655" cy="1454" r="1.0" fill="#f7b32b" opacity="0.34"/>
<line x1="286" y1="1060" x2="288" y2="1048" stroke="#dd9633" stroke-width="1.7" opacity="0.64"/>
<circle cx="274" cy="1418" r="0.9" fill="#e4cc37" opacity="0.63"/>
<line x1="696" y1="710" x2="696" y2="720" stroke="#a8c256" stroke-width="1.8" opacity="0.25"/>
<line x1="296" y1="382" x2="306" y2="378" stroke="#f7b32b" stroke-width="1.2" opacity="0.25"/>
<line x1="1430" y1="1285" x2="1436" y2="1296" stroke="#e4cc37" stroke-width="1.8" opacity="0.23"/>
<circle cx="1215" cy="846" r="1.6" fill="#dd9633" opacity="0.64"/>
<line x1="1494" y1="322" x2="1493" y2="311" stroke="#f7b32b" stroke-width="1.6" opacity="0.51"/>
<circle cx="1440" cy="545" r="1.6" fill="#e4cc37" opacity="0.35"/>
<circle cx="389" cy="1306" r="2.3" fill="#dd9633" opacity="0.22"/>
<circle cx="104" cy="621" r="2.6" fill="#a8c256" opacity="0.55"/>
<circle cx="864" cy="1423" r="0.9" fill="#a8c256" opacity="0.61"/>
<circle cx="1033" cy="1040" r="1.8" fill="#a8c256" opacity="0.22"/>
<line x1="909" y1="1011" x2="917" y2="1000" stroke="#a8c256" stroke-width="1.4" opacity="0.59"/>
<circle cx="1396" cy="107" r="1.7" fill="#f7b32b" opacity="0.41"/>
<circle cx="303" cy="1089" r="1.5" fill="#f7b32b" opacity="0.45"/>
<circle cx="1139" cy="1229" r="1.2" fill="#a8c256" opacity="0.45"/>
<line x1="1269" y1="134" x2="1274" y2="135" stroke="#e4cc37" stroke-width="2.1" opacity="0.46"/>
<line x1="1064" y1="649" x2="1056" y2="650" stroke="#dd9633" stroke-width="1.0" opacity="0.39"/>
<circle cx="894" cy="135" r="1.2" fill="#a8c256" opacity="0.28"/>
<circle cx="1422" cy="374" r="1.6" fill="#a8c256" opacity="0.33"/>
<circle cx="1227" cy="91" r="0.7" fill="#f7b32b" opacity="0.52"/>
<line x1="111" y1="241" x2="110" y2="248" stroke="#dd9633" stroke-width="0.9" opacity="0.43"/>
<line x1="1156" y1="672" x2="1157" y2="674" stroke="#f7b32b" stroke-width="1.2" opacity="0.48"/>
<circle cx="890" cy="1108" r="2.7" fill="#dd9633" opacity="0.61"/>
<line x1="1142" y1="24" x2="1150" y2="30" stroke="#a8c256" stroke-width="1.3" opacity="0.32"/>
<circle cx="886" cy="1145" r="2.1" fill="#e4cc37" opacity="0.58"/>
<circle cx="1178" cy="175" r="1.7" fill="#f7b32b" opacity="0.21"/>
<circle cx="213" cy="989" r="2.9" fill="#a8c256" opacity="0.39"/>
<line x1="1147" y1="1393" x2="1146" y2="1393" stroke="#dd9633" stroke-width="0.6" opacity="0.55"/>
<circle cx="1587" cy="608" r="2.4" fill="#e4cc37" opacity="0.51"/>
<line x1="906" y1="1576" x2="918" y2="1576" stroke="#e4cc37" stroke-width="0.9" opacity="0.37"/>
<circle cx="654" cy="466" r="2.5" fill="#f7b32b" opacity="0.67"/>
<circle cx="166" cy="817" r="2.7" fill="#f7b32b" opacity="0.58"/>
<line x1="1228" y1="1544" x2="1233" y2="1537" stroke="#a8c256" stroke-width="2.1" opacity="0.27"/>
<circle cx="824" cy="272" r="1.0" fill="#a8c256" opacity="0.39"/>
<line x1="345" y1="1331" x2="354" y2="1325" stroke="#f7b32b" stroke-width="2.1" opacity="0.57"/>
<circle cx="854" cy="1504" r="1.9" fill="#dd9633" opacity="0.66"/>
<line x1="844" y1="1494" x2="837" y2="1493" stroke="#f7b32b" stroke-width="0.8" opacity="0.49"/>
<circle cx="574" cy="304" r="2.5" fill="#dd9633" opacity="0.40"/>
<circle cx="689" cy="948" r="0.8" fill="#f7b32b" opacity="0.59"/>
<line x1="1419" y1="775" x2="1423" y2="781" stroke="#dd9633" stroke-width="1.9" opacity="0.23"/>
<circle cx="1163" cy="751" r="2.9" fill="#f7b32b" opacity="0.52"/>
<line x1="1223" y1="1571" x2="1229" y2="1583" stroke="#dd9633" stroke-width="1.0" opacity="0.43"/>
<line x1="1502" y1="592" x2="1508" y2="581" stroke="#e4cc37" stroke-width="1.3" opacity="0.47"/>
<line x1="1489" y1="437" x2="1495" y2="448" stroke="#e4cc37" stroke-width="1.0" opacity="0.22"/>
<circle cx="1088" cy="260" r="2.6" fill="#dd9633" opacity="0.23"/>
<line x1="806" y1="564" x2="811" y2="562" stroke="#a8c256" stroke-width="0.8" opacity="0.41"/>
<line x1="870" y1="450" x2="865" y2="448" stroke="#dd9633" stroke-width="1.3" opacity="0.32"/>
<circle cx="1296" cy="1019" r="2.2" fill="#f7b32b" opacity="0.64"/>
<line x1="560" y1="1058" x2="553" y2="1065" stroke="#dd9633" stroke-width="1.3" opacity="0.51"/>
<circle cx="1139" cy="449" r="2.2" fill="#f7b32b" opacity="0.21"/>
<line x1="757" y1="648" x2="765" y2="654" stroke="#dd9633" stroke-width="0.9" opacity="0.39"/>
<circle cx="1483" cy="394" r="1.0" fill="#e4cc37" opacity="0.29"/>
<circle cx="47" cy="247" r="1.9" fill="#dd9633" opacity="0.22"/>
<line x1="866" y1="1521" x2="857" y2="1509" stroke="#f7b32b" stroke-width="2.1" opacity="0.36"/>
<circle cx="435" cy="765" r="1.2" fill="#f7b32b" opacity="0.27"/>
<circle cx="62" cy="1595" r="2.8" fill="#f7b32b" opacity="0.66"/>
<line x1="1281" y1="123" x2="1275" y2="130" stroke="#dd9633" stroke-width="0.8" opacity="0.61"/>
<line x1="108" y1="1406" x2="111" y2="1405" stroke="#a8c256" stroke-width="2.2" opacity="0.20"/>
<circle cx="1105" cy="653" r="2.1" fill="#a8c256" opacity="0.66"/>
<circle cx="592" cy="1189" r="1.2" fill="#dd9633" opacity="0.48"/>
<circle cx="1396" cy="909" r="1.7" fill="#dd9633" opacity="0.44"/>
<circle cx="290" cy="639" r="0.9" fill="#e4cc37" opacity="0.66"/>
<circle cx="1049" cy="1006" r="2.6" fill="#e4cc37" opacity="0.50"/>
<circle cx="66" cy="1076" r="1.9" fill="#e4cc37" opacity="0.23"/>
<line x1="790" y1="646" x2="795" y2="641" stroke="#e4cc37" stroke-width="1.7" opacity="0.31"/>
<circle cx="1492" cy="372" r="2.9" fill="#f7b32b" opacity="0.63"/>
<circle cx="927" cy="390" r="2.7" fill="#dd9633" opacity="0.26"/>
<circle cx="736" cy="1599" r="1.0" fill="#a8c256" opacity="0.24"/>
<circle cx="485" cy="184" r="2.3" fill="#a8c256" opacity="0.36"/>
<line x1="267" y1="974" x2="262" y2="967" stroke="#a8c256" stroke-width="1.6" opacity="0.60"/>
<line x1="171" y1="349" x2="180" y2="354" stroke="#dd9633" stroke-width="1.7" opacity="0.63"/>
<circle cx="931" cy="1199" r="1.3" fill="#dd9633" opacity="0.56"/>
<circle cx="394" cy="510" r="1.3" fill="#f7b32b" opacity="0.53"/>
<circle cx="975" cy="223" r="2.2" fill="#f7b32b" opacity="0.44"/>
<line x1="1090" y1="698" x2="1087" y2="689" stroke="#e4cc37" stroke-width="0.6" opacity="0.47"/>
<line x1="595" y1="1555" x2="587" y2="1552" stroke="#e4cc37" stroke-width="1.0" opacity="0.25"/>
<line x1="324" y1="149" x2="313" y2="148" stroke="#f7b32b" stroke-width="1.3" opacity="0.20"/>
<circle cx="1492" cy="72" r="2.9" fill="#a8c256" opacity="0.21"/>
<circle cx="1269" cy="336" r="0.7" fill="#a8c256" opacity="0.30"/>
<circle cx="1125" cy="292" r="1.1" fill="#dd9633" opacity="0.40"/>
<line x1="668" y1="63" x2="656" y2="53" stroke="#dd9633" stroke-width="0.7" opacity="0.27"/>
<line x1="1074" y1="1185" x2="1074" y2="1194" stroke="#dd9633" stroke-width="2.1" opacity="0.37"/>
<line x1="231" y1="668" x2="241" y2="661" stroke="#e4cc37" stroke-width="1.9" opacity="0.60"/>
<line x1="797" y1="103" x2="791" y2="108" stroke="#dd9633" stroke-width="1.0" opacity="0.52"/>
<line x1="385" y1="985" x2="396" y2="983" stroke="#a8c256" stroke-width="0.9" opacity="0.61"/>
<circle cx="1173" cy="123" r="2.0" fill="#dd9633" opacity="0.42"/>
<line x1="534" y1="230" x2="539" y2="241" stroke="#dd9633" stroke-width="1.4" opacity="0.40"/>
<line x1="468" y1="1024" x2="462" y2="1031" stroke="#f7b32b" stroke-width="2.0" opacity="0.32"/>
<circle cx="495" cy="1418" r="1.6" fill="#dd9633" opacity="0.20"/>
<circle cx="1450" cy="542" r="2.4" fill="#f7b32b" opacity="0.63"/>
<line x1="1450" y1="911" x2="1447" y2="908" stroke="#e4cc37" stroke-width="1.7" opacity="0.24"/>
<circle cx="1168" cy="1311" r="2.2" fill="#a8c256" opacity="0.62"/>
<line x1="94" y1="1060" x2="89" y2="1062" stroke="#f7b32b" stroke-width="1.7" opacity="0.31"/>
<line x1="83" y1="1422" x2="84" y2="1421" stroke="#f7b32b" stroke-width="1.9" opacity="0.61"/>
<circle cx="1147" cy="607" r="2.7" fill="#dd9633" opacity="0.35"/>
<circle cx="330" cy="24" r="2.5" fill="#dd9633" opacity="0.26"/>
<circle cx="491" cy="443" r="2.9" fill="#e4cc37" opacity="0.46"/>
<line x1="1599" y1="890" x2="1597" y2="886" stroke="#dd9633" stroke-width="1.2" opacity="0.46"/>
<circle cx="8" cy="957" r="0.9" fill="#f7b32b" opacity="0.47"/>
<circle cx="193" cy="773" r="3.0" fill="#dd9633" opacity="0.53"/>
<circle cx="1434" cy="119" r="0.8" fill="#f7b32b" opacity="0.50"/>
<circle cx="1423" cy="1215" r="1.4" fill="#a8c256" opacity="0.54"/>
<circle cx="684" cy="1100" r="1.8" fill="#a8c256" opacity="0.63"/>
<circle cx="434" cy="43" r="2.7" fill="#e4cc37" opacity="0.24"/>
<circle cx="968" cy="1037" r="1.8" fill="#dd9633" opacity="0.50"/>
<line x1="483" y1="1253" x2="483" y2="1256" stroke="#e4cc37" stroke-width="0.7" opacity="0.20"/>
<circle cx="828" cy="1490" r="0.9" fill="#e4cc37" opacity="0.45"/>
<line x1="1297" y1="1090" x2="1306" y2="1087" stroke="#dd9633" stroke-width="0.8" opacity="0.53"/>
<circle cx="1553" cy="1173" r="1.1" fill="#dd9633" opacity="0.29"/>
<line x1="470" y1="486" x2="470" y2="485" stroke="#dd9633" stroke-width="0.6" opacity="0.55"/>
<line x1="1476" y1="998" x2="1482" y2="987" stroke="#a8c256" stroke-width="1.6" opacity="0.45"/>
<line x1="239" y1="1332" x2="243" y2="1328" stroke="#a8c256" stroke-width="1.1" opacity="0.23"/>
<circle cx="670" cy="477" r="0.8" fill="#e4cc37" opacity="0.69"/>
<circle cx="532" cy="1506" r="1.2" fill="#f7b32b" opacity="0.49"/>
<circle cx="202" cy="530" r="2.4" fill="#a8c256" opacity="0.44"/>
<line x1="573" y1="1359" x2="582" y2="1349" stroke="#dd9633" stroke-width="1.8" opacity="0.24"/>
<line x1="1429" y1="1411" x2="1423" y2="1410" stroke="#f7b32b" stroke-width="1.6" opacity="0.32"/>
<circle cx="235" cy="942" r="0.9" fill="#f7b32b" opacity="0.52"/>
<circle cx="669" cy="380" r="3.0" fill="#f7b32b" opacity="0.29"/>
<circle cx="948" cy="972" r="1.0" fill="#e4cc37" opacity="0.20"/>
<line x1="1397" y1="926" x2="1387" y2="930" stroke="#f7b32b" stroke-width="1.5" opacity="0.54"/>
<circle cx="961" cy="1304" r="2.3" fill="#e4cc37" opacity="0.31"/>
<line x1="1420" y1="733" x2="1421" y2="722" stroke="#a8c256" stroke-width="2.1" opacity="0.50"/>
<line x1="1224" y1="1482" x2="1227" y2="1479" stroke="#f7b32b" stroke-width="2.2" opacity="0.21"/>
<line x1="707" y1="848" x2="715" y2="849" stroke="#a8c256" stroke-width="2.0" opacity="0.37"/>
<line x1="292" y1="1290" x2="283" y2="1300" stroke="#dd9633" stroke-width="0.8" opacity="0.55"/>
<circle cx="600" cy="952" r="2.1" fill="#e4cc37" opacity="0.25"/>
<circle cx="872" cy="733" r="2.4" fill="#dd9633" opacity="0.61"/>
<line x1="1084" y1="55" x2="1082" y2="55" stroke="#e4cc37" stroke-width="1.9" opacity="0.54"/>
<line x1="1381" y1="972" x2="1388" y2="983" stroke="#dd9633" stroke-width="1.9" opacity="0.37"/>
<line x1="497" y1="1230" x2="498" y2="1238" stroke="#dd9633" stroke-width="1.4" opacity="0.54"/>
<line x1="102" y1="1188" x2="92" y2="1198" stroke="#a8c256" stroke-width="2.2" opacity="0.48"/>
<circle cx="271" cy="30" r="2.3" fill="#dd9633" opacity="0.28"/>
<line x1="229" y1="1226" x2="239" y2="1234" stroke="#a8c256" stroke-width="2.0" opacity="0.36"/>
<circle cx="121" cy="972" r="2.1" fill="#e4cc37" opacity="0.29"/>
<circle cx="1192" cy="694" r="2.4" fill="#e4cc37" opacity="0.22"/>
<line x1="1563" y1="621" x2="1556" y2="628" stroke="#dd9633" stroke-width="1.6" opacity="0.55"/>
<circle cx="1528" cy="476" r="0.9" fill="#e4cc37" opacity="0.45"/>
<circle cx="230" cy="321" r="1.3" fill="#dd9633" opacity="0.52"/>
<line x1="1260" y1="978" x2="1262" y2="975" stroke="#e4cc37" stroke-width="1.7" opacity="0.25"/>
<line x1="788" y1="1083" x2="779" y2="1087" stroke="#a8c256" stroke-width="0.9" opacity="0.32"/>
<line x1="1598" y1="771" x2="1598" y2="766" stroke="#dd9633" stroke-width="1.1" opacity="0.25"/>
<circle cx="1287" cy="1442" r="2.6" fill="#a8c256" opacity="0.62"/>
<line x1="587" y1="1081" x2="597" y2="1069" stroke="#f7b32b" stroke-width="0.7" opacity="0.48"/>
<circle cx="957" cy="55" r="2.6" fill="#f7b32b" opacity="0.26"/>
<circle cx="424" cy="1120" r="0.7" fill="#e4cc37" opacity="0.28"/>
<circle cx="1515" cy="1356" r="0.7" fill="#f7b32b" opacity="0.54"/>
<circle cx="1181" cy="239" r="0.8" fill="#f7b32b" opacity="0.40"/>
<line x1="625" y1="1161" x2="635" y2="1167" stroke="#dd9633" stroke-width="1.3" opacity="0.55"/>
<line x1="721" y1="443" x2="728" y2="440" stroke="#a8c256" stroke-width="1.6" opacity="0.27"/>
<circle cx="854" cy="1077" r="2.2" fill="#f7b32b" opacity="0.55"/>
<circle cx="1411" cy="111" r="3.0" fill="#f7b32b" opacity="0.55"/>
<line x1="261" y1="119" x2="261" y2="116" stroke="#f7b32b" stroke-width="1.0" opacity="0.47"/>
<line x1="766" y1="390" x2="766" y2="390" stroke="#dd9633" stroke-width="0.8" opacity="0.35"/>
<circle cx="21" cy="471" r="1.4" fill="#e4cc37" opacity="0.35"/>
<line x1="139" y1="1172" x2="137" y2="1183" stroke="#f7b32b" stroke-width="1.0" opacity="0.58"/>
<line x1="1373" y1="468" x2="1380" y2="460" stroke="#f7b32b" stroke-width="1.9" opacity="0.44"/>
<circle cx="835" cy="1421" r="2.5" fill="#a8c256" opacity="0.44"/>
<circle cx="443" cy="502" r="2.1" fill="#dd9633" opacity="0.23"/>
<circle cx="139" cy="1154" r="1.3" fill="#f7b32b" opacity="0.62"/>
<circle cx="1349" cy="1342" r="2.2" fill="#a8c256" opacity="0.55"/>
<line x1="1035" y1="1438" x2="1028" y2="1440" stroke="#a8c256" stroke-width="1.9" opacity="0.42"/>
<line x1="1226" y1="588" x2="1227" y2="583" stroke="#e4cc37" stroke-width="1.2" opacity="0.42"/>
<line x1="352" y1="120" x2="359" y2="128" stroke="#e4cc37" stroke-width="0.7" opacity="0.26"/>
<circle cx="746" cy="409" r="0.7" fill="#f7b32b" opacity="0.30"/>
<circle cx="18" cy="960" r="2.5" fill="#f7b32b" opacity="0.24"/>
<circle cx="1448" cy="917" r="2.6" fill="#f7b32b" opacity="0.41"/>
<circle cx="1272" cy="98" r="0.9" fill="#dd9633" opacity="0.59"/>
<line x1="373" y1="406" x2="384" y2="412" stroke="#a8c256" stroke-width="0.7" opacity="0.40"/>
<line x1="1319" y1="1559" x2="1320" y2="1557" stroke="#f7b32b" stroke-width="0.8" opacity="0.34"/>
<circle cx="1041" cy="721" r="0.9" fill="#a8c256" opacity="0.24"/>
<line x1="1486" y1="835" x2="1479" y2="835" stroke="#e4cc37" stroke-width="1.8" opacity="0.35"/>
<line x1="343" y1="750" x2="333" y2="753" stroke="#a8c256" stroke-width="1.5" opacity="0.38"/>
<line x1="202" y1="1591" x2="209" y2="1603" stroke="#e4cc37" stroke-width="2.0" opacity="0.31"/>
<circle cx="458" cy="280" r="2.3" fill="#a8c256" opacity="0.67"/>
<line x1="1432" y1="572" x2="1435" y2="569" stroke="#dd9633" stroke-width="0.6" opacity="0.52"/>
<circle cx="1084" cy="1276" r="1.8" fill="#a8c256" opacity="0.57"/>
<line x1="370" y1="255" x2="367" y2="248" stroke="#dd9633" stroke-width="1.0" opacity="0.30"/>
<circle cx="920" cy="1215" r="2.6" fill="#dd9633" opacity="0.31"/>
<circle cx="546" cy="930" r="3.0" fill="#a8c256" opacity="0.21"/>
<line x1="128" y1="687" x2="126" y2="684" stroke="#a8c256" stroke-width="2.0" opacity="0.35"/>
<circle cx="653" cy="682" r="2.1" fill="#e4cc37" opacity="0.52"/>
<line x1="1229" y1="1560" x2="1232" y2="1554" stroke="#dd9633" stroke-width="1.8" opacity="0.39"/>
<circle cx="878" cy="774" r="0.8" fill="#e4cc37" opacity="0.40"/>
<circle cx="1441" cy="1038" r="1.0" fill="#e4cc37" opacity="0.32"/>
<circle cx="175" cy="1505" r="1.3" fill="#a8c256" opacity="0.56"/>
<circle cx="308" cy="789" r="1.8" fill="#f7b32b" opacity="0.45"/>
<circle cx="1075" cy="1305" r="2.9" fill="#a8c256" opacity="0.23"/>
<line x1="1082" y1="783" x2="1089" y2="793" stroke="#f7b32b" stroke-width="1.0" opacity="0.54"/>
</svg>